<?xml version="1.0" standalone="no"?>
<!DOCTYPE svg PUBLIC "-//W3C//DTD SVG 1.1//EN" "http://www.w3.org/Graphics/SVG/1.1/DTD/svg11.dtd" >
<!--
2013-9-30: Created.
-->
<svg>
<metadata>
Created by iconfont
</metadata>
<defs>

<font id="iconfont" horiz-adv-x="1024" >
  <font-face
    font-family="iconfont"
    font-weight="500"
    font-stretch="normal"
    units-per-em="1024"
    ascent="896"
    descent="-128"
  />
    <missing-glyph />
    
    <glyph glyph-name="close2" unicode="&#59045;" d="M822.345143 590.848L615.424 384l206.921143-206.848-103.497143-103.497143L512 280.576l-206.848-206.921143-103.497143 103.497143L408.576 384 201.654857 590.848l103.497143 103.497143L512 487.424l206.848 206.921143 103.497143-103.497143z"  horiz-adv-x="1024" />

    
    <glyph glyph-name="exclamation-mark" unicode="&#59046;" d="M585.142857 164.57142899999997v-146.285715H438.857143v146.285715h146.285714z m0 585.142857v-512H438.857143V749.714286h146.285714z"  horiz-adv-x="1024" />

    
    <glyph glyph-name="check3" unicode="&#59047;" d="M859.940571 500.004571l-352.548571-352.475428 0.219429-0.146286-103.497143-103.424L153.6 293.083429l103.424 103.497142L403.748571 250.73371399999996 756.516571 603.4285709999999l103.424-103.424z"  horiz-adv-x="1024" />

    
    <glyph glyph-name="minus" unicode="&#59048;" d="M219.428571 457.142857h585.142858v-146.285714H219.428571z"  horiz-adv-x="1024" />

    
    <glyph glyph-name="yinxinyunyingpingtai1" unicode="&#59044;" d="M512 839.111111c48.128 0 91.932444-46.648889 124.529778-122.88 118.954667 72.135111 218.794667 96.312889 261.404444 53.703111 42.666667-42.666667 18.432-142.449778-53.646222-261.404444C920.462222 475.932444 967.111111 432.128 967.111111 384c0-48.128-46.648889-91.932444-122.88-124.529778 72.135111-118.954667 96.312889-218.794667 53.703111-261.404444-42.666667-42.666667-142.449778-18.432-261.404444 53.646222C603.932444-24.462222 560.128-71.111111 512-71.111111c-48.128 0-91.932444 46.648889-124.529778 122.88-118.954667-72.135111-218.794667-96.312889-261.404444-53.703111-42.666667 42.666667-18.432 142.449778 53.646222 261.404444C103.537778 292.067556 56.888889 335.872 56.888889 384c0 48.128 46.648889 91.932444 122.88 124.529778-72.135111 118.954667-96.312889 218.794667-53.703111 261.404444 42.666667 42.666667 142.449778 18.432 261.404444-53.646222C420.067556 792.462222 463.872 839.111111 512 839.111111z m0-699.619555l-5.006222-3.982223c-26.567111-21.048889-52.849778-40.277333-78.506667-57.514666l0.568889-1.194667 0.853333-2.161778a415.288889 415.288889 0 0 1 4.949334-11.377778l0.910222-1.991111 1.365333-3.015111 0.910222-1.934222 2.275556-4.778667 0.967111-1.877333 0.967111-1.877333 1.422222-2.730667 0.967112-1.820444c3.128889-6.030222 6.371556-11.662222 9.671111-16.896l0.967111-1.592889c6.712889-10.638222 13.653333-19.740444 20.650666-27.079111l4.892445-4.892445c1.706667-1.649778 3.413333-3.128889 5.12-4.551111l0.853333-0.625778c9.386667-7.395556 17.749333-10.695111 25.201778-10.695111 7.395556 0 15.815111 3.242667 25.201778 10.695111l0.853333 0.625778c1.706667 1.422222 3.413333 2.901333 5.12 4.551111l4.892445 4.892445c6.997333 7.395556 13.937778 16.440889 20.650666 27.079111l0.967111 1.592889c3.299556 5.233778 6.542222 10.865778 9.671111 16.896l0.967112 1.820444 1.422222 2.730667 0.967111 1.877333 0.910222 1.877333a357.831111 357.831111 0 0 1 2.275556 4.778667l0.967111 1.934222 1.365333 3.015111 0.910222 1.991111a415.288889 415.288889 0 0 1 4.949334 11.377778l0.910222 2.161778 0.455111 1.194667c-27.192889 18.318222-55.182222 38.912-83.456 61.44z m286.435556 102.912l-5.290667-1.706667c-33.735111-10.638222-71.395556-19.399111-111.900445-25.884445-6.826667-42.666667-16.213333-82.090667-27.591111-117.191111 21.048889-13.198222 41.699556-24.746667 61.553778-34.702222 12.288-6.087111 24.120889-11.491556 35.441778-16.156444l2.275555-0.967111c26.737778-10.865778 50.460444-17.578667 70.144-19.911112 12.288-1.422222 22.357333-1.080889 29.866667 0.739556a22.471111 22.471111 0 0 1 11.036445 5.404444c2.275556 2.275556 4.096 5.688889 5.404444 11.036445 1.820444 7.509333 2.161778 17.578667 0.682667 29.866667-2.275556 19.683556-8.988444 43.406222-19.854223 70.087111l-0.967111 2.332444a546.702222 546.702222 0 0 1-16.156444 35.441778c-9.955556 19.854222-21.504 40.448-34.645333 61.610667z m-572.871112 0l-3.299555-5.347556c-11.776-19.285333-22.186667-38.115556-31.288889-56.32a546.702222 546.702222 0 0 1-16.213333-35.384889l-0.967111-2.275555c-10.865778-26.737778-17.578667-50.460444-19.911112-70.144-1.422222-12.288-1.080889-22.357333 0.739556-29.866667a22.471111 22.471111 0 0 1 5.404444-11.036445c2.275556-2.275556 5.688889-4.096 11.036445-5.404444 7.509333-1.820444 17.578667-2.161778 29.866667-0.682667 19.683556 2.275556 43.406222 8.988444 70.087111 19.854223l2.332444 0.967111a546.702222 546.702222 0 0 1 35.441778 16.156444c19.854222 9.955556 40.448 21.504 61.610667 34.645333-11.377778 35.157333-20.764444 74.581333-27.591112 117.191112-42.666667 6.826667-82.090667 16.213333-117.191111 27.591111z m405.845334-34.247112l-6.144-0.682666a1069.511111 1069.511111 0 0 0-37.546667-3.185778c-12.629333-11.491556-25.258667-22.698667-37.888-33.450667 20.878222-16.497778 41.642667-31.857778 62.008889-45.909333 7.793778 25.713778 14.336 53.646222 19.569778 83.228444z m-238.933334 0l0.227556-0.568888c5.176889-29.354667 11.719111-57.059556 19.399111-82.659556 20.48 14.051556 41.187556 29.354667 62.008889 45.795556a1850.368 1850.368 0 0 0-37.831111 33.564444c-14.791111 0.967111-29.411556 2.275556-43.804445 3.811556zM512 518.144c-18.773333 0-37.432889-0.455111-55.751111-1.422222A1690.339556 1690.339556 0 0 1 379.221333 439.751111a1045.731556 1045.731556 0 0 1 0-111.502222 1690.339556 1690.339556 0 0 1 77.027556-77.027556 1045.731556 1045.731556 0 0 1 111.502222 0 1690.339556 1690.339556 0 0 1 77.027556 77.027556 1045.731556 1045.731556 0 0 1 0 111.502222A1690.339556 1690.339556 0 0 1 567.751111 516.778667c-18.318222 0.967111-36.977778 1.422222-55.751111 1.422222z m213.276444-172.088889l-9.272888-10.581333c-7.964444-9.102222-16.042667-18.204444-24.348445-27.249778-0.910222-14.791111-2.218667-29.411556-3.754667-43.804444 29.525333 5.347556 57.457778 11.946667 83.171556 19.626666-14.051556 20.48-29.354667 41.187556-45.795556 62.008889z m-426.439111 0l-7.623111-9.671111c-13.653333-17.578667-26.396444-35.043556-38.286222-52.337778 25.713778-7.736889 53.646222-14.279111 83.228444-19.512889-1.592889 14.222222-2.844444 28.842667-3.868444 43.690667a1612.458667 1612.458667 0 0 0-33.450667 37.888z m519.168 121.344c-17.237333-25.6-36.465778-51.882667-57.457777-78.449778l-3.982223-5.006222c22.528-28.273778 43.121778-56.263111 61.44-83.456l1.194667 0.455111 2.161778 0.910222a415.288889 415.288889 0 0 1 11.377778 4.949334l1.991111 0.910222 3.015111 1.365333 1.934222 0.910223a357.831111 357.831111 0 0 1 4.778667 2.275555l1.877333 0.967111 1.877333 0.967111 2.730667 1.422223 1.820444 0.967111c6.030222 3.128889 11.662222 6.371556 16.896 9.671111l1.592889 0.967111c10.638222 6.712889 19.740444 13.653333 27.079111 20.650667l4.892445 4.892444c1.649778 1.706667 3.128889 3.413333 4.551111 5.12l0.625778 0.853333c7.395556 9.386667 10.695111 17.749333 10.695111 25.201778 0 7.395556-3.242667 15.815111-10.695111 25.201778l-0.625778 0.853333a95.004444 95.004444 0 0 1-4.551111 5.12l-4.892445 4.892445a177.720889 177.720889 0 0 1-27.079111 20.650666l-1.592889 0.967111a279.608889 279.608889 0 0 1-16.896 9.671112l-1.820444 0.967111a328.021333 328.021333 0 0 1-2.730667 1.422222l-1.877333 0.967111-1.877333 0.910222a357.717333 357.717333 0 0 1-4.778667 2.275556l-1.934222 0.967111-3.015111 1.365333-1.991111 0.910222a415.288889 415.288889 0 0 1-11.377778 4.949334L819.2 467.057778l-1.194667 0.455111z m-612.010666 0L204.8 467.057778l-2.161778-0.910222a415.288889 415.288889 0 0 1-11.377778-4.949334l-1.991111-0.910222-3.015111-1.365333-1.934222-0.910223a357.774222 357.774222 0 0 1-4.778667-2.275555l-1.877333-0.967111-1.877333-0.967111a327.964444 327.964444 0 0 1-2.730667-1.422223l-1.820444-0.967111a279.608889 279.608889 0 0 1-16.896-9.671111l-1.592889-0.967111c-10.638222-6.712889-19.740444-13.653333-27.079111-20.650667l-4.892445-4.892444a95.004444 95.004444 0 0 1-4.551111-5.12l-0.625778-0.853333c-7.395556-9.386667-10.695111-17.749333-10.695111-25.201778 0-7.395556 3.242667-15.815111 10.695111-25.201778l0.625778-0.853333c1.422222-1.706667 2.901333-3.413333 4.551111-5.12l4.892445-4.892445c7.395556-6.997333 16.440889-13.937778 27.079111-20.650666l1.592889-0.967111c5.233778-3.299556 10.865778-6.542222 16.896-9.671112l1.820444-0.967111 2.730667-1.422222 1.877333-0.967111 1.877333-0.910222c1.536-0.796444 3.185778-1.536 4.778667-2.275556l1.934222-0.967111 3.015111-1.365333 1.991111-0.910222a415.288889 415.288889 0 0 1 11.377778-4.949334l2.161778-0.910222 1.194667-0.455111c18.318222 27.249778 38.912 55.182222 61.553777 83.512889A1246.435556 1246.435556 0 0 0 205.937778 467.456z m306.460444 2.275556a84.423111 84.423111 0 1 0 0-168.846223 84.423111 84.423111 0 0 0 0 168.903112z m-176.355555 33.735111l-0.568889-0.170667a736.142222 736.142222 0 0 1-82.602667-19.399111c14.051556-20.48 29.354667-41.187556 45.795556-62.008889 10.865778 12.515556 22.072889 25.201778 33.564444 37.831111 0.967111 14.791111 2.275556 29.411556 3.811556 43.804445z m351.744 0l0.682666-6.257778c1.251556-12.288 2.332444-24.803556 3.185778-37.546667 11.491556-12.572444 22.698667-25.201778 33.450667-37.831111 16.497778 20.878222 31.857778 41.642667 45.909333 62.008889a730.282667 730.282667 0 0 1-83.228444 19.569778zM171.064889 741.319111a22.471111 22.471111 0 0 1-11.036445-5.404444c-2.275556-2.275556-4.096-5.688889-5.404444-11.036445a87.836444 87.836444 0 0 1-0.682667-29.866666c2.275556-19.683556 8.988444-43.406222 19.854223-70.087112l0.967111-2.332444c4.664889-11.320889 10.069333-23.153778 16.156444-35.441778 9.955556-19.854222 21.504-40.448 34.645333-61.610666 35.157333 11.377778 74.581333 20.764444 117.191112 27.591111 6.826667 42.666667 16.213333 82.090667 27.591111 117.191111a751.445333 751.445333 0 0 1-61.553778 34.702222 546.702222 546.702222 0 0 1-35.441778 16.156444l-2.275555 0.967112c-26.737778 10.865778-50.460444 17.578667-70.144 19.911111a87.836444 87.836444 0 0 1-29.866667-0.739556z m651.946667 0.682667c-19.626667-2.275556-43.349333-8.988444-70.030223-19.854222l-2.332444-0.967112a546.702222 546.702222 0 0 1-35.441778-16.156444c-19.854222-9.955556-40.448-21.504-61.610667-34.645333 11.377778-35.157333 20.764444-74.581333 27.591112-117.191111 42.666667-6.826667 82.090667-16.213333 117.191111-27.591112 13.198222 21.048889 24.746667 41.699556 34.702222 61.553778a546.702222 546.702222 0 0 1 16.156444 35.441778l0.967111 2.275556c10.865778 26.737778 17.578667 50.460444 19.911112 70.144 1.422222 12.288 1.080889 22.357333-0.739556 29.866666a22.471111 22.471111 0 0 1-5.404444 11.036445 22.471111 22.471111 0 0 1-11.036445 5.404444 87.836444 87.836444 0 0 1-29.866667 0.682667z m-410.851556-98.986667l-1.706667-5.745778c-7.054222-24.120889-13.027556-50.062222-17.863111-77.482666 14.222222 1.592889 28.842667 2.844444 43.690667 3.868444 12.629333 11.491556 25.258667 22.698667 37.888 33.450667-20.878222 16.497778-41.642667 31.857778-62.008889 45.909333z m199.68 0l-11.946667-8.362667c-16.497778-11.719111-33.223111-24.234667-50.062222-37.432888 12.629333-10.865778 25.258667-22.072889 37.888-33.564445 14.791111-0.967111 29.411556-2.275556 43.804445-3.811555-5.347556 29.525333-11.946667 57.457778-19.626667 83.171555zM512 791.096889c-7.395556 0-15.815111-3.242667-25.201778-10.695111l-0.853333-0.625778c-1.706667-1.422222-3.413333-2.901333-5.12-4.551111l-4.892445-4.892445c-6.997333-7.395556-13.937778-16.440889-20.650666-27.079111l-0.967111-1.592889a279.608889 279.608889 0 0 1-9.671111-16.896l-0.967112-1.820444a327.964444 327.964444 0 0 1-1.422222-2.730667l-0.967111-1.877333-0.910222-1.877333a357.774222 357.774222 0 0 1-2.275556-4.778667l-0.967111-1.934222-1.365333-3.015111-0.910222-1.991111a415.288889 415.288889 0 0 1-4.949334-11.377778L428.942222 691.2l-0.455111-1.194667c27.249778-18.318222 55.182222-38.912 83.512889-61.553777 28.216889 22.641778 56.206222 43.235556 83.399111 61.553777L595.057778 691.2l-0.910222 2.161778a415.288889 415.288889 0 0 1-4.949334 11.377778l-0.910222 1.991111-1.365333 3.015111-0.910223 1.934222a357.831111 357.831111 0 0 1-2.275555 4.778667l-0.967111 1.877333-0.967111 1.877333a328.078222 328.078222 0 0 1-1.422223 2.730667l-0.967111 1.820444a279.608889 279.608889 0 0 1-9.671111 16.896l-0.967111 1.592889a177.720889 177.720889 0 0 1-20.650667 27.079111l-4.892444 4.892445a95.004444 95.004444 0 0 1-5.12 4.551111l-0.853333 0.625778c-9.386667 7.395556-17.749333 10.695111-25.201778 10.695111z"  horiz-adv-x="1024" />

    
    <glyph glyph-name="yinxinyunyingpingtai" unicode="&#59043;" d="M512 839.111111l140.629333-285.013333L967.111111 508.359111l-227.555555-221.866667 53.703111-313.230222L512 121.173333l-281.258667-147.911111L284.444444 286.492444l-227.555555 221.866667 314.481778 45.738667L512 839.111111z m108.885333-329.614222l-108.430222 219.591111-108.430222-219.591111-242.460445-35.271111 175.445334-170.894222-41.415111-241.379556 216.860444 113.948444 216.860445-113.948444-41.415112 241.379556 175.388445 170.951111-242.403556 35.214222zM512 525.312L556.487111 435.2l99.555556-14.449778-72.021334-70.144 16.952889-99.043555L512 298.325333l-88.974222-46.762666 16.952889 99.043555L368.071111 420.750222 467.512889 435.2z"  horiz-adv-x="1024" />

    
    <glyph glyph-name="bangzhuzhinan" unicode="&#59040;" d="M928.995556 355.555556a284.444444 284.444444 0 1 0-492.657778-284.444445 284.444444 284.444444 0 0 0 492.657778 284.444445z m-201.728 480.881777c65.592889 0 118.897778-52.337778 119.921777-117.304889V545.564444c0-13.255111-10.808889-24.007111-24.120889-24.007111a24.064 24.064 0 0 0-24.120888 23.608889V717.141333c0 39.025778-31.459556 70.656-70.542223 71.281778H176.867556c-39.139556 0-70.997333-31.288889-71.68-70.087111v-669.240889c0-39.025778 31.459556-70.656 70.542222-71.281778h229.603555c13.368889 0 24.120889-10.808889 24.120889-24.007111 0-13.141333-10.581333-23.836444-23.722666-24.007111H176.810667c-65.536 0-118.897778 52.337778-119.921778 117.304889V717.141333c0 65.251556 52.622222 118.272 117.930667 119.296h552.391111z m-44.828445-532.081777L476.16 215.893333l206.336-88.405333 206.336 88.405333-206.336 88.462223z m-350.606222-107.918223a24.007111 24.007111 0 0 0 0-48.014222H209.180444a24.007111 24.007111 0 0 0 0 48.014222h122.652445z m400.099555 45.340445a56.888889 56.888889 0 1 0-98.531555-56.888889 56.888889 56.888889 0 0 0 98.531555 56.888889zM331.832889 443.562667a24.007111 24.007111 0 0 0 0-48.014223H209.180444a24.007111 24.007111 0 1 0 0 48.014223h122.652445z m341.333333 247.125333a24.007111 24.007111 0 0 0 0-48.014222H209.180444a24.007111 24.007111 0 1 0 0 48.014222h463.985778z"  horiz-adv-x="1024" />

    
    <glyph glyph-name="gengduo" unicode="&#59041;" d="M170.666667 668.444444m24.007111 0l634.652444 0q24.007111 0 24.007111-24.007111l0-8.874666q0-24.007111-24.007111-24.007111l-634.652444 0q-24.007111 0-24.007111 24.007111l0 8.874666q0 24.007111 24.007111 24.007111ZM170.666667 440.888889m24.007111 0l634.652444 0q24.007111 0 24.007111-24.007111l0-8.874667q0-24.007111-24.007111-24.007111l-634.652444 0q-24.007111 0-24.007111 24.007111l0 8.874667q0 24.007111 24.007111 24.007111ZM170.666667 213.333333m24.007111 0l634.652444 0q24.007111 0 24.007111-24.007111l0-8.874666q0-24.007111-24.007111-24.007112l-634.652444 0q-24.007111 0-24.007111 24.007112l0 8.874666q0 24.007111 24.007111 24.007111Z"  horiz-adv-x="1024" />

    
    <glyph glyph-name="fankui" unicode="&#59042;" d="M870.968889 782.222222c53.077333 0 96.142222-43.064889 96.142222-96.142222v-533.048889a96.142222 96.142222 0 0 0-96.142222-96.142222h-215.324445l-118.556444-117.76a35.612444 35.612444 0 0 0-50.176 0l-118.613333 117.76H153.088A96.142222 96.142222 0 0 0 56.888889 153.031111V686.08C56.888889 739.100444 99.953778 782.222222 153.031111 782.222222h717.937778z m-17.863111-47.786666H170.894222c-33.962667 0-61.952-25.713778-65.536-58.709334l-0.398222-7.168v-498.005333c0-34.019556 25.713778-62.008889 58.766222-65.536l7.168-0.398222h220.785778l94.492444-99.271111 1.251556-1.251556c12.856889-12.231111 32.426667-12.970667 46.08-2.616889l4.323556 3.868445 94.435555 99.271111h220.842667c33.962667 0 61.952 25.713778 65.536 58.709333l0.398222 7.224889V668.558222c0 36.408889-29.582222 65.877333-65.934222 65.877334zM240.810667 484.124444c32.711111 0 59.221333-26.339556 59.221333-58.823111s-26.510222-58.823111-59.221333-58.823111a59.050667 59.050667 0 0 0-59.221334 58.823111c0 32.426667 26.510222 58.823111 59.164445 58.823111z m270.791111 0c32.654222 0 59.164444-26.339556 59.164444-58.823111s-26.510222-58.823111-59.164444-58.823111A59.050667 59.050667 0 0 0 452.266667 425.301333c0 32.426667 26.510222 58.823111 59.221333 58.823111z m271.587555 0c32.711111 0 59.221333-26.339556 59.221334-58.823111s-26.510222-58.823111-59.164445-58.823111a59.050667 59.050667 0 0 0-59.278222 58.823111c0 32.426667 26.510222 58.823111 59.221333 58.823111z"  horiz-adv-x="1024" />

    
    <glyph glyph-name="kucunguanli" unicode="&#59039;" d="M876.088889 839.111111c50.289778 0 91.022222-50.915556 91.022222-113.777778v-682.666666c0-62.862222-40.732444-113.777778-91.022222-113.777778H147.911111c-50.289778 0-91.022222 50.915556-91.022222 113.777778V725.333333c0 62.862222 40.732444 113.777778 91.022222 113.777778h728.177778z m43.008-756.394667H104.846222v-40.561777c0-32.142222 25.201778-64.568889 50.232889-64.568889H867.555556c25.031111 0 51.484444 30.151111 51.484444 62.236444v42.894222zM379.505778 791.153778H156.16c-25.031111 0-51.256889-32.426667-51.256889-64.568889l-0.056889-595.569778h814.250667V725.390222c0 32.142222-26.851556 65.706667-51.768889 65.706667l-223.800889 0.056889v-395.548445L511.886222 440.32l-132.323555-44.714667-0.056889 395.548445z m216.064-0.341334H427.576889v-329.045333l84.252444 35.84 83.740445-35.84V790.812444z"  horiz-adv-x="1024" />

    
    <glyph glyph-name="gongyinglianxietong" unicode="&#59033;" d="M512 839.111111c74.922667 0 137.671111-51.712 154.737778-121.344a409.543111 409.543111 0 0 0 246.044444-464.270222 159.288889 159.288889 0 0 0-180.280889-260.209778A407.267556 407.267556 0 0 0 512-71.111111a407.665778 407.665778 0 0 0-220.558222 64.398222 159.288889 159.288889 0 0 0-180.110222 260.323556 409.713778 409.713778 0 0 0 245.873777 464.213333A159.402667 159.402667 0 0 0 512 839.111111z m158.72-172.828444l-0.568889-5.688889a159.288889 159.288889 0 0 0-316.871111 5.575111 363.918222 363.918222 0 0 1-200.647111-386.389333 159.288889 159.288889 0 0 0 177.891555-256.967112c53.361778-30.776889 115.370667-48.412444 181.475556-48.412444a362.382222 362.382222 0 0 1 181.475556 48.355556 159.288889 159.288889 0 0 0 177.777777 257.024 364.088889 364.088889 0 0 1-200.647111 386.446222zM216.177778 247.466667a113.265778 113.265778 0 0 1-70.542222-24.462223l1.080888 0.796445c-2.56-1.991111-5.006222-4.039111-7.395555-6.257778l6.257778 5.404445a114.403556 114.403556 0 0 1-7.338667-6.371556l1.137778 1.024c-2.389333-2.104889-4.551111-4.323556-6.712889-6.656l5.575111 5.688889c-2.332444-2.275556-4.551111-4.551111-6.769778-6.940445l1.137778 1.251556A113.607111 113.607111 0 0 1 102.4 133.688889a113.777778 113.777778 0 0 1 138.808889-111.047111l7.623111 1.991111 9.216 3.185778a113.208889 113.208889 0 0 1 7.964444 3.527111l-6.883555-3.072a113.208889 113.208889 0 0 1 10.24 4.778666l-3.299556-1.706666c2.673778 1.365333 5.347556 2.787556 7.964445 4.323555l-4.721778-2.616889c2.616889 1.365333 5.233778 2.844444 7.736889 4.437334l-3.072-1.820445c6.371556 3.697778 12.288 8.078222 17.806222 12.913778l4.892445 4.664889A113.777778 113.777778 0 0 1 216.177778 247.466667z m591.644444 0a113.777778 113.777778 0 0 1-80.440889-194.218667l4.949334-4.664889a113.777778 113.777778 0 0 1 17.464889-12.8l-2.844445 1.706667c2.844444-1.763556 5.802667-3.413333 8.817778-5.006222l-5.973333 3.299555c2.446222-1.422222 4.892444-2.787556 7.452444-4.039111l-1.479111 0.739556c3.015111-1.536 6.087111-2.958222 9.216-4.209778l-7.736889 3.413333c2.844444-1.365333 5.802667-2.673778 8.760889-3.868444l-1.024 0.455111c3.299556-1.365333 6.712889-2.56 10.24-3.640889l7.68-1.991111a113.777778 113.777778 0 0 1 102.855111 193.934222l4.892444-4.892444a114.517333 114.517333 0 0 1-5.973333 5.916444l1.080889-1.024a114.744889 114.744889 0 0 1-7.395556 6.371556l6.257778-5.347556a114.346667 114.346667 0 0 1-7.338666 6.257778l1.137777-0.910222A114.005333 114.005333 0 0 1 807.822222 247.466667zM512 793.6c-39.992889 0-75.150222-20.650667-95.459556-51.825778l-3.527111-5.802666a113.095111 113.095111 0 0 1-11.377777-28.216889l0.739555 2.616889c-0.682667-2.503111-1.308444-5.12-1.877333-7.68l1.137778 5.063111c-0.739556-3.072-1.365333-6.257778-1.934223-9.386667l0.796445 4.323556a113.550222 113.550222 0 0 1-1.592889-10.126223l0.796444 5.802667a113.891556 113.891556 0 0 1-1.080889-8.874667l-0.341333-8.476444L398.222222 679.822222a113.777778 113.777778 0 0 1 105.244445-113.493333L512 566.044444a113.777778 113.777778 0 0 1 110.136889 142.449778l0.682667-2.901333c-0.796444 3.413333-1.706667 6.826667-2.844445 10.126222l2.161778-7.224889a112.867556 112.867556 0 0 1-2.844445 9.159111l0.682667-1.934222a112.810667 112.810667 0 0 1-8.988444 20.252445l-3.527111 5.802666A113.664 113.664 0 0 1 512 793.6z"  horiz-adv-x="1024" />

    
    <glyph glyph-name="shouye" unicode="&#59034;" d="M853.333333-23.096889c12.515556 0 22.755556-10.808889 22.755556-24.007111 0-13.255111-10.24-24.007111-22.755556-24.007111H170.666667c-12.515556 0-22.755556 10.752-22.755556 24.007111 0 13.255111 10.24 24.007111 22.755556 24.007111h682.666666zM876.088889 839.111111A91.022222 91.022222 0 0 0 967.111111 748.145778v-545.678222a91.022222 91.022222 0 0 0-91.022222-90.965334H147.911111A91.022222 91.022222 0 0 0 56.888889 202.467556V748.088889A91.022222 91.022222 0 0 0 147.911111 839.111111h728.177778z m-8.817778-48.014222h-711.111111c-25.031111 0-51.256889-25.144889-51.256889-50.062222v-531.342223c0-24.917333 25.144889-50.062222 50.176-50.062222H867.555556c25.031111 0 51.484444 23.324444 51.484444 48.298667V740.067556c0 24.974222-26.851556 51.029333-51.768889 51.029333zM420.579556 556.544l177.834666-145.351111 162.474667 132.835555a24.234667 24.234667 0 0 0 30.72-37.546666l-193.194667-157.923556-177.834666 145.408-162.474667-132.835555a24.234667 24.234667 0 0 0-30.72 37.546666l193.194667 157.866667z"  horiz-adv-x="1024" />

    
    <glyph glyph-name="caiwujiesuan" unicode="&#59035;" d="M795.534222 273.749333a171.576889 171.576889 0 1 0 0-343.04 171.576889 171.576889 0 0 0 0 343.04zM630.215111 839.111111c13.255111 0 24.007111-10.752 24.007111-24.007111v-22.186667h112.64a100.693333 100.693333 0 0 0 100.693334-99.100444v-348.899556a21.333333 21.333333 0 1 0-42.666667 0V692.110222a58.026667 58.026667 0 0 1-57.059556 58.083556L654.222222 750.250667v-32.938667a24.007111 24.007111 0 0 0-48.014222 0v32.938667H328.874667v-32.938667a24.007111 24.007111 0 1 0-47.957334 0l-0.056889 32.938667H157.582222a58.026667 58.026667 0 0 1-58.026666-57.173334v-661.617777a58.026667 58.026667 0 0 1 57.059555-58.140445h454.599111a21.333333 21.333333 0 1 0 0-42.666667H157.582222A100.693333 100.693333 0 0 0 56.888889 29.752889V692.110222a100.693333 100.693333 0 0 0 98.986667 100.750222l124.984888 0.056889v22.186667a24.007111 24.007111 0 1 0 48.014223 0v-22.186667h277.333333v22.186667c0 13.255111 10.808889 24.007111 24.007111 24.007111z m213.731556-684.259555l-3.754667-3.128889-64.910222-67.128889-23.893334 22.983111a24.007111 24.007111 0 0 1-36.465777-30.776889l3.128889-3.754667 58.197333-56.149333 0.056889 0.056889 0.284444-0.227556 98.133334 101.660445a24.007111 24.007111 0 0 1-30.776889 36.465778zM600.177778 558.421333a23.381333 23.381333 0 0 0 9.386666-31.687111l-53.475555-92.558222h42.837333c12.572444 0 22.755556-10.808889 22.755556-24.064 0-13.255111-10.183111-24.007111-22.755556-24.007111l-113.777778 0.056889v-84.935111h113.777778c12.572444 0 22.755556-10.808889 22.755556-24.007111 0-13.255111-10.183111-24.007111-22.755556-24.007112h-113.777778v-69.347555a22.755556 22.755556 0 1 0-45.511111 0v69.347555h-113.777777c-12.515556 0-22.755556 10.752-22.755556 24.007112 0 13.255111 10.24 24.007111 22.755556 24.007111h113.777777V386.161778h-113.777777c-12.515556 0-22.755556 10.695111-22.755556 23.950222 0 13.255111 10.24 24.007111 22.755556 24.007111l45.283555 0.056889-53.475555 92.558222a23.381333 23.381333 0 0 0 9.443555 31.687111 23.381333 23.381333 0 0 0 32.199111-7.736889l67.185778-116.508444h74.183111L567.978667 550.684444a23.381333 23.381333 0 0 0 32.199111 7.736889z"  horiz-adv-x="1024" />

    
    <glyph glyph-name="dingdanlvyueguanli" unicode="&#59036;" d="M861.297778 839.111111A105.813333 105.813333 0 0 0 967.111111 733.297778v-462.165334h-0.227555l0.227555-2.673777c0-11.776-8.533333-21.617778-19.683555-23.608889l-4.323556-0.398222a24.007111 24.007111 0 0 0-23.893333 26.737777h-0.113778v450.56c0 38.343111-31.004444 69.404444-69.290667 69.404445H174.193778c-35.84 0-65.422222-27.306667-68.949334-62.293334l-0.341333-7.054222v-675.612444c0-35.84 27.306667-65.422222 62.236445-68.949334l7.054222-0.341333h450.730666a24.007111 24.007111 0 0 0 3.413334-47.616l-3.470222-0.341333V-71.111111H162.645333A105.813333 105.813333 0 0 0 56.888889 34.702222V733.297778A105.813333 105.813333 0 0 0 162.702222 839.111111h698.595556z m-68.437334-566.215111a171.576889 171.576889 0 1 0 0-343.096889 171.576889 171.576889 0 0 0 0 343.04z m48.355556-118.897778l-3.640889-3.185778-64.967111-67.128888-23.893333 23.04a24.007111 24.007111 0 0 1-36.408889-30.833778l3.072-3.697778 58.197333-56.206222 0.056889 0.056889 0.284444-0.227556 98.190223 101.660445a24.007111 24.007111 0 0 1-30.833778 36.465777z m-354.986667 21.105778a24.007111 24.007111 0 0 0 0-48.014222H271.132444a24.007111 24.007111 0 0 0 0 48.014222h215.04z m268.458667 231.992889a24.007111 24.007111 0 0 0 0-48.014222h-483.555556a24.007111 24.007111 0 1 0 0 48.014222h483.555556z m0 231.992889a24.007111 24.007111 0 0 0 0-47.957334h-483.555556a24.007111 24.007111 0 1 0 0 47.957334h483.555556z"  horiz-adv-x="1024" />

    
    <glyph glyph-name="kehufuwu" unicode="&#59037;" d="M433.265778 422.286222c2.673778 0 5.347556-0.113778 7.964444-0.341333l3.811556 0.341333c13.425778 0 24.348444-11.207111 24.348444-25.031111a24.746667 24.746667 0 0 0-30.606222-24.291555v0.113777H339.911111a39.537778 39.537778 0 0 0-39.025778-38.343111 39.424 39.424 0 0 0-38.684444 34.702222l-0.227556 3.640889H162.531556a41.699556 41.699556 0 0 1-40.96-33.564444l-0.682667-5.916445-19.000889-355.441777h330.808889-0.056889c12.174222 0 21.959111-8.704 23.950222-20.195556l0.398222-4.437333a24.462222 24.462222 0 0 0-19.626666-24.234667l-3.584-0.284444h-0.113778l-0.568889-0.113778H56.888889l22.072889 409.486222a88.746667 88.746667 0 0 0 88.576 83.911111h265.728z m423.196444 0a88.746667 88.746667 0 0 0 88.576-83.911111L967.111111-71.111111H480.085333l22.072889 409.486222a88.746667 88.746667 0 0 0 88.576 83.911111h265.671111z m-171.349333-49.208889h-99.441778a41.699556 41.699556 0 0 1-40.903111-33.564444l-0.739556-5.916445-18.944-355.441777h397.084445l-19.057778 355.441777a41.699556 41.699556 0 0 1-41.642667 39.480889h-98.417777a39.537778 39.537778 0 0 0-39.025778-38.343111 39.424 39.424 0 0 0-38.684445 34.702222l-0.227555 3.640889zM324.835556 293.717333l3.527111-222.549333-27.136-26.396444-28.785778 26.396444 3.584 222.549333h48.810667z m423.139555 0l3.584-222.549333-27.136-26.396444-28.785778 26.396444 3.527111 222.549333h48.810667zM299.975111 839.111111c108.259556 0 196.039111-90.225778 196.039111-201.557333S408.234667 435.996444 299.975111 435.996444c-108.259556 0-196.039111 90.225778-196.039111 201.557334S191.715556 839.111111 299.975111 839.111111z m423.196445 0c108.259556 0 196.039111-90.225778 196.039111-201.557333s-87.779556-201.557333-196.039111-201.557334c-108.316444 0-196.096 90.225778-196.096 201.557334S614.855111 839.111111 723.171556 839.111111z m-423.253334-49.265778c-81.749333 0-148.081778-68.152889-148.081778-152.291555S218.168889 485.262222 299.975111 485.262222c81.806222 0 148.138667 68.152889 148.138667 152.291556S381.781333 789.845333 299.975111 789.845333z m423.253334 0c-81.863111 0-148.195556-68.152889-148.195556-152.291555s66.332444-152.291556 148.195556-152.291556c81.806222 0 148.138667 68.152889 148.138666 152.291556s-66.332444 152.291556-148.138666 152.291555z"  horiz-adv-x="1024" />

    
    <glyph glyph-name="gongyingshangruzhujizizhi" unicode="&#59038;" d="M861.297778 839.111111A105.813333 105.813333 0 0 0 967.111111 733.297778v-698.595556A105.813333 105.813333 0 0 0 861.297778-71.111111H162.702222A105.813333 105.813333 0 0 0 56.888889 34.702222V644.096L252.529778 839.111111H861.297778z m-543.118222-47.957333v-112.128c0-55.864889-44.771556-101.262222-100.408889-102.115556H104.846222v-530.716444c0-35.84 27.306667-65.422222 62.293334-68.949334l7.054222-0.341333h675.612444c35.84 0 65.422222 27.306667 68.949334 62.236445l0.341333 7.054222V721.806222c0 38.286222-31.004444 69.290667-69.290667 69.290667l-531.626666 0.056889z m519.168-642.730667a24.007111 24.007111 0 0 0 0-47.957333H183.978667a24.007111 24.007111 0 0 0 0 47.957333H837.404444z m-146.204445 616.049778l44.942222-54.385778 67.242667 21.390222 8.476444-69.973333 68.096-18.375111-30.72-63.488 47.388445-52.337778-60.188445-36.750222 11.605334-69.575111-49.777778 1.137778v-192.796445l-106.837333 38.798222-107.349334-38.798222v192.853333l-49.777777-1.194666 11.605333 69.575111-60.188445 36.807111 47.388445 52.280889-30.72 63.488 68.096 18.318222 8.476444 70.030222 67.242667-21.390222 44.942222 54.328889z m6.371556-371.598222h-12.856889l-51.996445-35.157334-1.592889 3.584v-66.218666l60.188445 18.033777 59.847111-17.976888V361.244444l-1.536-3.527111-52.053333 35.157334z m-301.056-48.924445a24.007111 24.007111 0 1 0 0-47.957333H183.978667a24.007111 24.007111 0 0 0 0 48.014222H396.515556z m294.684444 328.931556l-25.258667-30.378667-37.717333 11.946667-4.721778-39.139556-38.229333-10.24 17.237333-35.498666-26.567111-29.184 33.792-20.593778-6.542222-38.855111 39.537778 0.853333 15.644444-36.181333 32.768 22.016 32.824889-22.016 15.587556 36.181333 39.594666-0.853333-6.542222 38.855111 33.735111 20.593778-26.567111 29.184 17.237333 35.498666-38.172444 10.24-4.721778 39.139556-37.717333-11.946667-25.258667 30.378667z m-294.684444-141.312a24.007111 24.007111 0 1 0 0-48.014222H183.978667a24.007111 24.007111 0 1 0 0 48.014222H396.515556zM262.826667 769.991111L127.886222 632.206222h88.177778c35.384889 0 46.307556 10.524444 46.876444 45.738667L262.826667 769.991111z"  horiz-adv-x="1024" />

    
    <glyph glyph-name="form" unicode="&#59032;" d="M923.428571 54.857143c15.140571 0 27.428571-16.237714 27.428572-36.571429s-12.288-36.571429-27.428572-36.571428H100.571429C85.430857-18.285714 73.142857-2.048 73.142857 18.285714s12.288 36.571429 27.428572 36.571429z m0 365.714286c15.140571 0 27.428571-16.237714 27.428572-36.571429s-12.288-36.571429-27.428572-36.571429H100.571429C85.430857 347.428571 73.142857 363.666286 73.142857 384s12.288 36.571429 27.428572 36.571429z m0 365.714285c15.140571 0 27.428571-16.237714 27.428572-36.571428s-12.288-36.571429-27.428572-36.571429H100.571429C85.430857 713.142857 73.142857 729.380571 73.142857 749.714286s12.288 36.571429 27.428572 36.571428z"  horiz-adv-x="1024" />

    
    <glyph glyph-name="xingzhuangjiehe" unicode="&#59031;" d="M896 844.8h-768a25.6 25.6 0 1 0 0 51.2h768a25.6 25.6 0 1 0 0-51.2z m51.2-153.6h-870.4a25.6 25.6 0 1 0 0 51.2h870.4a25.6 25.6 0 1 0 0-51.2z m-102.144-819.2v51.2H947.2a25.6 25.6 0 0 1 25.1904 20.992L972.8-51.2v563.2a25.6 25.6 0 0 1-20.992 25.1904L947.2 537.6h-870.4a25.6 25.6 0 0 1-25.1904-20.992L51.2 512v-563.2a25.6 25.6 0 0 1 20.992-25.1904L76.8-76.8h102.4v-51.2h-102.4a76.8 76.8 0 0 0-76.4416 69.4272L0-51.2v563.2a76.8 76.8 0 0 0 69.4272 76.4416L76.8 588.8h870.4a76.8 76.8 0 0 0 76.4416-69.4272L1024 512v-563.2a76.8 76.8 0 0 0-69.4272-76.4416L947.2-128h-102.144zM298.5984 30.72l-4.1984 1.9968a25.6 25.6 0 0 0-11.264 30.72l1.8944 4.2496L489.5232 421.888a25.4976 25.4976 0 0 0 2.816 4.096l0.1024 0.1024 2.9696 3.0208a25.6 25.6 0 0 0 15.0528 6.0416h3.072a25.4464 25.4464 0 0 0 14.848-5.888l0.1024-0.1024 3.072-2.9696c0.9216-1.1776 1.8432-2.4576 2.6112-3.7888l204.8-354.7136a25.6 25.6 0 1 0-44.3392-25.6l-54.9888 95.2832H384.3584l-54.9888-95.2832a25.6 25.6 0 0 0-30.7712-11.3152z m115.3536 157.8496h196.096L512 358.4l-98.048-169.8304zM179.456-128v51.2h665.2928v-51.2H179.4048z"  horiz-adv-x="1024" />

    
    <glyph glyph-name="delete" unicode="&#59030;" d="M708.266667 896a59.733333 59.733333 0 0 0 59.733333-59.733333V725.333333h213.333333a42.666667 42.666667 0 1 0 0-85.333333H938.666667v-708.266667a59.733333 59.733333 0 0 0-51.626667-59.221333L878.933333-128H145.066667a59.733333 59.733333 0 0 0-59.733334 59.733333V640H42.666667a42.666667 42.666667 0 0 0 0 85.333333H256V836.266667a59.733333 59.733333 0 0 0 51.626667 59.221333L315.733333 896zM853.333333 640H170.666667v-682.666667h682.666666V640zM384 554.666667a42.666667 42.666667 0 0 0 42.666667-42.666667v-341.333333a42.666667 42.666667 0 0 0-85.333334 0v341.333333a42.666667 42.666667 0 0 0 42.666667 42.666667z m256 0a42.666667 42.666667 0 0 0 42.666667-42.666667v-341.333333a42.666667 42.666667 0 0 0-85.333334 0v341.333333a42.666667 42.666667 0 0 0 42.666667 42.666667zM682.666667 810.666667H341.333333v-85.333334h341.333334V810.666667z"  horiz-adv-x="1024" />

    
    <glyph glyph-name="Strongweighting" unicode="&#59022;" d="M0 384a512 512 0 1 0 1024 0A512 512 0 0 0 0 384z m277.942857 27.794286c0-10.093714 8.265143-18.285714 18.285714-18.285715h431.542858a18.285714 18.285714 0 0 1 13.677714 30.281143l-215.698286 246.491429-1.682286 1.755428a18.285714 18.285714 0 0 1-25.819428-1.682285l-215.771429-246.491429a18.285714 18.285714 0 0 1-4.461714-12.068571z m14.628572-274.285715a36.571429 36.571429 0 0 1 36.571428-36.571428h365.714286a36.571429 36.571429 0 1 1 0 73.142857h-365.714286a36.571429 36.571429 0 0 1-36.571428-36.571429z m0 146.285715a36.571429 36.571429 0 0 1 36.571428-36.571429h365.714286a36.571429 36.571429 0 1 1 0 73.142857h-365.714286a36.571429 36.571429 0 0 1-36.571428-36.571428z"  horiz-adv-x="1024" />

    
    <glyph glyph-name="Rightofweakreduction" unicode="&#59023;" d="M1024 384A512 512 0 1 0 0 384a512 512 0 0 0 1024 0z m-277.942857 81.92a18.285714 18.285714 0 0 1-18.285714 18.285714h-431.542858a18.285714 18.285714 0 0 1-13.677714-30.281143l215.698286-246.491428 1.682286-1.755429a18.285714 18.285714 0 0 1 25.819428 1.682286l215.771429 246.491429a18.285714 18.285714 0 0 1 4.461714 12.068571z"  horiz-adv-x="1024" />

    
    <glyph glyph-name="compulsorysurrender" unicode="&#59024;" d="M1024 384A512 512 0 1 0 0 384a512 512 0 0 0 1024 0z m-277.942857-27.794286a18.285714 18.285714 0 0 1-18.285714 18.285715h-431.542858a18.285714 18.285714 0 0 1-13.677714-30.281143l215.698286-246.491429 1.682286-1.755428a18.285714 18.285714 0 0 1 25.819428 1.682285l215.771429 246.491429a18.285714 18.285714 0 0 1 4.461714 12.068571zM731.428571 630.491429a36.571429 36.571429 0 0 1-36.571428 36.571428h-365.714286a36.571429 36.571429 0 1 1 0-73.142857h365.714286a36.571429 36.571429 0 0 1 36.571428 36.571429z m0-146.285715a36.571429 36.571429 0 0 1-36.571428 36.571429h-365.714286a36.571429 36.571429 0 1 1 0-73.142857h365.714286a36.571429 36.571429 0 0 1 36.571428 36.571428z"  horiz-adv-x="1024" />

    
    <glyph glyph-name="Weakweighting" unicode="&#59025;" d="M0 384a512 512 0 1 0 1024 0A512 512 0 0 0 0 384z m277.942857-81.92c0-10.093714 8.265143-18.285714 18.285714-18.285714h431.542858a18.285714 18.285714 0 0 1 13.677714 30.281143l-215.698286 246.491428-1.682286 1.755429a18.285714 18.285714 0 0 1-25.819428-1.682286l-215.771429-246.491429a18.285714 18.285714 0 0 1-4.461714-12.068571z"  horiz-adv-x="1024" />

    
    <glyph glyph-name="shield" unicode="&#59026;" d="M512 896a512 512 0 1 0 0-1024A512 512 0 0 0 512 896zM305.152 642.633143a36.571429 36.571429 0 0 1-51.785143-51.785143l465.481143-465.481143a36.571429 36.571429 0 0 1 51.785143 51.785143z"  horiz-adv-x="1024" />

    
    <glyph glyph-name="Righttomoderatereduction" unicode="&#59027;" d="M1024 384A512 512 0 1 0 0 384a512 512 0 0 0 1024 0z m-277.942857 45.348571a18.285714 18.285714 0 0 1-18.285714 18.285715h-431.542858a18.285714 18.285714 0 0 1-13.677714-30.281143l215.698286-246.491429 1.682286-1.755428a18.285714 18.285714 0 0 1 25.819428 1.682285l215.771429 246.491429a18.285714 18.285714 0 0 1 4.461714 12.068571zM731.428571 557.348571a36.571429 36.571429 0 0 1-36.571428 36.571429h-365.714286a36.571429 36.571429 0 1 1 0-73.142857h365.714286a36.571429 36.571429 0 0 1 36.571428 36.571428z"  horiz-adv-x="1024" />

    
    <glyph glyph-name="Mediumweighted" unicode="&#59028;" d="M0 384a512 512 0 1 0 1024 0A512 512 0 0 0 0 384z m277.942857-45.348571c0-10.093714 8.265143-18.285714 18.285714-18.285715h431.542858a18.285714 18.285714 0 0 1 13.677714 30.281143l-215.698286 246.491429-1.682286 1.755428a18.285714 18.285714 0 0 1-25.819428-1.682285l-215.771429-246.491429a18.285714 18.285714 0 0 1-4.461714-12.068571zM292.571429 210.651429a36.571429 36.571429 0 0 1 36.571428-36.571429h365.714286a36.571429 36.571429 0 1 1 0 73.142857h-365.714286a36.571429 36.571429 0 0 1-36.571428-36.571428z"  horiz-adv-x="1024" />

    
    <glyph glyph-name="Topping" unicode="&#59029;" d="M512 896a512 512 0 1 0 0-1024A512 512 0 0 0 512 896z m11.995429-443.392a18.285714 18.285714 0 0 1-25.819429-1.682286l-215.771429-246.491428a18.285714 18.285714 0 0 1 13.824-30.354286h431.396572a18.285714 18.285714 0 0 1 13.750857 30.281143l-215.698286 246.491428zM702.171429 603.428571H321.828571a29.257143 29.257143 0 1 1 0-58.514285h380.342858a29.257143 29.257143 0 1 1 0 58.514285z"  horiz-adv-x="1024" />

    
    <glyph glyph-name="other" unicode="&#59021;" d="M512 896a512 512 0 1 0 0-1024A512 512 0 0 0 512 896z m0-73.142857a438.857143 438.857143 0 1 1 0-877.714286A438.857143 438.857143 0 0 1 512 822.857143zM292.571429 427.885714a43.885714 43.885714 0 1 0 0-87.771428 43.885714 43.885714 0 0 0 0 87.771428z m219.428571 0a43.885714 43.885714 0 1 0 0-87.771428 43.885714 43.885714 0 0 0 0 87.771428z m219.428571 0a43.885714 43.885714 0 1 0 0-87.771428 43.885714 43.885714 0 0 0 0 87.771428z"  horiz-adv-x="1024" />

    
    <glyph glyph-name="icon_bottom" unicode="&#59020;" d="M827.465143 739.620571L512 389.412571 196.534857 739.620571A26.843429 26.843429 0 0 1 175.835429 749.714286a26.843429 26.843429 0 0 1-20.699429-10.093715A34.596571 34.596571 0 0 1 146.285714 716.068571c0-8.996571 2.633143-16.457143 7.899429-22.454857l336.164571-372.662857A27.794286 27.794286 0 0 1 512 310.857143a27.794286 27.794286 0 0 1 21.650286 10.093714l336.164571 371.565714a38.034286 38.034286 0 0 1 7.899429 24.137143 33.28 33.28 0 0 1-8.850286 23.552 27.428571 27.428571 0 0 1-20.699429 9.508572 26.843429 26.843429 0 0 1-20.699428-10.093715zM146.285714 164.571429m36.571429 0l658.285714 0q36.571429 0 36.571429-36.571429l0 0q0-36.571429-36.571429-36.571429l-658.285714 0q-36.571429 0-36.571429 36.571429l0 0q0 36.571429 36.571429 36.571429Z"  horiz-adv-x="1024" />

    
    <glyph glyph-name="icon_top" unicode="&#59019;" d="M217.565867 17.954133L512 344.814933 806.434133 17.954133A25.053867 25.053867 0 0 1 825.7536 8.533333a25.053867 25.053867 0 0 1 19.319467 9.4208A32.290133 32.290133 0 0 1 853.333333 39.936c0 8.3968-2.4576 15.36-7.3728 20.957867l-313.7536 347.818666A25.941333 25.941333 0 0 1 512 418.133333a25.941333 25.941333 0 0 1-20.206933-9.4208l-313.7536-346.794666a35.498667 35.498667 0 0 1-7.3728-22.528 31.061333 31.061333 0 0 1 8.260266-21.981867 25.6 25.6 0 0 1 19.319467-8.874667 25.053867 25.053867 0 0 1 19.319467 9.4208zM853.333333 554.666667m-34.133333 0l-614.4 0q-34.133333 0-34.133333 34.133333l0 0q0 34.133333 34.133333 34.133333l614.4 0q34.133333 0 34.133333-34.133333l0 0q0-34.133333-34.133333-34.133333Z"  horiz-adv-x="1024" />

    
    <glyph glyph-name="Changingtheschedule" unicode="&#58999;" d="M512 896a512 512 0 1 0 0-1024A512 512 0 0 0 512 896z m0-73.142857a438.857143 438.857143 0 1 1 0-877.714286A438.857143 438.857143 0 0 1 512 822.857143zM421.522286 448.658286a36.571429 36.571429 0 0 0 4.169143-46.665143l-4.169143-5.12-103.497143-103.350857A73.142857 73.142857 0 0 1 415.085714 184.32l6.436572 5.632 103.424 103.497143a36.571429 36.571429 0 0 0 55.954285-46.665143l-4.242285-5.12-103.424-103.424A146.285714 146.285714 0 1 0 266.24 345.234286l103.424 103.424a36.571429 36.571429 0 0 0 51.785143 0z m155.062857 0a36.571429 36.571429 0 0 0 0-51.712L473.234286 293.522286a36.571429 36.571429 0 0 0-51.712 51.712l103.424 103.424a36.571429 36.571429 0 0 0 51.712 0z m181.101714 181.028571a146.285714 146.285714 0 0 0 0-206.921143L654.774857 319.853714a36.571429 36.571429 0 1 0-52.224 51.2l103.424 103.424A73.142857 73.142857 0 0 1 608.914286 583.68l-6.436572-5.632L499.565714 475.062857a36.571429 36.571429 0 1 0-52.224 51.2L550.765714 629.686857a146.285714 146.285714 0 0 0 206.921143 0z"  horiz-adv-x="1024" />

    
    <glyph glyph-name="CommodityOperationbrand" unicode="&#59000;" d="M902.888594 154.624a36.571429 36.571429 0 0 0 5.632-46.518857l-4.096-5.12-207.433143-220.16-151.186285 160.402286-153.6-159.963429a36.571429 36.571429 0 0 0-46.592-5.193143l-5.12 4.096a36.571429 36.571429 0 0 0-5.193143 46.592l4.096 5.12 206.921143 215.478857 150.674285-159.890285 154.185143 163.620571a36.571429 36.571429 0 0 0 51.712 1.462857zM512.086309 896a512 512 0 0 0 509.586285-462.336 36.571429 36.571429 0 0 0-70.290285-19.017143l-1.462858-0.219428a438.857143 438.857143 0 1 1-712.630857-372.589715l-0.731428-0.731428a36.571429 36.571429 0 1 0-46.372572-54.125715l-0.512-0.585142A512 512 0 0 0 512.086309 896z m475.428571-621.714286a36.571429 36.571429 0 0 0 36.571429-36.571428l-0.073143-0.731429L1024.086309 18.285714a36.571429 36.571429 0 1 0-73.142858 0l-0.073142 182.857143H768.086309a36.571429 36.571429 0 1 0 0 73.142857h219.428571zM550.047451 676.571429l16.091429-0.219429c36.571429-1.024 64.877714-5.558857 85.065143-13.604571 23.113143-9.142857 41.618286-25.380571 55.369143-48.713143 13.897143-23.259429 20.772571-49.005714 20.772571-77.165715 0-36.352-11.483429-66.925714-34.377143-91.867428-22.820571-24.868571-58.148571-40.740571-105.910857-47.542857 17.408-8.557714 30.72-17.042286 39.716572-25.453715 12.068571-11.337143 23.698286-24.502857 34.962285-39.424-22.381714-8.777143-43.885714-17.846857-64.365714-27.355428a659.456 659.456 0 0 1-25.6 36.425143c-12.434286 16.310857-23.625143 27.721143-33.499429 34.230857a97.572571 97.572571 0 0 1-29.988571 13.604571 153.234286 153.234286 0 0 1-27.062857 2.340572l-9.654857 0.073143H395.057737L395.057737 184.32c-8.777143-6.509714-17.261714-13.019429-25.746286-19.748571H329.229166V676.571429h220.818285z m4.973715-73.142858H402.372023v-146.285714h137.216c29.184 0 51.931429 2.779429 68.461714 8.265143a72.265143 72.265143 0 0 1 37.522286 26.550857A67.510857 67.510857 0 0 1 658.372023 531.748571a63.634286 63.634286 0 0 1-24.868572 51.565715C616.973166 596.699429 590.788023 603.428571 555.021166 603.428571z"  horiz-adv-x="1024" />

    
    <glyph glyph-name="Pricechange" unicode="&#59001;" d="M804.571429 896a146.285714 146.285714 0 0 0 146.285714-146.285714v-292.571429a36.571429 36.571429 0 0 0-72.557714-6.582857L877.714286 457.142857V749.714286a73.142857 73.142857 0 0 1-73.142857 73.142857H219.428571a73.142857 73.142857 0 0 1-72.630857-64.585143L146.285714 749.714286v-731.428572a73.142857 73.142857 0 0 1 64.585143-72.630857L219.428571-54.857143h219.428572a36.571429 36.571429 0 0 0 6.582857-72.557714L438.857143-128H219.428571a146.285714 146.285714 0 0 0-146.285714 146.285714V749.714286a146.285714 146.285714 0 0 0 146.285714 146.285714h585.142858z m212.626285-647.021714a36.571429 36.571429 0 0 0 4.242286-46.665143l-4.242286-5.12-296.448-311.296a36.571429 36.571429 0 0 0-55.954285 46.665143l4.169142 5.12L965.485714 248.905143a36.571429 36.571429 0 0 0 51.712 0zM676.571429 700.928a36.571429 36.571429 0 0 0 13.385142-49.956571l-47.104-81.627429H694.857143a36.571429 36.571429 0 0 0 0-73.142857h-146.285714v-146.285714h146.285714a36.571429 36.571429 0 0 0 0-73.142858h-146.285714v-146.285714a36.571429 36.571429 0 1 0-73.142858 0v146.285714h-146.285714a36.571429 36.571429 0 1 0 0 73.142858h146.285714v146.285714h-146.285714a36.571429 36.571429 0 1 0 0 73.142857h51.931429L334.043429 650.971429a36.571429 36.571429 0 1 0 63.341714 36.571428l68.242286-118.198857h92.672l68.315428 118.198857a36.571429 36.571429 0 0 0 49.956572 13.385143z"  horiz-adv-x="1027" />

    
    <glyph glyph-name="Inventoryadjustment" unicode="&#59002;" d="M73.142857-128V689.152L513.097143 896 950.857143 689.152V453.485714A36.571429 36.571429 0 1 0 877.714286 457.142857l0.292571-3.657143H877.714286V644.242286L515.437714 822.857143 146.285714 644.242286V-54.857143h219.428572a36.571429 36.571429 0 1 0 0-73.142857H73.142857z m868.864 363.958857l77.531429-124.050286a36.571429 36.571429 0 0 0-51.346286-49.737142 255.634286 255.634286 0 0 0-200.923429-179.419429 254.902857 254.902857 0 0 0-166.912 27.282286l62.098286 52.150857a182.857143 182.857143 0 0 1 241.590857 196.534857l-24.137143 38.473143a36.571429 36.571429 0 1 0 62.098286 38.765714z m-92.891428 121.563429l-61.586286-51.638857A182.857143 182.857143 0 0 1 542.72 103.131429l0.292571-1.682286 15.286858-22.601143a36.571429 36.571429 0 0 0-60.708572-40.886857l-81.700571 121.270857a36.571429 36.571429 0 0 0 59.757714 42.203429 255.707429 255.707429 0 0 0 373.467429 156.16zM402.285714 457.142857a36.571429 36.571429 0 0 0 0-73.142857h-146.285714a36.571429 36.571429 0 0 0 0 73.142857h146.285714z m146.285715 146.285714a36.571429 36.571429 0 0 0 0-73.142857h-292.571429a36.571429 36.571429 0 0 0 0 73.142857h292.571429z"  horiz-adv-x="1025" />

    
    <glyph glyph-name="StockKeepingUnit" unicode="&#59017;" d="M987.428571 274.285714a36.571429 36.571429 0 0 0 36.571429-36.571428v-219.428572a146.285714 146.285714 0 0 0-146.285714-146.285714H146.285714a146.285714 146.285714 0 0 0-146.285714 146.285714V237.714286l0.585143 6.582857A36.571429 36.571429 0 0 0 73.142857 237.714286v-219.428572a73.142857 73.142857 0 0 1 64.585143-72.630857L146.285714-54.857143h731.428572a73.142857 73.142857 0 0 1 72.630857 64.585143L950.857143 18.285714V237.714286l0.585143 6.582857a36.571429 36.571429 0 0 0 35.986285 29.988571z m-621.275428 512a36.571429 36.571429 0 0 0 36.571428-36.571428v-581.632a36.571429 36.571429 0 0 0-73.142857 0v503.222857c-11.849143-13.092571-15.213714-16.676571-17.188571-18.724572l-1.170286-1.316571a419.401143 419.401143 0 0 1-0.658286-0.585143l-1.462857-1.609143c-4.534857-4.827429-16.384-17.773714-68.681143-75.776a26.843429 26.843429 0 0 0-20.699428-10.093714 27.428571 27.428571 0 0 0-20.699429 9.508571 33.28 33.28 0 0 0-8.850285 23.625143 38.034286 38.034286 0 0 0 7.899428 24.137143 6403.510857 6403.510857 0 0 0 97.718857 106.861714l3.803429 4.022858c5.705143 5.997714 12.068571 12.8 26.916571 29.184l11.264 12.434285a36.790857 36.790857 0 0 0 28.379429 13.312z m262.875428 0a36.571429 36.571429 0 0 0 36.571429-36.571428l0.073143-503.222857c11.776 13.092571 15.140571 16.676571 17.115428 18.797714l1.243429 1.243428 0.585143 0.658286 1.462857 1.536c4.534857 4.827429 16.457143 17.773714 68.681143 75.776a26.843429 26.843429 0 0 0 20.699428 10.093714c7.899429 0 14.774857-3.145143 20.699429-9.508571 5.851429-6.363429 8.850286-14.262857 8.850286-23.552a38.034286 38.034286 0 0 0-7.899429-24.137143 6403.510857 6403.510857 0 0 0-97.718857-106.934857L695.588571 186.514286c-5.705143-5.997714-12.068571-12.8-26.916571-29.110857l-11.264-12.434286a36.571429 36.571429 0 0 0-64.950857 23.186286V749.714286a36.571429 36.571429 0 0 0 36.571428 36.571428z"  horiz-adv-x="1024" />

    
    <glyph glyph-name="Ruleoperation" unicode="&#59003;" d="M790.272 243.712a25.6 25.6 0 0 0 25.6-25.6v-320.5632a25.6 25.6 0 0 0-51.2 0V218.112a25.6 25.6 0 0 0 25.6 25.6zM259.328 896a25.6 25.6 0 0 0 4.608-50.7904L259.328 844.8H105.728a51.2 51.2 0 0 1-50.8416-45.2096L54.528 793.6v-819.2a51.2 51.2 0 0 1 45.2096-50.8416L105.728-76.8h358.4a25.6 25.6 0 1 0 0-51.2H105.728a102.4 102.4 0 0 0-102.4 102.4V793.6a102.4 102.4 0 0 0 102.4 102.4h153.6z m684.544-768a25.6 25.6 0 0 0 25.6-25.6v-204.8a25.6 25.6 0 0 0-51.2 0v204.8a25.6 25.6 0 0 0 25.6 25.6z m-307.2-102.4a25.6 25.6 0 0 0 25.6-25.6v-102.4a25.6 25.6 0 0 0-51.2 0v102.4a25.6 25.6 0 0 0 25.6 25.6z m-146.944 204.8a25.6 25.6 0 1 0 0-51.2h-256a25.6 25.6 0 1 0 0 51.2h256zM822.528 896a102.4 102.4 0 0 0 102.4-102.4v-409.6a25.6 25.6 0 0 0-51.0464-2.816H873.728V793.6a51.2 51.2 0 0 1-51.2 51.2h-153.6a25.6 25.6 0 1 0 0 51.2h153.6z m-332.8-460.8a25.6 25.6 0 1 0 0-51.2h-256a25.6 25.6 0 0 0 0 51.2h256z m204.8 204.8a25.6 25.6 0 1 0 0-51.2h-460.8a25.6 25.6 0 0 0 0 51.2h460.8z m-153.6 256a25.6 25.6 0 1 0 0-51.2h-153.6a25.6 25.6 0 0 0 0 51.2h153.6z"  horiz-adv-x="1024" />

    
    <glyph glyph-name="Storelist" unicode="&#59004;" d="M436.224 896L844.8 689.152v-205.312A25.6 25.6 0 1 0 793.6 486.4l0.2048-2.56H793.6V657.2544L438.528 844.8 76.8 657.2544V-76.8h256a25.6 25.6 0 1 0 0-51.2H25.6V689.152L436.224 896z m331.776-921.6a25.6 25.6 0 1 0 0-51.2h-153.6a25.6 25.6 0 1 0 0 51.2h153.6z m153.6 153.6a25.6 25.6 0 1 0 0-51.2h-307.2a25.6 25.6 0 1 0 0 51.2h307.2z m0 153.6a25.6 25.6 0 1 0 0-51.2h-307.2a25.6 25.6 0 1 0 0 51.2h307.2z"  horiz-adv-x="1024" />

    
    <glyph glyph-name="Storeentrance" unicode="&#59005;" d="M410.607781 896L819.167643 689.16017v-154.105913a25.598989 25.598989 0 1 0-50.788394-2.047919l-0.204792 2.047919H767.969665V657.26383L412.91169 844.802022 51.197978 657.26383V-76.761576h307.187866a25.598989 25.598989 0 0 0 4.607818-50.788394L358.385844-127.959554H0V689.16017L410.607781 896z m280.564918-460.781799a281.588877 281.588877 0 0 0 250.87009-153.593933h-59.23606a230.3909 230.3909 0 1 1 0-255.989889h59.23606a281.588877 281.588877 0 1 0-250.87009 409.583822z m11.570743-151.699608c6.297351 0 11.775535-2.047919 16.485748-6.194955 4.761412-4.147036 7.116519-9.010844 7.116519-14.489028 0-4.147036-1.331147-7.935687-3.993442-11.263555l-3.071879-3.225473-64.611847-69.322061 292.494046 0.051198a25.598989 25.598989 0 1 0 0-51.197978h-290.650919l66.301381-66.045391c3.53266-3.071879 5.734174-6.553341 6.655737-10.444388l0.409584-3.993442a19.199242 19.199242 0 0 0-6.655737-14.489028 23.29508 23.29508 0 0 0-16.536947-6.246153 27.544512 27.544512 0 0 0-13.15788 3.123077l-3.737453 2.406305-106.901377 106.133407a19.455232 19.455232 0 0 0-7.065321 15.154602c0 4.505422 1.331147 8.447666 3.993442 11.929129l3.071879 3.27667 104.136686 109.307682a22.936694 22.936694 0 0 0 15.71778 5.529382z"  horiz-adv-x="1024" />

    
    <glyph glyph-name="Activitymanagement" unicode="&#59006;" d="M445.9008 793.6l463.616-463.616a93.696 93.696 0 0 0 0-132.5056l-298.0352-298.0352a93.696 93.696 0 0 0-132.5056 0L15.36 363.008l1.28 429.2608L445.9008 793.6z m-19.0464-51.2l-0.1536-0.2048-358.0416-2.1504L66.56 382.3104l-0.1536-0.1024 445.2352-445.44a46.3872 46.3872 0 0 1 65.536 0l294.912 294.5024a46.2336 46.2336 0 0 1 0 65.3824L426.8544 742.4z m-11.776-147.712A128 128 0 1 0 234.1376 413.696a128 128 0 0 0 181.0432 180.992zM497.152 896L957.44 435.6096l-35.328-35.2768-219.0336 219.0848-225.0752 225.3312-0.1536-0.1536-1.792 0.0512L476.16 844.8H67.6352l0.2048 49.92L497.1008 896z m-226.816-337.5104a76.8 76.8 0 1 1 108.6464-108.5952 76.8 76.8 0 0 1-108.6464 108.5952z"  horiz-adv-x="1024" />

    
    <glyph glyph-name="Brandoperation" unicode="&#59007;" d="M838.144 243.712a25.6 25.6 0 0 0 25.6-25.6v-320.5632a25.6 25.6 0 0 0-51.2 0V218.112a25.6 25.6 0 0 0 25.6 25.6zM512 844.8a460.8 460.8 0 0 1-13.568-921.3952L512-76.8a25.6 25.6 0 0 0 4.608-50.7904L512-128C229.2224-128 0 101.2224 0 384S229.2224 896 512 896c278.016 0 504.2176-221.5424 511.7952-497.664L1024 384a25.6 25.6 0 1 0-51.2 0 460.8 460.8 0 0 1-460.8 460.8z m479.744-716.8a25.6 25.6 0 0 0 25.6-25.6v-204.8a25.6 25.6 0 0 0-51.2 0v204.8a25.6 25.6 0 0 0 25.6 25.6z m-307.2-102.4a25.6 25.6 0 0 0 25.6-25.6v-102.4a25.6 25.6 0 0 0-51.2 0v102.4a25.6 25.6 0 0 0 25.6 25.6zM550.4512 614.4l12.6976-0.1536c33.024-0.768 58.5728-4.6592 76.6976-11.6736 20.3776-7.936 36.7104-21.8624 48.896-41.8816 12.1856-19.968 18.3296-42.0864 18.3296-66.304 0-31.232-10.1376-57.4976-30.3104-78.848-20.224-21.4528-51.4048-35.0208-93.5936-40.8576 15.36-7.3728 27.0848-14.6944 35.072-21.8624 13.6192-12.4928 26.624-27.4944 39.0656-44.9536l9.216-13.568 11.0592-17.2032c-16.0768-13.4144-31.232-27.904-45.312-43.3664l-20.6336 32.3584-7.0656 10.9568a741.888 741.888 0 0 1-34.9184 49.664c-11.008 13.9776-20.8384 23.808-29.5424 29.3888a87.3472 87.3472 0 0 1-26.5728 11.7248 139.0592 139.0592 0 0 1-23.9104 1.9968l-8.4992 0.1024H413.696v-195.328H355.4816V614.4h195.0208z m2.4064-48.64H413.696V420.352h125.0816c26.624 0 47.4112 2.7648 62.464 8.2432 14.9504 5.5296 26.368 14.336 34.1504 26.4192 7.7824 12.0832 11.7248 25.2416 11.7248 39.424 0 20.8384-7.5776 37.888-22.6816 51.3024-15.104 13.4144-38.912 20.1216-71.5264 20.1216z"  horiz-adv-x="1024" />

    
    <glyph glyph-name="Storepage" unicode="&#59008;" d="M410.624 896L819.2 689.152v-154.112A25.6 25.6 0 1 0 768 537.6l0.2048-2.56H768V657.2544L412.928 844.8 51.2 657.2544V-76.8h256a25.6 25.6 0 1 0 0-51.2H0V689.152L410.624 896zM870.4 230.4a102.4 102.4 0 0 0 102.4-102.4v-153.6a102.4 102.4 0 0 0-102.4-102.4h-358.4a102.4 102.4 0 0 0-102.4 102.4v153.6a102.4 102.4 0 0 0 102.4 102.4h358.4z m0-51.2h-358.4a51.2 51.2 0 0 1-51.2-51.2v-153.6a51.2 51.2 0 0 1 51.2-51.2h358.4a51.2 51.2 0 0 1 51.2 51.2v153.6a51.2 51.2 0 0 1-51.2 51.2zM460.8 332.8m25.6 0l409.6 0q25.6 0 25.6-25.6l0 0q0-25.6-25.6-25.6l-409.6 0q-25.6 0-25.6 25.6l0 0q0 25.6 25.6 25.6ZM512 435.2m25.6 0l307.2 0q25.6 0 25.6-25.6l0 0q0-25.6-25.6-25.6l-307.2 0q-25.6 0-25.6 25.6l0 0q0 25.6 25.6 25.6Z"  horiz-adv-x="1024" />

    
    <glyph glyph-name="Authoritymanagement" unicode="&#59009;" d="M870.398259 640.000512a25.599949 25.599949 0 0 0 25.599949-25.599949v-386.149628a153.599693 153.599693 0 1 0-51.199898 0V384.001024H767.998464a25.599949 25.599949 0 1 0 0 51.199898h76.799846V537.600717H767.998464a25.599949 25.599949 0 1 0 0 51.199897h76.799846v25.599949A25.599949 25.599949 0 0 0 870.398259 640.000512z m0-460.799078a102.399795 102.399795 0 1 1 0-204.799591 102.399795 102.399795 0 0 1 0 204.799591z m-241.100318 102.399795c-14.335971-16.076768-27.647945-33.177534-39.67992-51.199898H102.399795a51.199898 51.199898 0 0 1-50.841498-45.209509L51.199898 179.201434v-153.599693H0v153.599693a102.399795 102.399795 0 0 0 102.399795 102.399795h526.898146zM409.599181 896a255.999488 255.999488 0 1 0 0-511.998976A255.999488 255.999488 0 0 0 409.599181 896z m0-51.199898a204.79959 204.79959 0 1 1 0-409.59918 204.79959 204.79959 0 0 1 0 409.59918z"  horiz-adv-x="1077" />

    
    <glyph glyph-name="DownloadCenter" unicode="&#59010;" d="M256 742.4a25.6 25.6 0 0 0 4.608-50.7904L256 691.2H102.4a51.2 51.2 0 0 1-50.8416-45.2096L51.2 640v-614.4a51.2 51.2 0 0 1 45.2096-50.8416L102.4-25.6h819.2a51.2 51.2 0 0 1 50.8416 45.2096L972.8 25.6V640a51.2 51.2 0 0 1-51.2 51.2h-153.6l-4.608 0.4096a25.6 25.6 0 0 0 0 50.3808L768 742.4h153.6a102.4 102.4 0 0 0 102.4-102.4v-614.4a102.4 102.4 0 0 0-102.4-102.4H102.4a102.4 102.4 0 0 0-102.4 102.4V640a102.4 102.4 0 0 0 102.4 102.4h153.6z m256 153.6a25.6 25.6 0 0 0 25.6-25.6v-607.7952l195.2256 216.7296a19.7632 19.7632 0 0 0 10.4448 6.656L747.3152 486.4c5.5296 0 10.3424-2.2016 14.4896-6.656 4.096-4.4544 6.1952-9.984 6.1952-16.5376 0-4.9152-1.024-9.2672-3.072-13.1584l-2.4576-3.7376-235.3152-260.0448A19.456 19.456 0 0 0 512 179.2a18.9952 18.9952 0 0 0-11.8784 3.9936l-3.2768 3.072-235.3152 260.864A22.9376 22.9376 0 0 0 256 462.848c0 6.2464 2.048 11.776 6.1952 16.4864A18.7904 18.7904 0 0 0 276.6848 486.4c4.1472 0 7.8848-1.3312 11.264-3.9936l3.2256-3.072L486.4 262.6048V870.4A25.6 25.6 0 0 0 512 896z"  horiz-adv-x="1077" />

    
    <glyph glyph-name="Releasereport" unicode="&#59011;" d="M537.6 896l0.0512-0.6144C808.4992 882.0224 1024 658.176 1024 384c0-282.7776-229.2224-512-512-512S0 101.2224 0 384C0 658.176 215.552 882.0224 486.4 895.3856V896h51.2z m-51.2-51.9168a460.8 460.8 0 1 1 417.792-702.1056L486.4 383.1808 486.8608 384H486.4z m51.2 0v-431.36l391.0656-225.792a458.5472 458.5472 0 0 1 43.9296 183.5008L972.8 384a460.8 460.8 0 0 1-435.2 460.0832z"  horiz-adv-x="1024" />

    
    <glyph glyph-name="CommodityOperation1" unicode="&#59012;" d="M525.312-127.9488L174.592-128a128 128 0 0 0-128 128l0.1024 4.608 40.192 564.0704a76.8 76.8 0 0 0 69.5808 71.0144L163.4816 640h73.216v-51.2h-73.216a25.6 25.6 0 0 1-24.832-19.456l-0.7168-4.3008-39.936-559.616a76.8 76.8 0 0 1 69.2224-81.92L174.592-76.8h350.72v-51.1488z m77.6192 307.2c-10.9568-16.384-20.8896-33.4848-29.696-51.2L397.312 128a25.6 25.6 0 1 0 0 51.2zM887.296 640a76.8 76.8 0 0 0 75.776-64.3584l0.8192-6.9632 13.2096-184.7808a464.384 464.384 0 0 1-51.0976-3.7888l-13.1584 184.9344a25.6 25.6 0 0 1-21.1456 23.3984L887.296 588.8h-75.6224V640h75.6224z m-361.9328 256a230.4 230.4 0 0 0 230.144-219.5456l0.256-10.8544v-165.12a25.6 25.6 0 0 0-50.7904-4.608l-0.4096 4.608V665.6a179.2 179.2 0 0 1-358.144 9.8304l-0.256-9.8304v-165.12a25.6 25.6 0 0 0-50.7904-4.608l-0.4096 4.608V665.6a230.4 230.4 0 0 0 230.4 230.4z m113.3056-256v-51.2H402.6368V640h236.0832zM838.144 243.712a25.6 25.6 0 0 0 25.6-25.6v-320.5632a25.6 25.6 0 0 0-51.2 0V218.112a25.6 25.6 0 0 0 25.6 25.6z m153.6-115.712a25.6 25.6 0 0 0 25.6-25.6v-204.8a25.6 25.6 0 0 0-51.2 0v204.8a25.6 25.6 0 0 0 25.6 25.6z m-307.2-102.4a25.6 25.6 0 0 0 25.6-25.6v-102.4a25.6 25.6 0 0 0-51.2 0v102.4a25.6 25.6 0 0 0 25.6 25.6z m-154.624-102.4a25.6 25.6 0 1 0 0-51.2 25.6 25.6 0 0 0 0 51.2z m421.888 486.4a25.6 25.6 0 1 0 0-51.2 25.6 25.6 0 0 0 0 51.2z"  horiz-adv-x="1024" />

    
    <glyph glyph-name="Audittask" unicode="&#59013;" d="M204.8 844.8v-48.5888L102.4 796.16a51.2 51.2 0 0 1-50.8416-45.2096L51.2 744.96V588.8h921.6V744.96a51.2 51.2 0 0 1-51.2 51.2l-102.4 0.0512V844.8h102.4a102.4 102.4 0 0 0 102.4-102.4v-768a102.4 102.4 0 0 0-102.4-102.4H102.4a102.4 102.4 0 0 0-102.4 102.4V742.4a102.4 102.4 0 0 0 102.4 102.4h102.4z m768-307.2H51.2v-565.76a51.2 51.2 0 0 1 45.2096-50.8416L102.4-79.36h819.2a51.2 51.2 0 0 1 50.8416 45.2096L972.8-28.16V537.6z m-160.8704-98.5088a25.6 25.6 0 0 0 0-36.1984l-325.8368-325.8368a25.6 25.6 0 0 0-33.4848-2.304 30.2592 30.2592 0 0 0-3.6864 3.072L304.0768 222.72a25.6 25.6 0 0 0 36.1984 36.1984l127.5904-127.6416 307.8656 307.8656a25.6 25.6 0 0 0 36.1984 0zM307.2 716.8a25.6 25.6 0 0 0-51.2 0v153.6a25.6 25.6 0 0 0 51.2 0v-153.6z m460.8 0a25.6 25.6 0 1 0-51.2 0v153.6a25.6 25.6 0 1 0 51.2 0v-153.6zM665.6 844.8v-48.5888H358.4V844.8h307.2z"  horiz-adv-x="1024" />

    
    <glyph glyph-name="Marketingplan" unicode="&#59014;" d="M256 896a25.6 25.6 0 0 0 4.608-50.7904L256 844.8H102.4a51.2 51.2 0 0 1-50.8416-45.2096L51.2 793.6v-819.2a51.2 51.2 0 0 1 45.2096-50.8416L102.4-76.8h256a25.6 25.6 0 1 0 0-51.2H102.4a102.4 102.4 0 0 0-102.4 102.4V793.6a102.4 102.4 0 0 0 102.4 102.4h153.6z m435.2-460.8a281.6 281.6 0 1 0 0-563.2 281.6 281.6 0 0 0 0 563.2z m0-51.2a230.4 230.4 0 1 1 0-460.8 230.4 230.4 0 0 1 0 460.8z m0-102.4a25.6 25.6 0 0 0 25.6-25.6v-80.128h76.0832a25.6 25.6 0 1 0 0-51.2h-102.4a25.6 25.6 0 0 0-24.9856 31.1296L665.6 256a25.6 25.6 0 0 0 25.6 25.6z m-409.6-51.2a25.6 25.6 0 1 0 0-51.2h-102.4a25.6 25.6 0 1 0 0 51.2h102.4z m102.4 204.8a25.6 25.6 0 0 0 0-51.2h-204.8a25.6 25.6 0 0 0 0 51.2h204.8zM819.2 896a102.4 102.4 0 0 0 102.4-102.4v-307.2a25.6 25.6 0 1 0-51.2 0V793.6a51.2 51.2 0 0 1-51.2 51.2h-153.6a25.6 25.6 0 1 0 0 51.2h153.6z m-179.2-256a25.6 25.6 0 1 0 0-51.2h-460.8a25.6 25.6 0 0 0 0 51.2h460.8z m-102.4 256a25.6 25.6 0 1 0 0-51.2h-153.6a25.6 25.6 0 0 0 0 51.2h153.6z"  horiz-adv-x="1024" />

    
    <glyph glyph-name="Operationmonitoring" unicode="&#59015;" d="M896-76.8a25.6 25.6 0 1 0 0-51.2h-768a25.6 25.6 0 1 0 0 51.2h768zM921.6 896a102.4 102.4 0 0 0 102.4-102.4v-614.4a102.4 102.4 0 0 0-102.4-102.4H102.4a102.4 102.4 0 0 0-102.4 102.4V793.6a102.4 102.4 0 0 0 102.4 102.4h819.2z m0-51.2H102.4a51.2 51.2 0 0 1-51.2-51.2v-614.4a51.2 51.2 0 0 1 51.2-51.2h819.2a51.2 51.2 0 0 1 51.2 51.2V793.6a51.2 51.2 0 0 1-51.2 51.2z m-153.6-204.8a25.6 25.6 0 0 0 25.6-25.6v-307.2a25.6 25.6 0 1 0-51.2 0v307.2A25.6 25.6 0 0 0 768 640zM256 537.6a25.6 25.6 0 0 0 25.6-25.6v-204.8a25.6 25.6 0 1 0-51.2 0v204.8A25.6 25.6 0 0 0 256 537.6z m256-102.4a25.6 25.6 0 0 0 25.6-25.6v-102.4a25.6 25.6 0 1 0-51.2 0v102.4A25.6 25.6 0 0 0 512 435.2z"  horiz-adv-x="1024" />

    
    <glyph glyph-name="Marketingtask" unicode="&#59016;" d="M255.999616 896a25.599962 25.599962 0 0 0 4.607993-50.790324L255.999616 844.800077H102.399846a51.199923 51.199923 0 0 1-50.841523-45.209532L51.199923 793.600154v-819.198772a51.199923 51.199923 0 0 1 45.209532-50.841523L102.399846-76.798541h255.999616a25.599962 25.599962 0 1 0 0-51.199923H102.399846a102.399846 102.399846 0 0 0-102.399846 102.399846V793.600154a102.399846 102.399846 0 0 0 102.399846 102.399846h153.59977z m435.199347-460.799309c40.447939 0 78.950282-8.550387 113.76623-23.910364l-39.475141-39.526341a230.399654 230.399654 0 1 1 155.801366-206.23329l45.619132 45.567931A281.599578 281.599578 0 1 0 691.198963 435.200691z m216.934075-104.703843a25.599962 25.599962 0 0 0 0-36.198345l-217.241274-217.241275a25.599962 25.599962 0 0 0-33.48475-2.303996 30.259155 30.259155 0 0 0-3.686395 3.071995l-72.396691 72.447892a25.599962 25.599962 0 1 0 36.198346 36.198345l55.142317-55.244717 199.270101 199.270101a25.599962 25.599962 0 0 0 36.198346 0zM819.198771 896a102.399846 102.399846 0 0 0 102.399847-102.399846v-307.19954a25.599962 25.599962 0 1 0-51.199924 0V793.600154a51.199923 51.199923 0 0 1-51.199923 51.199923h-153.599769a25.599962 25.599962 0 1 0 0 51.199923h153.599769z m-127.999808-255.999616a25.599962 25.599962 0 1 0 0-51.199923h-460.799309a25.599962 25.599962 0 0 0 0 51.199923h460.799309z m-153.599769 255.999616a25.599962 25.599962 0 1 0 0-51.199923h-153.59977a25.599962 25.599962 0 0 0 0 51.199923h153.59977z"  horiz-adv-x="1024" />

    
    <glyph glyph-name="woman2" unicode="&#58997;" d="M724.21181 391.41181l-65.560381 238.201904c-8.850286 26.989714-40.472381 74.410667-93.549715 76.604953H459.702857c-54.905905-2.267429-86.308571-49.127619-93.891047-76.702477l-65.536-237.958095c-14.019048-51.98019 46.08-72.289524 60.928-23.478857l58.538666 219.574857h16.457143l-100.864-385.706666H429.592381v-289.840762c0-52.46781 71.314286-52.46781 71.314286 0V201.947429h22.235428v-289.840762c0-52.46781 68.998095-52.46781 68.998095 0V201.947429h96.768l-102.887619 385.706666h18.700191l58.684952-219.574857c14.482286-49.90781 74.264381-28.501333 60.830476 23.332572zM515.705905 725.333333c47.201524 0 85.333333 38.15619 85.333333 85.333334S562.907429 896 515.705905 896a85.357714 85.357714 0 0 1 0-170.666667z"  horiz-adv-x="1024" />

    
    <glyph glyph-name="man2" unicode="&#58998;" d="M512 725.333333c47.104-0.292571 85.333333 37.961143 85.333333 85.333334A85.333333 85.333333 0 1 1 512 725.333333z m81.554286-24.380952H430.567619C369.249524 700.952381 329.142857 644.583619 329.142857 590.994286v-257.950476c0-49.980952 67.486476-49.980952 67.486476 0v238.494476h13.068191v-648.533334c0-69.095619 91.501714-66.901333 93.622857 0V296.71619h17.432381v-374.003809c3.754667-70.826667 93.622857-64 93.622857 0.292571v648.533334h10.873905v-238.396953c0-50.029714 69.607619-50.029714 69.607619 0V591.043048C695.003429 644.437333 654.774857 700.952381 593.554286 700.952381z"  horiz-adv-x="1024" />

    
    <glyph glyph-name="Extranet" unicode="&#58995;" d="M384-76.8a25.6 25.6 0 1 0 0-51.2h-307.2a25.6 25.6 0 1 0 0 51.2h307.2z m307.2 614.4a332.8 332.8 0 1 0 0-665.6 332.8 332.8 0 0 0 0 665.6z m101.8368-503.4496l-6.912-1.1264c-30.0544-4.864-61.952-7.424-94.9248-7.424-35.5328 0-69.7344 3.0208-101.8368 8.5504C612.7616-33.28 649.728-76.8 691.2-76.8c41.5232 0 78.4384 43.52 101.8368 110.9504z m-359.68 57.344l1.5872-3.6352a282.624 282.624 0 0 1 142.9504-140.9536c-18.1248 27.5456-33.28 61.5424-44.544 100.096-38.5024 11.1616-72.4992 26.368-99.9936 44.4928z m515.7376 0l-0.5632-0.3584c-27.4432-17.92-61.2352-33.024-99.5328-44.1344-11.1616-38.5536-26.368-72.5504-44.4928-100.0448a282.4704 282.4704 0 0 1 144.5888 144.5376zM921.6 896a102.4 102.4 0 0 0 102.4-102.4v-256a25.6 25.6 0 0 0-50.7904-4.608L972.8 537.6V793.6a51.2 51.2 0 0 1-51.2 51.2H102.4a51.2 51.2 0 0 1-51.2-51.2v-614.4a51.2 51.2 0 0 1 51.2-51.2h153.6a25.6 25.6 0 0 0 4.608-50.7904L256 76.8H102.4a102.4 102.4 0 0 0-102.4 102.4V793.6a102.4 102.4 0 0 0 102.4 102.4h819.2z m-230.4-563.2c-41.5744 0-81.0496-4.096-116.5824-11.4688A579.4304 579.4304 0 0 1 563.2 204.8c0-41.5744 4.096-81.0496 11.4688-116.5824 35.4816-7.3216 74.9568-11.4176 116.5312-11.4176 41.5744 0 81.0496 4.096 116.5824 11.4688 7.3216 35.4816 11.4176 74.9568 11.4176 116.5312 0 41.5744-4.096 81.0496-11.4688 116.5824A579.4304 579.4304 0 0 1 691.2 332.8z m-170.6496-26.1632l-9.728-3.5328C449.024 279.6544 409.6 244.3264 409.6 204.8c0-41.5232 43.52-78.4384 110.9504-101.8368A599.04 599.04 0 0 0 512 204.8c0 35.5328 3.0208 69.7344 8.5504 101.8368z m341.2992 0l1.1264-6.912c4.864-30.0544 7.424-61.952 7.424-94.9248 0-35.5328-3.0208-69.7344-8.5504-101.8368C929.28 126.3616 972.8 163.328 972.8 204.8c0 41.5232-43.52 78.4384-110.9504 101.8368z m-283.9552 156.0064l-3.6352-1.5872a282.624 282.624 0 0 1-140.9536-142.9504c27.5456 18.1248 61.5424 33.28 100.096 44.544 11.1616 38.5024 26.368 72.4992 44.4928 99.9936z m226.6112 0l0.3584-0.512c17.92-27.4432 33.024-61.2352 44.1344-99.5328 38.5536-11.1616 72.5504-26.368 100.0448-44.4928a282.4704 282.4704 0 0 1-144.5376 144.5888zM691.2 486.4c-41.5232 0-78.4384-43.52-101.8368-110.9504A599.04 599.04 0 0 0 691.2 384c35.5328 0 69.7344-3.0208 101.8368-8.5504-22.2208 64.0512-56.6272 106.496-95.6416 110.592L691.2 486.4z"  horiz-adv-x="1024" />

    
    <glyph glyph-name="Intranet" unicode="&#58996;" d="M487.2704-76.8c11.52 0 20.8384-11.4688 20.8384-25.6s-9.3184-25.6-20.8384-25.6h-364.032C111.6672-128 102.4-116.5312 102.4-102.4s9.3184 25.6 20.7872 25.6h364.0832zM742.4 515.9424l269.4656-155.5456v-311.1936L742.4-106.3424 472.9344 49.152V360.448L742.4 515.9424z m0-59.136l-218.2656-126.0544v-251.9552l218.2656-126.0544 218.3168 126.0544V330.752L742.4 456.8064zM921.6 896a102.4 102.4 0 0 0 102.4-102.4v-256a25.6 25.6 0 0 0-50.7904-4.608L972.8 537.6V793.6a51.2 51.2 0 0 1-51.2 51.2H102.4a51.2 51.2 0 0 1-51.2-51.2v-614.4a51.2 51.2 0 0 1 51.2-51.2h204.8a25.6 25.6 0 0 0 4.608-50.7904L307.2 76.8H102.4a102.4 102.4 0 0 0-102.4 102.4V793.6a102.4 102.4 0 0 0 102.4 102.4h819.2z m-23.04-648.5504a25.6 25.6 0 0 0-9.3696-34.9696l-133.0176-76.8a25.4976 25.4976 0 0 0-15.4624-3.2768l-2.4064-0.1536a25.4464 25.4464 0 0 0-8.7552 1.4848l-4.1984 1.9456-133.0176 76.8a25.6 25.6 0 0 0 21.4016 46.2848l4.1984-1.9456 122.88-70.912 122.7776 70.912a25.6 25.6 0 0 0 34.9696-9.3696z"  horiz-adv-x="1024" />

    
    <glyph glyph-name="icon_pmd_up_expose" unicode="&#58993;" d="M804.571429 347.428571a182.857143 182.857143 0 1 0 0-365.714285 182.857143 182.857143 0 0 0 0 365.714285z m36.571428-73.142857h-73.142857v-73.142857h-73.142857v-73.142857h73.142857v-73.142857h73.142857v73.142857h73.142857v73.142857h-73.142857v73.142857zM438.857143 640.256c217.234286 0 365.714286-147.346286 365.714286-219.574857 0-10.715429-3.510857-23.332571-10.24-36.937143a219.501714 219.501714 0 0 1-199.789715-155.465143A457.874286 457.874286 0 0 0 438.857143 201.142857c-209.810286 0-365.714286 147.748571-365.714286 219.538286 0 71.826286 158.025143 219.574857 365.714286 219.574857z m0-39.460571c-97.974857 0-176.822857-79.616-176.822857-179.712 0-100.096 78.848-179.785143 176.822857-179.785143s176.822857 79.616 176.822857 179.712c0 98.157714-78.848 179.785143-176.822857 179.785143z m0-64.438858c61.732571 0 111.762286-53.321143 111.762286-113.664 0-62.317714-50.029714-113.664-111.762286-113.664s-111.762286 51.346286-111.762286 113.664c0 62.354286 50.029714 113.664 111.762286 113.664z m359.021714 144.384c7.387429-7.314286 8.228571-16.859429 2.450286-24.649142l-2.450286-2.852572-55.442286-54.528a22.674286 22.674286 0 0 0-13.787428-5.302857c-2.852571 0-8.338286 2.925714-14.116572 5.376-7.387429 7.314286-8.228571 16.822857-2.486857 24.649143l2.486857 2.816 55.442286 54.491428a18.944 18.944 0 0 0 27.904 0z m-693.321143 2.925715l2.889143-2.450286 55.405714-54.564571c8.338286-8.192 8.338286-19.273143 0-27.428572a22.674286 22.674286 0 0 0-13.787428-5.339428 20.772571 20.772571 0 0 0-13.787429 5.302857l-53.869714 52.662857-1.901714 1.901714c-8.338286 8.192-8.338286 19.273143 0 27.428572 7.387429 7.314286 17.115429 8.118857 25.051428 2.450285zM438.857143 786.285714c10.130286 0 17.92-6.619429 19.346286-16.054857l0.256-3.218286v-79.213714A18.907429 18.907429 0 0 0 438.857143 668.525714a18.870857 18.870857 0 0 0-19.346286 16.054857l-0.256 3.218286V767.012571c0 11.081143 8.338286 19.273143 19.602286 19.273143z"  horiz-adv-x="1024" />

    
    <glyph glyph-name="icon_pmd_up_volume" unicode="&#58994;" d="M512 822.857143a438.857143 438.857143 0 0 1-415.378286-296.96l59.318857-20.260572A376.173714 376.173714 0 0 0 512 760.173714c186.294857 0 341.430857-136.192 371.053714-314.221714l-54.016 36.022857-34.779428-52.150857 107.885714-71.899429A31.341714 31.341714 0 0 1 950.857143 384c0 241.993143-196.864 438.857143-438.857143 438.857143zM89.709714 411.648a31.378286 31.378286 0 0 0 32.182857-1.572571l107.885715-71.899429-34.816-52.150857-54.016 36.022857c29.622857-178.029714 184.758857-314.221714 371.053714-314.221714 160.987429 0 304.054857 102.290286 356.059429 254.537143l59.318857-20.297143A438.784 438.784 0 0 0 512-54.857143C270.006857-54.857143 73.142857 142.006857 73.142857 384c0 11.556571 6.363429 22.198857 16.566857 27.648zM512 640L694.857143 451.072h-91.501714L603.428571 164.571429h-182.784v286.500571H329.142857L512 640z"  horiz-adv-x="1024" />

    
    <glyph glyph-name="Realtimegoods" unicode="&#58992;" d="M358.4-25.6a51.2 51.2 0 0 0 0-102.4H51.2a51.2 51.2 0 0 0 0 102.4h307.2z m536.3712 370.0736a256 256 0 0 0-395.3664-308.8896l83.5584 65.3312a153.6 153.6 0 0 1 228.3008 178.2784l83.5072 65.28zM921.6 896a102.4 102.4 0 0 0 102.4-102.4v-307.2a51.2 51.2 0 0 0-102.0416-5.9904L921.6 486.4V749.7216c0 24.2176-20.3776 43.8784-45.5168 43.8784H147.968C122.7776 793.6 102.4 773.9392 102.4 749.7216v-526.6432c0-24.2176 20.3776-43.8784 45.5168-43.8784H307.2a51.2 51.2 0 0 0 5.9904-102.0416L307.2 76.8H102.4a102.4 102.4 0 0 0-102.4 102.4V793.6a102.4 102.4 0 0 0 102.4 102.4h819.2z m-89.7536-470.8352l-83.6096-65.28a153.6 153.6 0 0 1-228.3008-178.2784l-83.5072-65.28a256 256 0 0 0 395.4176 308.8384z"  horiz-adv-x="1024" />

    
    <glyph glyph-name="Trafficmanagement-copy" unicode="&#59018;" d="M614.4 896a25.6 25.6 0 0 0 4.608-50.7904L614.4 844.8H51.2v-921.6h921.6V486.4l0.4096 4.608a25.6 25.6 0 0 0 50.3808 0L1024 486.4v-614.4H0V896h614.4z m153.6-512a25.6 25.6 0 0 0 25.6-25.6v-307.2a25.6 25.6 0 1 0-51.2 0v307.2a25.6 25.6 0 0 0 25.6 25.6zM256 281.6a25.6 25.6 0 0 0 25.6-25.6v-204.8a25.6 25.6 0 1 0-51.2 0v204.8A25.6 25.6 0 0 0 256 281.6z m256-102.4a25.6 25.6 0 0 0 25.6-25.6v-102.4a25.6 25.6 0 1 0-51.2 0v102.4a25.6 25.6 0 0 0 25.6 25.6z m366.8992 608.3072a25.2928 25.2928 0 1 0 32.8704-38.4l-353.9456-313.088-142.9504 155.136-158.5152-135.3728a25.2928 25.2928 0 0 0-32.0512 39.1168l190.5664 161.5872 142.1824-154.5216zM998.4 896a25.6 25.6 0 0 0 25.6-25.6v-204.288a25.6 25.6 0 1 0-51.2 0V844.8h-178.688a25.6 25.6 0 1 0 0 51.2h204.288z"  horiz-adv-x="1024" />

    
    <glyph glyph-name="PersonalCenter" unicode="&#58980;" d="M512 896c282.7776 0 512-229.2224 512-512s-229.2224-512-512-512S0 101.2224 0 384 229.2224 896 512 896z m0-51.2a460.8 460.8 0 1 1 0-921.6 460.8 460.8 0 0 1 0 921.6z m258.816-709.8368l16.7936-8.3456 5.6832-2.9184a25.6 25.6 0 0 0-19.1488-47.2576l-4.3008 1.7408-5.6832 2.9696a541.0816 541.0816 0 0 1-501.3504-2.816 25.6 25.6 0 0 0-23.9616 45.2096 592.2816 592.2816 0 0 0 531.968 11.4176zM512 640a204.8 204.8 0 1 0 0-409.6 204.8 204.8 0 0 0 0 409.6z m0-51.2a153.6 153.6 0 1 1 0-307.2 153.6 153.6 0 0 1 0 307.2z"  horiz-adv-x="1024" />

    
    <glyph glyph-name="Marketanalysis" unicode="&#58981;" d="M451.734663 896l407.557108-206.842893v-102.144638h-51.07232v66.394015L454.032918 839.973666 93.206983 653.355411v-730.334164l204.289276 0.051072v-51.072319h-255.361596v817.157107L451.734663 896z m509.701746-666.493766a25.53616 25.53616 0 0 0 25.53616-25.536159v-306.433915a25.53616 25.53616 0 1 0-51.07232 0v306.433915a25.53616 25.53616 0 0 0 25.53616 25.536159z m-536.259352-102.144638a25.53616 25.53616 0 0 0 25.53616-25.53616v-204.289276a25.53616 25.53616 0 1 0-51.072319 0v204.289276a25.53616 25.53616 0 0 0 25.536159 25.53616z m178.753118-102.144638a25.53616 25.53616 0 0 0 25.536159-25.53616v-102.144638a25.53616 25.53616 0 1 0-51.072319 0v102.144638a25.53616 25.53616 0 0 0 25.53616 25.53616z m178.753117 51.072319a25.53616 25.53616 0 0 0 25.536159-25.53616v-153.216957a25.53616 25.53616 0 1 0-51.072319 0v153.216957a25.53616 25.53616 0 0 0 25.53616 25.53616z m106.230424 349.232519a25.53616 25.53616 0 0 0 1.583242-32.686285l-3.06434-3.421845-234.064438-208.630424-122.522494 128.344738-139.682793-125.229327a25.53616 25.53616 0 0 0-32.686285-1.123591l-3.370773 3.115412a25.53616 25.53616 0 0 0-1.174663 32.686284l3.115412 3.370773 176.608079 158.170973 122.011771-127.731871 197.190224 174.667332a25.53616 25.53616 0 0 0 36.10813-1.532169z m77.629925 110.367281a25.53616 25.53616 0 0 0 25.536159-25.536159l-0.051072-0.510723 0.051072-152.706235a25.53616 25.53616 0 1 0-51.072319 0l-0.051072 127.680798H813.326683a25.53616 25.53616 0 1 0 0 51.072319h153.216958z"  horiz-adv-x="1024" />

    
    <glyph glyph-name="configurationmanagement" unicode="&#58982;" d="M968.6016 203.6224l2.7648-3.6864a25.6 25.6 0 0 0-4.4032-32.4608l-3.6864-2.816-409.344-256.5632a76.8 76.8 0 0 0-75.264-3.584l-6.3488 3.584-409.088 256.4096a25.6 25.6 0 0 0 23.04 45.4656l4.096-2.048 409.1392-256.4608a25.6 25.6 0 0 1 23.552-1.8944l3.6352 1.8944 409.3952 256.5632a25.6 25.6 0 0 0 32.512-4.4032z m0 204.8l2.7648-3.6864a25.6 25.6 0 0 0-4.4032-32.4608l-3.6864-2.816-409.344-256.5632a76.8 76.8 0 0 0-75.264-3.584l-6.3488 3.584-409.088 256.4096a25.6 25.6 0 0 0 23.04 45.4656l4.096-2.048 409.1392-256.4608a25.6 25.6 0 0 1 23.552-1.8944l3.6352 1.8944 409.3952 256.5632a25.6 25.6 0 0 0 32.512-4.4032zM541.952 888.5248l407.6544-247.808a51.2 51.2 0 0 0 0.5632-87.1424l-409.344-256.512a51.2 51.2 0 0 0-54.4256 0L77.312 553.3696a51.2 51.2 0 0 0 0.7168 87.2448L488.9088 888.6272a51.2 51.2 0 0 0 53.0432-0.1024z m-26.624-43.7248L104.4992 596.8384l409.088-256.4096 409.3952 256.512L515.328 844.8z"  horiz-adv-x="1024" />

    
    <glyph glyph-name="Trafficmanagement" unicode="&#58983;" d="M614.4 896a25.6 25.6 0 0 0 4.608-50.7904L614.4 844.8H51.2v-921.6h921.6V486.4l0.4096 4.608a25.6 25.6 0 0 0 50.3808 0L1024 486.4v-614.4H0V896h614.4z m153.6-512a25.6 25.6 0 0 0 25.6-25.6v-307.2a25.6 25.6 0 1 0-51.2 0v307.2a25.6 25.6 0 0 0 25.6 25.6zM256 281.6a25.6 25.6 0 0 0 25.6-25.6v-204.8a25.6 25.6 0 1 0-51.2 0v204.8A25.6 25.6 0 0 0 256 281.6z m256-102.4a25.6 25.6 0 0 0 25.6-25.6v-102.4a25.6 25.6 0 1 0-51.2 0v102.4a25.6 25.6 0 0 0 25.6 25.6z m366.8992 608.3072a25.2928 25.2928 0 1 0 32.8704-38.4l-353.9456-313.088-142.9504 155.136-158.5152-135.3728a25.2928 25.2928 0 0 0-32.0512 39.1168l190.5664 161.5872 142.1824-154.5216zM998.4 896a25.6 25.6 0 0 0 25.6-25.6v-204.288a25.6 25.6 0 1 0-51.2 0V844.8h-178.688a25.6 25.6 0 1 0 0 51.2h204.288z"  horiz-adv-x="1024" />

    
    <glyph glyph-name="Roboautomation" unicode="&#58984;" d="M510.874726 792.679372a460.33943 460.33943 0 0 0 319.015225-792.193011l72.119844-72.017546a25.574413 25.574413 0 0 0 0-36.16222l-2.250548-2.199399a25.574413 25.574413 0 0 0-36.16222 0L788.510551-34.908626a458.293477 458.293477 0 0 0-277.635825-93.090863A458.293477 458.293477 0 0 0 233.2389-34.908626L158.050127-109.892804a25.574413 25.574413 0 0 0-36.16222 0l-2.199399 2.199399a25.574413 25.574413 0 0 0 0 36.16222l72.119844 72.017546A460.33943 460.33943 0 0 0 510.874726 792.679372z m0-51.148825a409.190605 409.190605 0 1 1 0-818.38121 409.190605 409.190605 0 0 1 0 818.38121zM513.534465 537.958221a25.420966 25.420966 0 0 0 14.833159-5.933264l0.102298-0.102298 3.068929-2.966632c0.920679-1.176423 1.841358-2.455144 2.60859-3.785013l204.595303-354.359063a25.574413 25.574413 0 0 0-44.294883-25.574413l-54.933839 95.187964H384.485978l-54.933839-95.187964a25.574413 25.574413 0 0 0-30.740444-11.303891l-4.194204 1.943656a25.574413 25.574413 0 0 0-11.252741 30.689295l1.892506 4.245353L489.545666 524.659526a25.472115 25.472115 0 0 0 2.813185 4.091906l0.102298 0.102298 2.966632 3.017781a25.472115 25.472115 0 0 0 15.037754 6.035561h3.06893zM512 461.234982l-97.950001-169.660654h195.900002L512 461.234982zM778.280786 868.175039c84.242116-38.105875 157.538383-93.090863 213.699793-160.402717a25.574413 25.574413 0 0 0-39.282298-32.735249c-51.148826 61.225144-118.153787 111.555589-195.490811 146.490237a25.574413 25.574413 0 0 0 21.073316 46.647729zM279.630885 855.183237a25.574413 25.574413 0 0 0-12.991801-33.758225 532.970763 532.970763 0 0 1-195.286217-146.285641 25.574413 25.574413 0 1 0-39.384595 32.530653A584.119588 584.119588 0 0 0 245.87266 868.226188a25.574413 25.574413 0 0 0 33.758225-13.042951z"  horiz-adv-x="1024" />

    
    <glyph glyph-name="CommodityOperation" unicode="&#58985;" d="M960.5632 181.0432l0.2048-0.4096 54.0672-86.4256a25.6 25.6 0 1 0-43.4176-27.136l-20.992 33.6384a256.1024 256.1024 0 0 0-443.904-81.152l55.296 14.848a204.9024 204.9024 0 0 1 338.8416 79.0016l-35.072-21.9136a25.6 25.6 0 0 0-27.136 43.4176l86.8352 54.272a25.6 25.6 0 0 0 35.328-8.1408zM767.8464 793.6c20.1216 0 39.0144-7.8336 51.968-20.1216l4.5568-4.8128L1024 577.536l-64.4096-144.4864a360.3456 360.3456 0 0 1-40.5504 34.816l43.52 97.6384-178.432 171.0592a25.3952 25.3952 0 0 1-7.5776 4.3008l-4.1984 1.1264L767.8464 742.4H689.664A179.2 179.2 0 0 0 334.848 742.4H256.1024c-6.0416 0-11.7248-2.048-17.1008-6.7584l-3.9936-3.9424L61.44 565.504l77.9776-174.9504 91.0848 87.552v-469.504a25.6 25.6 0 0 1 20.992-25.1904l4.608-0.4096h150.528c11.9296-18.3296 25.6-35.4304 40.6528-51.2H256.1024a76.8 76.8 0 0 0-76.3904 69.4272l-0.3584 7.3728-0.0512 349.3376-56.9344-54.784L0 577.536l197.9392 189.3376c12.8512 14.9504 30.9248 24.4224 50.688 26.368L256.1024 793.6h511.744z m-61.184-358.4a255.488 255.488 0 0 0 200.1408-96.3584l-55.296-14.848a204.9024 204.9024 0 0 1-339.6608-81.5616l34.0992 17.408a25.6 25.6 0 1 0 23.2448-45.568l-91.2384-46.4896a25.6 25.6 0 0 0-34.4064 11.1616l-0.2048 0.4608-46.2848 90.7776a25.6 25.6 0 0 0 45.568 23.2448l19.5072-38.2464A256.1024 256.1024 0 0 0 706.6624 435.2z m-68.9664 307.2h-250.88a128 128 0 0 1 250.88 0z"  horiz-adv-x="1024" />

    
    <glyph glyph-name="Systemtools" unicode="&#58986;" d="M747.2128-76.8c11.4688 0 20.7872-11.4688 20.7872-25.6s-9.3184-25.6-20.7872-25.6H123.1872C111.7184-128 102.4-116.5312 102.4-102.4s9.3184 25.6 20.7872 25.6h624.0256z m-12.8512 605.696a204.6976 204.6976 0 0 0 53.0432-197.7856l200.3456-200.448a102.4 102.4 0 1 0-144.7936-144.8448l-200.3968 200.3968a204.8 204.8 0 0 0-214.8352 323.4304l122.5216-122.4704a25.6 25.6 0 0 1 36.1984 36.1984L463.9744 545.8944a204.8 204.8 0 0 0 270.336-16.9984z m-184.576 3.584l66.9184-67.0208c1.8432-2.048 3.9424-3.8912 5.9392-5.888a76.8 76.8 0 1 0-114.176-102.4l-0.3584-0.3072-66.9696 67.0208a153.6512 153.6512 0 0 1 214.6304-178.432l223.3856-223.4368a51.2 51.2 0 0 1 67.9424-3.9936l4.4544 3.9936a51.2 51.2 0 0 1 3.9936 67.9424l-3.9936 4.4544-223.3856 223.488a153.6512 153.6512 0 0 1-178.3808 214.528zM921.6 896a102.4 102.4 0 0 0 102.4-102.4v-460.8a25.6 25.6 0 1 0-51.2 0V793.6a51.2 51.2 0 0 1-51.2 51.2H102.4a51.2 51.2 0 0 1-51.2-51.2v-614.4a51.2 51.2 0 0 1 51.2-51.2h409.6a25.6 25.6 0 1 0 0-51.2H102.4a102.4 102.4 0 0 0-102.4 102.4V793.6a102.4 102.4 0 0 0 102.4 102.4h819.2z"  horiz-adv-x="1024" />

    
    <glyph glyph-name="contentAdministration" unicode="&#58987;" d="M512.137728 896a179.251021 179.251021 0 0 0 174.079826-136.447864 460.850739 460.850739 0 0 0 276.786923-522.393077 179.199821 179.199821 0 0 0-202.751797-292.710107A458.085942 458.085942 0 0 0 512.086528-127.998976a458.649141 458.649141 0 0 0-248.114952 72.447928 179.199821 179.199821 0 0 0-202.751797 292.761307A460.953139 460.953139 0 0 0 338.109102 759.603336 179.199821 179.199821 0 0 0 512.137728 896z m178.534221-194.457406l-0.409599-4.249595a179.199821 179.199821 0 0 0-356.710043 4.249595 409.70199 409.70199 0 0 1-225.689375-434.841165 179.199821 179.199821 0 0 0 200.1918-289.074911A407.193193 407.193193 0 0 1 512.086528-76.799027a407.705192 407.705192 0 0 1 204.185396 54.425545 179.199821 179.199821 0 0 0 200.0894 289.126111 409.59959 409.59959 0 0 1-225.791774 434.789965zM179.338061 230.400666c-21.657578 0-42.086358-5.375995-60.00634-14.899186l-8.959991-5.222394a128.153472 128.153472 0 0 1-8.345592-5.887994l6.297594 4.505595c-3.071997-2.047998-6.041594-4.198396-8.908791-6.502393l2.559997 2.047998c-2.713597-2.099198-5.324795-4.249596-7.884792-6.553594l5.324795 4.505596c-2.559997-2.047998-4.966395-4.095996-7.321593-6.348794l2.047998 1.843198a128.614271 128.614271 0 0 1-9.215991-9.011191l7.167993 7.167993c-3.071997-2.815997-5.939194-5.836794-8.703991-8.959991l1.535998 1.791998a128.665471 128.665471 0 0 1-6.297593-7.475192l4.761595 5.683194a127.999872 127.999872 0 0 1 128.665471-208.486192l3.891196 1.177599a125.644674 125.644674 0 0 1 21.657579 8.601592l-1.279999-0.6144c3.276797 1.638398 6.502393 3.379197 9.57439 5.273595l-8.294391-4.607995c3.174397 1.587198 6.297594 3.379197 9.36959 5.273594l-1.023999-0.665599c3.225597 2.047998 6.348794 4.095996 9.420791 6.399994l-8.396792-5.734395c3.532796 2.201598 6.911993 4.556795 10.23999 7.065593l-1.843198-1.331198c2.662397 1.945598 5.273595 4.095996 7.782392 6.246393l-5.990394-4.915195A127.999872 127.999872 0 0 1 179.338061 230.400666z m665.599334 0a127.999872 127.999872 0 0 1-67.635132-236.697364l-8.396792 5.683195c3.071997-2.201598 6.143994-4.351996 9.420791-6.297594l-1.023999 0.614399c2.764797-1.689598 5.580794-3.327997 8.447991-4.812795l-7.423992 4.198396c3.327997-2.047998 6.758393-3.942396 10.29119-5.631994l-2.867198 1.433598A127.180673 127.180673 0 0 1 844.937395-25.599078a127.999872 127.999872 0 0 1 87.244713 221.695778l7.116793-7.167993a128.819071 128.819071 0 0 1-9.164791 8.959991l2.047998-1.843198a128.153472 128.153472 0 0 1-7.321593 6.297594l5.273595-4.454396a128.665471 128.665471 0 0 1-7.884792 6.553594l2.611197-2.047998A127.897472 127.897472 0 0 1 844.937395 230.400666zM512.137728 844.800051c-45.260755 0-84.991915-23.449577-107.775892-58.879941l-3.583997-5.887994a127.487873 127.487873 0 0 1-8.447991-18.022382l0.819199 2.047998c-1.075199-2.713597-2.047998-5.478395-2.969597-8.294392l2.150398 6.246394a126.975873 126.975873 0 0 1-3.174397-9.52319l1.023999 3.276796a126.975873 126.975873 0 0 1-2.355198-8.345591l1.331199 5.068795c-0.819199-2.867197-1.535998-5.734394-2.150398-8.601592l0.819199 3.532797c-0.716799-2.815997-1.279999-5.631994-1.791998-8.550392l0.972799 5.017595a127.487873 127.487873 0 0 1-1.587198-9.062391l0.614399 4.044796a127.999872 127.999872 0 0 1-1.228799-8.959991l0.6144 4.915195a128.409472 128.409472 0 0 1-0.972799-8.755191l-0.256-7.526393L384.137856 716.800179a127.999872 127.999872 0 0 1 119.60308-127.743872L512.137728 588.800307a127.999872 127.999872 0 0 1 127.999872 127.999872l-0.1536 5.273595a126.463874 126.463874 0 0 1-5.375994 31.999968l0.767999-2.559998a126.207874 126.207874 0 0 1-3.225597 9.881591l2.457598-7.321593a126.975873 126.975873 0 0 1-3.225597 9.267191l0.767999-1.945598a127.078273 127.078273 0 0 1-8.703991 18.636781l-3.583997 5.887994A127.897472 127.897472 0 0 1 512.137728 844.800051z"  horiz-adv-x="1024" />

    
    <glyph glyph-name="systemmanagement" unicode="&#58988;" d="M487.2704-76.8c11.52 0 20.8384-11.4688 20.8384-25.6s-9.3184-25.6-20.8384-25.6h-364.032C111.6672-128 102.4-116.5312 102.4-102.4s9.3184 25.6 20.7872 25.6h364.0832zM742.4 515.9424l269.4656-155.5456v-311.1936L742.4-106.3424 472.9344 49.152V360.448L742.4 515.9424z m0-59.0848l-218.3168-126.0544v-251.9552l218.3168-126.0544 218.2656 126.0544v251.9552L742.4 456.8576zM921.6 896a102.4 102.4 0 0 0 102.4-102.4v-256a25.6 25.6 0 0 0-50.7904-4.608L972.8 537.6V793.6a51.2 51.2 0 0 1-51.2 51.2H102.4a51.2 51.2 0 0 1-51.2-51.2v-614.4a51.2 51.2 0 0 1 51.2-51.2h204.8a25.6 25.6 0 0 0 4.608-50.7904L307.2 76.8H102.4a102.4 102.4 0 0 0-102.4 102.4V793.6a102.4 102.4 0 0 0 102.4 102.4h819.2z m-179.2-512a25.6 25.6 0 0 0 25.6-25.6v-140.544l124.4672-71.936a25.6 25.6 0 0 0 11.3152-30.7712l-1.9456-4.1984a25.6 25.6 0 0 0-30.7712-11.3152l-4.1984 1.9456-122.88 70.912-122.7776-70.912a25.6 25.6 0 0 0-25.6 44.3392L716.8 215.9616V358.4a25.6 25.6 0 0 0 25.6 25.6z"  horiz-adv-x="1024" />

    
    <glyph glyph-name="marketingmanagement" unicode="&#58989;" d="M972.5952 397.568A460.8 460.8 0 1 1 512-76.8a25.6 25.6 0 0 0 4.608-50.7904L512-128l-14.336 0.2048C221.5424-120.2176 0 105.984 0 384 0 666.7776 229.2224 896 512 896s512-229.2224 512-512a25.6 25.6 0 1 0-51.2 0zM998.4-76.8a25.6 25.6 0 1 0 0-51.2h-320.5632a25.6 25.6 0 0 0 0 51.2H998.4z m0 153.6a25.6 25.6 0 1 0 0-51.2h-320.5632a25.6 25.6 0 0 0 0 51.2H998.4z m0 153.6a25.6 25.6 0 1 0 0-51.2h-320.5632a25.6 25.6 0 0 0 0 51.2H998.4z m-305.3568 334.6432a25.6 25.6 0 0 0 0-36.1984l-325.8368-325.8368a25.6 25.6 0 0 0-36.2496 36.1984l325.8368 325.8368a25.6 25.6 0 0 0 36.2496 0zM358.4 640a102.4 102.4 0 1 0 0-204.8 102.4 102.4 0 0 0 0 204.8z m0-51.2a51.2 51.2 0 1 1 0-102.4 51.2 51.2 0 0 1 0 102.4z"  horiz-adv-x="1024" />

    
    <glyph glyph-name="Galaxybrand" unicode="&#58990;" d="M990.928384 836.7104c64.8704-64.8704 63.8464-182.3232 9.728-316.0576a102.3488 102.3488 0 0 0-6.8608-175.104l-0.1536-2.048A460.8 460.8 0 0 0 431.670784-65.2288c-145.92-66.4576-276.224-72.704-345.856-3.072-69.0176 69.0176-63.488 197.5808 1.28 341.9136a460.032 460.032 0 0 0-9.1648 173.056 102.4 102.4 0 1 0 71.5264 190.464A460.1344 460.1344 0 0 0 534.582784 844.8c37.0176 0 72.96-4.352 107.4688-12.5952 147.1488 67.7888 278.7328 74.6496 348.8768 4.5056zM110.390784 203.776l-1.8944-5.2736c-35.328-99.6864-33.7408-183.6544 13.2608-230.656 48.1792-48.128 135.2704-48.64 238.336-10.4448a462.3872 462.3872 0 0 0-249.7024 246.3744z m791.808 137.984l-8.704-12.4416a1280.8704 1280.8704 0 0 0-137.8816-162.3552c-79.36-79.36-163.84-144.2304-245.9648-191.8464a409.6512 409.6512 0 0 1 431.36 357.888 99.9424 99.9424 0 0 0-38.8096 8.7552zM534.582784 793.6a409.1904 409.1904 0 0 1-339.9168-180.992A102.4 102.4 0 0 0 124.982784 435.2l3.1744 0.1536-1.4336-13.3632a409.7536 409.7536 0 0 1 303.104-434.0736c93.2352 46.7968 194.4576 120.4224 289.28 215.296a1280.256 1280.256 0 0 1 143.5648 170.0864 102.4 102.4 0 0 0 53.248 160.3584A409.6 409.6 0 0 1 534.582784 793.6z m38.5024-179.2c39.2192 0 69.0176-3.9424 89.3952-11.8272 20.3776-7.936 36.7104-21.8624 48.896-41.8816 12.1856-19.968 18.3296-42.0864 18.3296-66.304 0-31.232-10.1376-57.4976-30.3104-78.848-20.224-21.4528-51.4048-35.0208-93.5936-40.8576 15.36-7.3728 27.0848-14.6944 35.072-21.8624 16.9984-15.616 33.1264-35.1232 48.3328-58.5216l17.408-31.5392-46.4896-41.8816-25.856 45.2096a834.048 834.048 0 0 1-41.984 60.6208c-11.008 13.9776-20.8384 23.808-29.5424 29.3888a87.3472 87.3472 0 0 1-26.5728 11.7248 174.848 174.848 0 0 1-32.4096 2.048H436.278784v-195.2768H378.064384V614.4zM944.182784 486.4a51.2 51.2 0 1 1 0-102.4 51.2 51.2 0 0 1 0 102.4z m-368.6912 79.36H436.278784V420.352h125.0816c26.624 0 47.4112 2.7648 62.464 8.2432 14.9504 5.5296 26.368 14.336 34.1504 26.4192 7.7824 12.0832 11.7248 25.2416 11.7248 39.424 0 20.8384-7.5776 37.888-22.6816 51.3024-15.104 13.4144-38.912 20.1216-71.5264 20.1216zM124.982784 588.8a51.2 51.2 0 1 1 0-102.4 51.2 51.2 0 0 1 0 102.4z m591.3088 222.3104l-4.352-1.6896a462.336 462.336 0 0 0 250.4704-253.952c40.704 105.984 41.2672 195.84-7.9872 245.0944-48.128 48.128-135.168 48.64-238.1312 10.5472z"  horiz-adv-x="1046" />

    
    <glyph glyph-name="Flyingtothesky" unicode="&#58991;" d="M300.1856 191.1296a25.6 25.6 0 0 0 0-36.2496L119.1424-26.112a25.6 25.6 0 0 0-36.1984 36.1984l181.0432 181.0432a25.6 25.6 0 0 0 36.1984 0z m-87.3984 66.1504a25.6 25.6 0 0 0 0-36.1984l-108.5952-108.544a25.6 25.6 0 1 0-36.2496 36.1472l108.6464 108.5952a25.6 25.6 0 0 0 36.1984 0z m153.6-153.6a25.6 25.6 0 0 0 0-36.1984l-108.5952-108.544a25.6 25.6 0 1 0-36.2496 36.1472l108.6464 108.5952a25.6 25.6 0 0 0 36.1984 0zM987.3408 864l-21.4528-279.2448a307.2 307.2 0 0 0-89.088-193.7408l-109.1584-109.2096c77.6704-77.6704 64.6144-217.6-27.8528-317.1328l-8.3456-8.704-144.8448 144.8448-27.648-27.648a51.2 51.2 0 0 0-72.3968 0l-289.6384 289.5872a51.2 51.2 0 0 0 0 72.448l27.648 27.648-144.7936 144.7936c99.9424 99.9936 245.8624 116.224 325.8368 36.1984l109.3632 109.3632a307.2 307.2 0 0 0 193.3312 89.088l279.04 21.7088z m-56.4224-61.0304l-216.832-13.568a256 256 0 0 1-165.0176-74.496L254.8736 420.7104a30.72 30.72 0 0 1 0-43.4688l246.1696-246.1696a30.72 30.72 0 0 1 43.4176 0l295.68 295.68a256 256 0 0 1 74.24 161.3824l16.5376 214.8352zM369.408 607.6416l-6.0928 5.632c-51.4048 44.3904-135.9872 39.1168-207.5136-9.216L260.4032 498.688l109.0048 108.9536z m361.984-362.0352l-108.9536-108.9536 105.3696-104.6528c46.3872 68.608 53.1456 149.0944 14.5408 200.96l-5.3248 6.6048-5.632 6.0416z m44.8 406.784a102.4 102.4 0 1 0-144.8448-144.7936 102.4 102.4 0 0 0 144.8448 144.7936z m-36.1984-36.1984a51.2 51.2 0 1 1-72.3968-72.3968 51.2 51.2 0 0 1 72.3968 72.3968z"  horiz-adv-x="1024" />

    
    <glyph glyph-name="picture" unicode="&#58978;" d="M242.5856 416.0512l95.6416-138.24-139.3664-212.3264L0 65.43359999999996l242.5856 350.6176z m408.1664 218.2656L1024 65.43359999999996H277.504l373.248 568.832zM327.168 691.2a71.1168 71.1168 0 1 0 0-142.2336 71.1168 71.1168 0 0 0 0 142.2336z"  horiz-adv-x="1024" />

    
    <glyph glyph-name="split" unicode="&#58979;" d="M529.408 691.2L429.568 511.744l163.8912-270.1824-118.1696-204.4928L0 35.84000000000003V691.2h529.408zM1024 691.2v-655.36H491.52l139.1616 206.7968-136.0384 264.704L594.8416 691.2H1024z"  horiz-adv-x="1024" />

    
    <glyph glyph-name="time" unicode="&#58974;" d="M397.584935 837.239655a51.146654 51.146654 0 0 0-29.767353-65.928037 409.326672 409.326672 0 0 1 144.745031-792.005938 409.275526 409.275526 0 0 1 380.78684 259.057803 51.146654 51.146654 0 1 0 95.132776-37.592791 511.568834 511.568834 0 0 0-475.868469-323.75832c-282.48297 0-511.46654 228.98357-511.466541 511.46654 0 214.45792 133.185887 403.85398 330.458532 478.528096a51.146654 51.146654 0 0 0 65.979184-29.767353z m161.981453 58.307186l5.728426-0.511467c100.758908-14.321063 194.357285-57.488839 270.974973-123.774903a543.586639 543.586639 0 0 0 181.570621-328.259225 51.146654 51.146654 0 0 0-50.532894-58.972092h-407.025073a51.146654 51.146654 0 0 0-51.146654 50.89092l-2.148159 409.173233a51.146654 51.146654 0 0 0 58.307186 50.942067z m50.021428-114.568505l1.585546-294.655874h292.149688l-2.659626 9.001811a440.833011 440.833011 0 0 1-118.404504 186.992167l-12.83781 11.559144a427.432588 427.432588 0 0 1-154.974362 85.772939l-4.858932 1.380959z"  horiz-adv-x="1024" />

    
    <glyph glyph-name="clock2" unicode="&#58975;" d="M510.8736 821.76a460.8 460.8 0 0 0 337.92-774.144l86.528-86.4768a51.2 51.2 0 0 0-72.3968-72.3968l-91.904 91.8528a458.6496 458.6496 0 0 0-260.1472-80.4352 458.6496 458.6496 0 0 0-258.816 79.5136l-90.9824-90.9312a51.2 51.2 0 0 0-72.3968 72.3968L174.08 46.591999999999985A460.8 460.8 0 0 0 510.8736 821.76z m0-102.4a358.4 358.4 0 1 1 0-716.8 358.4 358.4 0 0 1 0 716.8zM512 566.784a51.2 51.2 0 0 0 51.2-51.2v-158.72c0-7.7312-1.6896-15.0528-4.7616-21.6064-4.096-10.6496-11.6736-19.968-22.3232-26.112l-97.536-56.32a51.2 51.2 0 0 0-51.2 88.6784L460.8 383.8976V515.5840000000001a51.2 51.2 0 0 0 51.2 51.2zM279.3984 873.6256a51.2 51.2 0 0 0-12.544-71.3216L99.072 684.8512000000001A51.2 51.2 0 0 0 40.3456 768.7168L208.128 886.272a51.2 51.2 0 0 0 71.2704-12.5952z m465.2032 0a51.2 51.2 0 0 0 71.2704 12.5952l167.7824-117.504a51.2 51.2 0 1 0-58.7264-83.8656L757.1456 802.304a51.2 51.2 0 0 0-12.544 71.3216z"  horiz-adv-x="1024" />

    
    <glyph glyph-name="marketing" unicode="&#58976;" d="M179.2 281.6a51.2 51.2 0 0 0 51.2-51.2v-307.2a51.2 51.2 0 0 0-102.4 0v307.2a51.2 51.2 0 0 0 51.2 51.2z m614.4 102.4a51.2 51.2 0 0 0 51.2-51.2v-409.6a51.2 51.2 0 0 0-102.4 0v409.6a51.2 51.2 0 0 0 51.2 51.2z m-307.2-204.8a51.2 51.2 0 0 0 51.2-51.2v-204.8a51.2 51.2 0 0 0-102.4 0v204.8a51.2 51.2 0 0 0 51.2 51.2z m487.7824 620.032a15.36 15.36 0 0 0 0-6.144l-42.24-207.0528a15.36 15.36 0 0 0-25.9072-7.8336l-43.4176 43.4176-218.2144-176.7936a51.2 51.2 0 0 0-52.9408-7.0656 51.3536 51.3536 0 0 0-17.152 9.216L325.0176 648.704 155.4432 511.4368a51.2 51.2 0 1 0-64.4608 79.5648L289.9456 752.1279999999999a50.9952 50.9952 0 0 0 35.1232 11.264 51.0464 51.0464 0 0 0 35.1744-11.264l250.368-202.752 179.2 145.1008-48.64 48.6912a15.36 15.36 0 0 0 7.7824 25.9072l207.104 42.24a15.36 15.36 0 0 0 18.1248-11.9808z"  horiz-adv-x="1024" />

    
    <glyph glyph-name="funnel" unicode="&#58977;" d="M921.6 896a51.2 51.2 0 0 0 0-102.4v-105.5744c0-124.5696-57.1392-237.568-147.3536-304.64 86.8864-65.0752 142.9504-171.0592 147.0976-288.6656l0.256-14.1312V-25.6a51.2 51.2 0 0 0 0-102.4H102.4a51.2 51.2 0 0 0 0 102.4v105.5744c0 124.6208 57.1392 237.568 147.456 304.64-87.04 65.024-143.0528 171.008-147.2 288.6656L102.4 687.4112V793.6a51.2 51.2 0 1 0 0 102.4h819.2z m-279.2448-557.6192l-2.048 1.0752a50.8928 50.8928 0 0 0-23.2448 28.16c0 0.2048-0.1024 0.3584-0.1536 0.512l-0.512 1.7408a51.2512 51.2512 0 0 0-0.8704 3.4816l1.3824-5.1712a51.6096 51.6096 0 0 0 0.3072 32.5632l0.256 0.768c0.512 1.3312 1.024 2.6112 1.6384 3.8912l-1.8944-4.6592a51.712 51.712 0 0 0 15.36 22.3744l1.28 1.024a49.0496 49.0496 0 0 0 7.5776 5.0176l2.2528 1.0752a39.0656 39.0656 0 0 0 6.0928 2.4576c95.3856 31.0272 164.5056 128.3072 169.1648 242.9952L819.2 688.0256V793.6H204.8v-106.1888c0-118.016 70.2464-220.416 170.3424-255.0272l0.9728-0.3584 1.6896-0.6656-2.6624 1.024c5.888-2.048 11.1104-5.0176 15.6672-8.704l1.024-0.9216a49.8176 49.8176 0 0 0 15.104-22.4256l0.1536-0.512 0.3072-1.024c0.4608-1.3824 0.8192-2.816 1.1264-4.2496l-1.4336 5.2736a51.6096 51.6096 0 0 0-0.3072-32.5632l-0.3584-0.9728a51.456 51.456 0 0 0-1.024-2.6624l1.3824 3.6352a51.712 51.712 0 0 0-15.2576-22.3232l-1.3824-1.1264a49.152 49.152 0 0 0-7.8336-5.12l-1.9968-0.9728a44.6976 44.6976 0 0 0-3.9424-1.6896l-0.9216-0.3072a25.088 25.088 0 0 0-1.2288-0.4096c-95.3856-31.0272-164.5056-128.3072-169.1648-242.9952L204.8 79.9744V-25.6h614.4v106.1888c0 118.016-70.2464 220.3648-170.3424 254.976l-0.9728 0.4096a51.456 51.456 0 0 0-2.2528 0.8704l-2.304 1.024-0.9728 0.512zM665.6 128a51.2 51.2 0 0 0 0-102.4H358.4a51.2 51.2 0 0 0 0 102.4h307.2z"  horiz-adv-x="1024" />

    
    <glyph glyph-name="pmd-logo" unicode="&#58973;" d="M945.298286 534.762057V128l-402.578286-232.448v94.559086l320.658286 185.168457V488.535771l81.92 46.226286zM165.624686 160.70948599999997l295.175314-170.422857v-94.559086L83.7632 113.42994299999998l81.861486 47.279543zM501.906286 896L888.832 672.592457l-81.861486-47.3088-305.064228 176.128L140.434286 592.6912v-162.991543L58.514286 382.390857V640L501.906286 896zM58.514286 287.744l443.011657 256v-94.588343L58.514286 193.15565700000002zM419.576686 306.907429L945.3568 610.742857v-94.588343l-525.750857-303.835428zM419.547429 482.7136l81.92 47.484343V281.6l-81.92-47.396571z"  horiz-adv-x="1024" />

    
    <glyph glyph-name="attract" unicode="&#58972;" d="M1014.564571 333.38514299999997a31.963429 31.963429 0 0 1 0 45.202286l-149.942857 149.942857a31.963429 31.963429 0 0 1-45.348571 0L499.785143 209.26171399999998a132.534857 132.534857 0 0 0-92.306286-38.473143 108.982857 108.982857 0 0 0-77.897143 31.305143c-44.324571 44.324571-40.96 120.832 7.387429 170.422857l198.582857 198.363429 120.685714 120.612571a31.963429 31.963429 0 0 1 0 45.202286L506.148571 886.637714a32.182857 32.182857 0 0 1-45.348571 0l-120.685714-120.685714-3.510857-3.510857L125.732571 551.497143c-160.475429-163.986286-168.374857-419.986286-17.627428-570.733714 70.217143-70.144 165.302857-108.690286 267.995428-108.690286 111.542857 0 218.697143 44.397714 301.787429 124.781714l336.676571 336.457143z m-531.017142 485.376l104.740571-104.594286-75.337143-75.410286-104.740571 104.594286 75.337143 75.410286zM633.417143 42.934856999999965c-71.094857-68.900571-162.377143-106.934857-257.243429-106.934857-85.577143 0-164.644571 31.963429-222.646857 89.965714-126.098286 126.025143-117.979429 341.796571 17.92 480.694857l191.561143 191.414858 104.667429-104.667429-176.274286-176.201143c-72.850286-74.459429-76.068571-191.268571-6.875429-260.388571 32.256-32.256 75.995429-50.102857 123.099429-50.102857 50.614857 0 99.328 20.114286 137.216 56.905142l176.274286 176.201143 104.594285-104.667428-192.219428-192.219429z m237.641143 237.421714l-104.740572 104.667429 75.702857 75.629714 104.667429-104.594285-75.629714-75.702858z"  horiz-adv-x="1024" />

    
    <glyph glyph-name="star" unicode="&#58970;" d="M422.349531 819.273143L318.340389 608.768l-232.301715-33.792c-21.869714-3.145143-42.130286-13.458286-57.563428-29.330286l-7.168-8.265143a100.571429 100.571429 0 0 1 8.996571-133.924571l168.155429-163.84-39.716572-231.497143c-3.657143-21.796571-0.146286-44.251429 10.166857-63.853714l5.193143-8.777143c28.16-42.569143 84.48-57.636571 130.56-33.426286L512.534674 11.410286000000042l207.872-109.348572c19.529143-10.24 41.984-13.897143 63.780572-10.093714l9.508571 2.121143a100.571429 100.571429 0 0 1 72.630857 114.029714l-39.789714 231.497143 168.228571 163.84c15.798857 15.36 26.112 35.620571 29.257143 57.563429l1.024 9.654857A100.571429 100.571429 0 0 1 938.957531 574.902857l-232.374857 33.792-103.936 210.505143a100.571429 100.571429 0 0 1-180.370285 0z"  horiz-adv-x="1025" />

    
    <glyph glyph-name="star2" unicode="&#58971;" d="M422.349531 819.273143L318.340389 608.768l-232.301715-33.792c-21.869714-3.145143-42.130286-13.458286-57.563428-29.330286l-7.168-8.265143a100.571429 100.571429 0 0 1 8.996571-133.924571l168.155429-163.84-39.716572-231.497143c-3.657143-21.796571-0.146286-44.251429 10.166857-63.853714l5.193143-8.777143c28.16-42.569143 84.48-57.636571 130.56-33.426286L512.534674 11.410286000000042l207.872-109.348572c19.529143-10.24 41.984-13.897143 63.780572-10.093714l9.508571 2.121143a100.571429 100.571429 0 0 1 72.630857 114.029714l-39.789714 231.497143 168.228571 163.84c15.798857 15.36 26.112 35.620571 29.257143 57.563429l1.024 9.654857A100.571429 100.571429 0 0 1 938.957531 574.902857l-232.374857 33.792-103.936 210.505143a100.571429 100.571429 0 0 1-180.370285 0z m102.326858-19.894857a27.428571 27.428571 0 0 0 12.434285-12.434286l120.978286-245.028571 270.409143-39.350858a27.428571 27.428571 0 0 0 15.213714-46.811428l-195.730286-190.683429 46.226286-269.312a27.428571 27.428571 0 0 0-39.789714-28.964571L512.534674 93.98857099999998l-241.883428-127.195428a27.428571 27.428571 0 0 0-39.789715 28.964571l46.226286 269.312-195.730286 190.756572a27.428571 27.428571 0 0 0 15.213715 46.811428l270.409143 39.277715 120.978285 245.028571a27.428571 27.428571 0 0 0 36.717715 12.434286z"  horiz-adv-x="1025" />

    
    </font>
</defs>
</svg>
