<?xml version="1.0" standalone="no"?>
<!DOCTYPE svg PUBLIC "-//W3C//DTD SVG 1.1//EN" "http://www.w3.org/Graphics/SVG/1.1/DTD/svg11.dtd" >
<!--
2013-9-30: Created.
-->
<svg>
<metadata>
Created by iconfont
</metadata>
<defs>

<font id="iconfont" horiz-adv-x="1024" >
  <font-face
    font-family="iconfont"
    font-weight="500"
    font-stretch="normal"
    units-per-em="1024"
    ascent="896"
    descent="-128"
  />
    <missing-glyph />
    
    <glyph glyph-name="picture" unicode="&#58978;" d="M242.5856 416.0512l95.6416-138.24-139.3664-212.3264L0 65.43359999999996l242.5856 350.6176z m408.1664 218.2656L1024 65.43359999999996H277.504l373.248 568.832zM327.168 691.2a71.1168 71.1168 0 1 0 0-142.2336 71.1168 71.1168 0 0 0 0 142.2336z"  horiz-adv-x="1024" />

    
    <glyph glyph-name="split" unicode="&#58979;" d="M529.408 691.2L429.568 511.744l163.8912-270.1824-118.1696-204.4928L0 35.84000000000003V691.2h529.408zM1024 691.2v-655.36H491.52l139.1616 206.7968-136.0384 264.704L594.8416 691.2H1024z"  horiz-adv-x="1024" />

    
    <glyph glyph-name="time" unicode="&#58974;" d="M397.584935 837.239655a51.146654 51.146654 0 0 0-29.767353-65.928037 409.326672 409.326672 0 0 1 144.745031-792.005938 409.275526 409.275526 0 0 1 380.78684 259.057803 51.146654 51.146654 0 1 0 95.132776-37.592791 511.568834 511.568834 0 0 0-475.868469-323.75832c-282.48297 0-511.46654 228.98357-511.466541 511.46654 0 214.45792 133.185887 403.85398 330.458532 478.528096a51.146654 51.146654 0 0 0 65.979184-29.767353z m161.981453 58.307186l5.728426-0.511467c100.758908-14.321063 194.357285-57.488839 270.974973-123.774903a543.586639 543.586639 0 0 0 181.570621-328.259225 51.146654 51.146654 0 0 0-50.532894-58.972092h-407.025073a51.146654 51.146654 0 0 0-51.146654 50.89092l-2.148159 409.173233a51.146654 51.146654 0 0 0 58.307186 50.942067z m50.021428-114.568505l1.585546-294.655874h292.149688l-2.659626 9.001811a440.833011 440.833011 0 0 1-118.404504 186.992167l-12.83781 11.559144a427.432588 427.432588 0 0 1-154.974362 85.772939l-4.858932 1.380959z"  horiz-adv-x="1024" />

    
    <glyph glyph-name="clock2" unicode="&#58975;" d="M510.8736 821.76a460.8 460.8 0 0 0 337.92-774.144l86.528-86.4768a51.2 51.2 0 0 0-72.3968-72.3968l-91.904 91.8528a458.6496 458.6496 0 0 0-260.1472-80.4352 458.6496 458.6496 0 0 0-258.816 79.5136l-90.9824-90.9312a51.2 51.2 0 0 0-72.3968 72.3968L174.08 46.591999999999985A460.8 460.8 0 0 0 510.8736 821.76z m0-102.4a358.4 358.4 0 1 1 0-716.8 358.4 358.4 0 0 1 0 716.8zM512 566.784a51.2 51.2 0 0 0 51.2-51.2v-158.72c0-7.7312-1.6896-15.0528-4.7616-21.6064-4.096-10.6496-11.6736-19.968-22.3232-26.112l-97.536-56.32a51.2 51.2 0 0 0-51.2 88.6784L460.8 383.8976V515.5840000000001a51.2 51.2 0 0 0 51.2 51.2zM279.3984 873.6256a51.2 51.2 0 0 0-12.544-71.3216L99.072 684.8512000000001A51.2 51.2 0 0 0 40.3456 768.7168L208.128 886.272a51.2 51.2 0 0 0 71.2704-12.5952z m465.2032 0a51.2 51.2 0 0 0 71.2704 12.5952l167.7824-117.504a51.2 51.2 0 1 0-58.7264-83.8656L757.1456 802.304a51.2 51.2 0 0 0-12.544 71.3216z"  horiz-adv-x="1024" />

    
    <glyph glyph-name="marketing" unicode="&#58976;" d="M179.2 281.6a51.2 51.2 0 0 0 51.2-51.2v-307.2a51.2 51.2 0 0 0-102.4 0v307.2a51.2 51.2 0 0 0 51.2 51.2z m614.4 102.4a51.2 51.2 0 0 0 51.2-51.2v-409.6a51.2 51.2 0 0 0-102.4 0v409.6a51.2 51.2 0 0 0 51.2 51.2z m-307.2-204.8a51.2 51.2 0 0 0 51.2-51.2v-204.8a51.2 51.2 0 0 0-102.4 0v204.8a51.2 51.2 0 0 0 51.2 51.2z m487.7824 620.032a15.36 15.36 0 0 0 0-6.144l-42.24-207.0528a15.36 15.36 0 0 0-25.9072-7.8336l-43.4176 43.4176-218.2144-176.7936a51.2 51.2 0 0 0-52.9408-7.0656 51.3536 51.3536 0 0 0-17.152 9.216L325.0176 648.704 155.4432 511.4368a51.2 51.2 0 1 0-64.4608 79.5648L289.9456 752.1279999999999a50.9952 50.9952 0 0 0 35.1232 11.264 51.0464 51.0464 0 0 0 35.1744-11.264l250.368-202.752 179.2 145.1008-48.64 48.6912a15.36 15.36 0 0 0 7.7824 25.9072l207.104 42.24a15.36 15.36 0 0 0 18.1248-11.9808z"  horiz-adv-x="1024" />

    
    <glyph glyph-name="funnel" unicode="&#58977;" d="M921.6 896a51.2 51.2 0 0 0 0-102.4v-105.5744c0-124.5696-57.1392-237.568-147.3536-304.64 86.8864-65.0752 142.9504-171.0592 147.0976-288.6656l0.256-14.1312V-25.6a51.2 51.2 0 0 0 0-102.4H102.4a51.2 51.2 0 0 0 0 102.4v105.5744c0 124.6208 57.1392 237.568 147.456 304.64-87.04 65.024-143.0528 171.008-147.2 288.6656L102.4 687.4112V793.6a51.2 51.2 0 1 0 0 102.4h819.2z m-279.2448-557.6192l-2.048 1.0752a50.8928 50.8928 0 0 0-23.2448 28.16c0 0.2048-0.1024 0.3584-0.1536 0.512l-0.512 1.7408a51.2512 51.2512 0 0 0-0.8704 3.4816l1.3824-5.1712a51.6096 51.6096 0 0 0 0.3072 32.5632l0.256 0.768c0.512 1.3312 1.024 2.6112 1.6384 3.8912l-1.8944-4.6592a51.712 51.712 0 0 0 15.36 22.3744l1.28 1.024a49.0496 49.0496 0 0 0 7.5776 5.0176l2.2528 1.0752a39.0656 39.0656 0 0 0 6.0928 2.4576c95.3856 31.0272 164.5056 128.3072 169.1648 242.9952L819.2 688.0256V793.6H204.8v-106.1888c0-118.016 70.2464-220.416 170.3424-255.0272l0.9728-0.3584 1.6896-0.6656-2.6624 1.024c5.888-2.048 11.1104-5.0176 15.6672-8.704l1.024-0.9216a49.8176 49.8176 0 0 0 15.104-22.4256l0.1536-0.512 0.3072-1.024c0.4608-1.3824 0.8192-2.816 1.1264-4.2496l-1.4336 5.2736a51.6096 51.6096 0 0 0-0.3072-32.5632l-0.3584-0.9728a51.456 51.456 0 0 0-1.024-2.6624l1.3824 3.6352a51.712 51.712 0 0 0-15.2576-22.3232l-1.3824-1.1264a49.152 49.152 0 0 0-7.8336-5.12l-1.9968-0.9728a44.6976 44.6976 0 0 0-3.9424-1.6896l-0.9216-0.3072a25.088 25.088 0 0 0-1.2288-0.4096c-95.3856-31.0272-164.5056-128.3072-169.1648-242.9952L204.8 79.9744V-25.6h614.4v106.1888c0 118.016-70.2464 220.3648-170.3424 254.976l-0.9728 0.4096a51.456 51.456 0 0 0-2.2528 0.8704l-2.304 1.024-0.9728 0.512zM665.6 128a51.2 51.2 0 0 0 0-102.4H358.4a51.2 51.2 0 0 0 0 102.4h307.2z"  horiz-adv-x="1024" />

    
    <glyph glyph-name="pmd-logo" unicode="&#58973;" d="M945.298286 534.762057V128l-402.578286-232.448v94.559086l320.658286 185.168457V488.535771l81.92 46.226286zM165.624686 160.70948599999997l295.175314-170.422857v-94.559086L83.7632 113.42994299999998l81.861486 47.279543zM501.906286 896L888.832 672.592457l-81.861486-47.3088-305.064228 176.128L140.434286 592.6912v-162.991543L58.514286 382.390857V640L501.906286 896zM58.514286 287.744l443.011657 256v-94.588343L58.514286 193.15565700000002zM419.576686 306.907429L945.3568 610.742857v-94.588343l-525.750857-303.835428zM419.547429 482.7136l81.92 47.484343V281.6l-81.92-47.396571z"  horiz-adv-x="1024" />

    
    <glyph glyph-name="attract" unicode="&#58972;" d="M1014.564571 333.38514299999997a31.963429 31.963429 0 0 1 0 45.202286l-149.942857 149.942857a31.963429 31.963429 0 0 1-45.348571 0L499.785143 209.26171399999998a132.534857 132.534857 0 0 0-92.306286-38.473143 108.982857 108.982857 0 0 0-77.897143 31.305143c-44.324571 44.324571-40.96 120.832 7.387429 170.422857l198.582857 198.363429 120.685714 120.612571a31.963429 31.963429 0 0 1 0 45.202286L506.148571 886.637714a32.182857 32.182857 0 0 1-45.348571 0l-120.685714-120.685714-3.510857-3.510857L125.732571 551.497143c-160.475429-163.986286-168.374857-419.986286-17.627428-570.733714 70.217143-70.144 165.302857-108.690286 267.995428-108.690286 111.542857 0 218.697143 44.397714 301.787429 124.781714l336.676571 336.457143z m-531.017142 485.376l104.740571-104.594286-75.337143-75.410286-104.740571 104.594286 75.337143 75.410286zM633.417143 42.934856999999965c-71.094857-68.900571-162.377143-106.934857-257.243429-106.934857-85.577143 0-164.644571 31.963429-222.646857 89.965714-126.098286 126.025143-117.979429 341.796571 17.92 480.694857l191.561143 191.414858 104.667429-104.667429-176.274286-176.201143c-72.850286-74.459429-76.068571-191.268571-6.875429-260.388571 32.256-32.256 75.995429-50.102857 123.099429-50.102857 50.614857 0 99.328 20.114286 137.216 56.905142l176.274286 176.201143 104.594285-104.667428-192.219428-192.219429z m237.641143 237.421714l-104.740572 104.667429 75.702857 75.629714 104.667429-104.594285-75.629714-75.702858z"  horiz-adv-x="1024" />

    
    <glyph glyph-name="star" unicode="&#58970;" d="M422.349531 819.273143L318.340389 608.768l-232.301715-33.792c-21.869714-3.145143-42.130286-13.458286-57.563428-29.330286l-7.168-8.265143a100.571429 100.571429 0 0 1 8.996571-133.924571l168.155429-163.84-39.716572-231.497143c-3.657143-21.796571-0.146286-44.251429 10.166857-63.853714l5.193143-8.777143c28.16-42.569143 84.48-57.636571 130.56-33.426286L512.534674 11.410286000000042l207.872-109.348572c19.529143-10.24 41.984-13.897143 63.780572-10.093714l9.508571 2.121143a100.571429 100.571429 0 0 1 72.630857 114.029714l-39.789714 231.497143 168.228571 163.84c15.798857 15.36 26.112 35.620571 29.257143 57.563429l1.024 9.654857A100.571429 100.571429 0 0 1 938.957531 574.902857l-232.374857 33.792-103.936 210.505143a100.571429 100.571429 0 0 1-180.370285 0z"  horiz-adv-x="1025" />

    
    <glyph glyph-name="star2" unicode="&#58971;" d="M422.349531 819.273143L318.340389 608.768l-232.301715-33.792c-21.869714-3.145143-42.130286-13.458286-57.563428-29.330286l-7.168-8.265143a100.571429 100.571429 0 0 1 8.996571-133.924571l168.155429-163.84-39.716572-231.497143c-3.657143-21.796571-0.146286-44.251429 10.166857-63.853714l5.193143-8.777143c28.16-42.569143 84.48-57.636571 130.56-33.426286L512.534674 11.410286000000042l207.872-109.348572c19.529143-10.24 41.984-13.897143 63.780572-10.093714l9.508571 2.121143a100.571429 100.571429 0 0 1 72.630857 114.029714l-39.789714 231.497143 168.228571 163.84c15.798857 15.36 26.112 35.620571 29.257143 57.563429l1.024 9.654857A100.571429 100.571429 0 0 1 938.957531 574.902857l-232.374857 33.792-103.936 210.505143a100.571429 100.571429 0 0 1-180.370285 0z m102.326858-19.894857a27.428571 27.428571 0 0 0 12.434285-12.434286l120.978286-245.028571 270.409143-39.350858a27.428571 27.428571 0 0 0 15.213714-46.811428l-195.730286-190.683429 46.226286-269.312a27.428571 27.428571 0 0 0-39.789714-28.964571L512.534674 93.98857099999998l-241.883428-127.195428a27.428571 27.428571 0 0 0-39.789715 28.964571l46.226286 269.312-195.730286 190.756572a27.428571 27.428571 0 0 0 15.213715 46.811428l270.409143 39.277715 120.978285 245.028571a27.428571 27.428571 0 0 0 36.717715 12.434286z"  horiz-adv-x="1025" />

    
    <glyph glyph-name="fold" unicode="&#58969;" d="M859.428571 91.428571a18.285714 18.285714 0 0 0 18.285715-18.285714v-36.571428a18.285714 18.285714 0 0 0-18.285715-18.285715h-694.857142a18.285714 18.285714 0 0 0-18.285715 18.285715v36.571428a18.285714 18.285714 0 0 0 18.285715 18.285714h694.857142z m-32.914285 415.926858c4.022857 0 7.314286-3.291429 7.314285-7.314286v-261.339429a7.314286 7.314286 0 0 0-11.995428-5.632l-150.052572 125.074286a14.628571 14.628571 0 0 0 0 22.454857l150.052572 125.074286a7.314286 7.314286 0 0 0 4.681143 1.682286zM566.857143 310.857143a18.285714 18.285714 0 0 0 18.285714-18.285714v-36.571429a18.285714 18.285714 0 0 0-18.285714-18.285714h-402.285714a18.285714 18.285714 0 0 0-18.285715 18.285714v36.571429a18.285714 18.285714 0 0 0 18.285715 18.285714h402.285714z m0 219.428571a18.285714 18.285714 0 0 0 18.285714-18.285714v-36.571429a18.285714 18.285714 0 0 0-18.285714-18.285714h-402.285714a18.285714 18.285714 0 0 0-18.285715 18.285714v36.571429a18.285714 18.285714 0 0 0 18.285715 18.285714h402.285714z m292.571428 219.428572a18.285714 18.285714 0 0 0 18.285715-18.285715v-36.571428a18.285714 18.285714 0 0 0-18.285715-18.285714h-694.857142a18.285714 18.285714 0 0 0-18.285715 18.285714v36.571428a18.285714 18.285714 0 0 0 18.285715 18.285715h694.857142z"  horiz-adv-x="1024" />

    
    <glyph glyph-name="circle-square" unicode="&#58964;" d="M230.4 332.79999999999995a230.4 230.4 0 0 0 10.8544-460.544L230.4-128a230.4 230.4 0 0 0-10.8544 460.544L230.4 332.79999999999995zM921.6 332.79999999999995a102.4 102.4 0 0 0 102.4-102.4v-256a102.4 102.4 0 0 0-102.4-102.4h-256a102.4 102.4 0 0 0-102.4 102.4v256a102.4 102.4 0 0 0 102.4 102.4h256zM230.4 281.6a179.2 179.2 0 1 1 0-358.4 179.2 179.2 0 0 1 0 358.4zM921.6 281.6h-256a51.2 51.2 0 0 1-50.8416-45.2096L614.4 230.39999999999998v-256a51.2 51.2 0 0 1 45.2096-50.8416L665.6-76.79999999999995h256a51.2 51.2 0 0 1 50.8416 45.2096L972.8-25.600000000000023v256a51.2 51.2 0 0 1-51.2 51.2zM230.4 896a230.4 230.4 0 0 0 10.8544-460.544L230.4 435.2A230.4 230.4 0 0 0 219.5456 895.744L230.4 896z m563.2 0a230.4 230.4 0 0 0 10.8544-460.544L793.6 435.2a230.4 230.4 0 0 0-10.8544 460.544L793.6 896z m-563.2-51.2a179.2 179.2 0 1 1 0-358.4 179.2 179.2 0 0 1 0 358.4z m563.2 0a179.2 179.2 0 1 1 0-358.4 179.2 179.2 0 0 1 0 358.4z"  horiz-adv-x="1024" />

    
    <glyph glyph-name="circles" unicode="&#58965;" d="M230.4 332.79999999999995a230.4 230.4 0 0 0 10.8544-460.544L230.4-128a230.4 230.4 0 0 0-10.8544 460.544L230.4 332.79999999999995z m563.2 0a230.4 230.4 0 0 0 10.8544-460.544L793.6-128a230.4 230.4 0 0 0-10.8544 460.544L793.6 332.79999999999995z m-563.2-51.2a179.2 179.2 0 1 1 0-358.4 179.2 179.2 0 0 1 0 358.4z m563.2 0a179.2 179.2 0 1 1 0-358.4 179.2 179.2 0 0 1 0 358.4zM230.4 896a230.4 230.4 0 0 0 10.8544-460.544L230.4 435.2A230.4 230.4 0 0 0 219.5456 895.744L230.4 896z m563.2 0a230.4 230.4 0 0 0 10.8544-460.544L793.6 435.2a230.4 230.4 0 0 0-10.8544 460.544L793.6 896z m-563.2-51.2a179.2 179.2 0 1 1 0-358.4 179.2 179.2 0 0 1 0 358.4z m563.2 0a179.2 179.2 0 1 1 0-358.4 179.2 179.2 0 0 1 0 358.4z"  horiz-adv-x="1024" />

    
    <glyph glyph-name="t-shirt" unicode="&#58966;" d="M767.8464 793.6c22.6304 0 43.7248-9.8816 56.5248-24.9344L1024 577.5360000000001l-122.368-274.432-57.0368 54.8864v-349.3888a76.8 76.8 0 0 0-69.3248-76.4416l-7.424-0.3584H256.1024a76.8 76.8 0 0 0-76.7488 76.8l-0.0512 349.3376-56.9344-54.784L0 577.5360000000001l197.9392 189.3376A76.5952 76.5952 0 0 0 256.1024 793.6z m0-51.2H689.664A179.2 179.2 0 0 0 334.848 742.4H256.1024c-7.5776 0-14.5408-3.2768-21.0944-10.7008L61.44 565.504l77.9776-174.9504 91.0848 87.552v-469.504a25.6 25.6 0 0 1 25.6-25.6h511.744a25.6 25.6 0 0 1 25.6 25.6v469.504l91.136-87.552L962.56 565.504l-178.4832 171.0592a25.344 25.344 0 0 1-11.776 5.4272L767.8464 742.4z m-130.1504 0h-250.88a128 128 0 0 1 250.88 0z"  horiz-adv-x="1024" />

    
    <glyph glyph-name="trademark" unicode="&#58967;" d="M512 896c282.7776 0 512-229.2224 512-512s-229.2224-512-512-512S0 101.2224 0 384 229.2224 896 512 896z m0-51.2a460.8 460.8 0 1 1 0-921.6 460.8 460.8 0 0 1 0 921.6z m38.5024-230.4l12.6976-0.1536c33.024-0.768 58.5728-4.6592 76.6976-11.6736 20.3776-7.936 36.7104-21.8624 48.896-41.8816 12.1856-19.968 18.3296-42.0864 18.3296-66.304 0-31.232-10.1376-57.4976-30.3104-78.848-20.224-21.4528-51.4048-35.0208-93.5936-40.8576 15.36-7.3728 27.0848-14.6944 35.072-21.8624 16.9984-15.616 33.1264-35.1232 48.3328-58.5216l76.4928-119.7056h-73.216l-58.2144 91.4944-7.0656 10.9568a741.888 741.888 0 0 1-34.9184 49.664c-11.008 13.9776-20.8384 23.808-29.5424 29.3888a87.3472 87.3472 0 0 1-26.5728 11.7248 174.848 174.848 0 0 1-32.4096 2.048H413.696v-195.2768H355.4816V614.4h195.0208z m2.4064-48.64H413.696V420.352h125.0816c26.624 0 47.4112 2.7648 62.464 8.2432 14.9504 5.5296 26.368 14.336 34.1504 26.4192 7.7824 12.0832 11.7248 25.2416 11.7248 39.424 0 20.8384-7.5776 37.888-22.6816 51.3024-15.104 13.4144-38.912 20.1216-71.5264 20.1216z"  horiz-adv-x="1024" />

    
    <glyph glyph-name="handbag" unicode="&#58968;" d="M223.4368 640v-51.2h-73.216a25.6 25.6 0 0 1-24.8832-19.456l-0.7168-4.3008-39.936-559.616a76.8 76.8 0 0 1 69.2224-81.92L161.28-76.79999999999995l704.4096 0.0512 2.7136 0.1536a76.8 76.8 0 0 1 71.3216 74.6496l-0.2048 7.424-39.936 559.5648a25.6 25.6 0 0 1-21.1456 23.3984L873.984 588.8h-75.6224V640h75.6224a76.8 76.8 0 0 0 75.776-64.3584l0.8192-6.9632 39.936-559.5648a128 128 0 0 0-118.528-136.8064l-4.5568-0.2048L161.28-128a128 128 0 0 0-128 128l0.1024 4.608 40.192 564.0704a76.8 76.8 0 0 0 69.5808 71.0144L150.1696 640h73.216z m416.5632-460.8a25.6 25.6 0 1 0 0-51.2h-256a25.6 25.6 0 1 0 0 51.2h256zM512.1024 896a230.4 230.4 0 0 0 230.144-219.5456l0.256-10.8544v-165.12a25.6 25.6 0 0 0-50.7904-4.608l-0.4096 4.608V665.6a179.2 179.2 0 0 1-358.144 9.8304l-0.256-9.8304v-165.12a25.6 25.6 0 0 0-50.7904-4.608l-0.4096 4.608V665.6a230.4 230.4 0 0 0 230.4 230.4z m113.3056-256v-51.2H389.3248V640h236.0832z"  horiz-adv-x="1024" />

    
    <glyph glyph-name="bulb" unicode="&#58962;" d="M621.714286-54.85714299999995a36.571429 36.571429 0 1 0 0-73.142857h-219.428572a36.571429 36.571429 0 1 0 0 73.142857h219.428572zM512 896a402.285714 402.285714 0 0 0 191.341714-756.297143l-8.484571-4.315428V18.285713999999984h-365.714286v117.101715l-8.411428 4.388571a402.285714 402.285714 0 0 0-210.651429 336.676571L109.714286 493.714286A402.285714 402.285714 0 0 0 512 896z m0-73.142857a329.142857 329.142857 0 0 1-131.657143-630.930286l21.942857-9.581714L402.285714 91.42857100000003H621.714286V182.345143l21.942857 9.581714A329.142857 329.142857 0 0 1 512 822.857143z m109.714286-292.571429a36.571429 36.571429 0 0 0 0-73.142857h-73.142857v-146.285714a36.571429 36.571429 0 0 0-73.142858 0V457.142857h-73.142857a36.571429 36.571429 0 0 0 0 73.142857h219.428572z"  horiz-adv-x="1024" />

    
    <glyph glyph-name="warning" unicode="&#58963;" d="M512-128A512 512 0 1 0 512 896a512 512 0 0 0 0-1024z m0 438.857143a36.571429 36.571429 0 0 1 36.571429 36.571428V603.4285709999999a36.571429 36.571429 0 1 1-73.142858 0v-256A36.571429 36.571429 0 0 1 512 310.85714299999995z m0-182.857143A54.857143 54.857143 0 1 1 512 237.71428600000002a54.857143 54.857143 0 0 1 0-109.714286z"  horiz-adv-x="1024" />

    
    <glyph glyph-name="data-sale" unicode="&#58961;" d="M558.115721 893.856744l39.173953-41.722046L648.82307 876.829767l30.862883-48.247069 55.200745 14.764651 21.504-53.105116 56.939162 4.334139 11.430698-56.20093 56.772465-6.239256 0.952558-57.367814 54.676838-16.598325-9.57321-56.55814 50.699907-26.409674-19.765581-53.819535 45.008372-35.316093-29.243535-49.27107L1012.057302 393.763721l-37.76893-43.008 29.243535-49.27107-45.008372-35.316093 19.765581-53.819535-50.699907-26.433488 9.57321-56.534326-54.676838-16.622139-0.952558-57.344-56.772465-6.239256-11.430698-56.20093-56.939162 4.357953-21.504-53.152744-55.200745 14.788465-30.862883-48.24707-51.533396 24.69507-39.173953-41.74586L511.964279-72.51348800000005l-46.151442-33.815814-39.173953 41.74586-51.533396-24.69507-30.862883 48.24707-55.200745-14.764651-21.504 53.105116-56.939162-4.334139-11.430698 56.20093-56.772465 6.239256-0.952558 57.344-54.676837 16.622139 9.573209 56.55814-50.699907 26.409674 19.765581 53.819535-45.008372 35.316093 29.243535 49.27107L11.871256 393.763721l37.76893 43.031814-29.243535 49.27107 45.008372 35.316093-19.765581 53.819535 50.699907 26.433488-9.573209 56.534326 54.676837 16.598325 0.952558 57.367814 56.772465 6.239256 11.430698 56.20093 56.939162-4.357953 21.504 53.12893 55.200745-14.764651L375.105488 876.829767l51.533396-24.695069L465.812837 893.856744 511.964279 860.064744l46.151442 33.815814zM282.635907 483.185116c-14.288372 0-14.288372 0-25.83814-4.286511s-11.549767-4.286512-19.527441-12.026047c-7.977674-7.739535-7.977674-7.739535-12.383256-18.574884s-4.405581-10.835349-4.405582-24.171162c0-13.335814 0-13.335814 4.167442-22.027907s4.167442-8.692093 10.954419-14.407442c6.786977-5.715349 6.786977-5.715349 15.47907-9.168372 8.692093-3.453023 8.692093-3.453023 17.741395-6.310698 7.620465-2.619535 7.620465-2.619535 12.978605-4.762791 5.35814-2.143256 5.35814-2.143256 8.692093-4.643721 3.333953-2.500465 3.333953-2.500465 4.76279-5.477209s1.428837-2.976744 1.428838-7.025116c0-6.667907 0-6.667907-5.59628-11.906977-5.596279-5.23907-5.596279-5.23907-17.026976-5.23907-10.00186 0-10.00186 0-20.241861 4.524651-8.192 3.619721-8.192 3.619721-16.526883 10.287628l-4.191256 3.524465-20.003721-37.626046c29.053023-20.24186 29.053023-20.24186 63.106977-20.24186 16.431628 0 16.431628 0 29.410232 4.405581 12.978605 4.405581 12.978605 4.405581 21.908837 12.383256s8.930233 7.977674 13.573954 19.170232c4.643721 11.192558 4.643721 11.192558 4.643721 25.004651 0 20.48 0 20.48-10.59721 33.220466s-10.597209 12.740465-33.458604 20.36093c-5.715349 1.905116-5.715349 1.905116-11.549768 3.572093-5.834419 1.666977-5.834419 1.666977-10.478139 3.929302s-4.643721 2.262326-7.501396 5.35814-2.857674 3.095814-2.857674 7.858604c0 6.906047 0 6.906047 5.715349 11.192558s5.715349 4.286512 14.764651 4.286512c7.144186 0 7.144186 0 14.764651-2.976744 5.715349-2.238512 5.715349-2.238512 11.430698-6.286884l3.810232-2.881488 18.574884 36.435349c-13.335814 7.144186-13.335814 7.144186-27.862325 10.835348-14.526512 3.691163-14.526512 3.691163-27.862326 3.691163z m194.56-5.00093H426.234047l-68.346047-179.557209h49.771163l10.716279 31.196279h66.67907l10.716279-31.196279h49.771162l-68.346046 179.557209z m135.501395 0h-46.675349v-179.557209h102.63814v39.531163h-55.962791v140.026046z m182.176745 0h-102.161861v-179.557209h102.161861v39.531163h-55.486512v30.958139h52.390698v39.531163h-52.390698v30.005581h55.486512v39.531163z m-343.15907-53.105116l20.956279-59.773023h-41.912558l20.956279 59.773023z"  horiz-adv-x="1024" />

    
    <glyph glyph-name="data-sale-7d" unicode="&#58891;" d="M559.250286 893.805714l40.228571-41.764571L652.141714 876.446476l31.890286-48.444952 56.222476 14.311619 22.430476-53.467429 57.880381 3.730286 12.239238-56.685714 57.58781-6.948572 1.609143-58.002285 55.344762-17.408-9.069715-57.295239 51.175619-27.282285-19.456-54.637715 45.29981-36.230095-29.135238-50.151619L1024 384l-37.863619-43.934476 29.135238-50.151619-45.299809-36.230095 19.456-54.637715-51.2-27.306666 9.094095-57.295239-55.344762-17.383619-1.609143-58.002285-57.58781-6.948572-12.239238-56.685714-57.880381 3.730286-22.430476-53.467429-56.222476 14.311619-31.890286-48.444952-52.614095 24.380952-40.252952-41.74019L512-92.15999999999997l-47.250286-33.645714-40.228571 41.764571-52.638476-24.405333-31.890286 48.444952-56.222476-14.311619-22.430476 53.467429-57.880381-3.730286-12.239238 56.685714-57.58781 6.948572-1.609143 58.002285-55.344762 17.408 9.069715 57.295239-51.17562 27.282285 19.456 54.637715-45.299809 36.230095 29.135238 50.151619L0 384l37.863619 43.934476-29.135238 50.151619 45.299809 36.230095-19.456 54.637715 51.2 27.306666-9.094095 57.295239 55.344762 17.383619 1.609143 58.002285 57.58781 6.948572 12.239238 56.685714 57.880381-3.730286 22.430476 53.467429 56.222476-14.311619L371.882667 876.446476l52.614095-24.380952L464.749714 893.805714 512 860.16 559.250286 893.805714z m-93.842286-601.673143l-2.29181-2.438095c0.682667-12.068571 0.999619-22.79619 0.99962-32.134095 0-11.654095-0.195048-22.089143-0.633905-31.305143l-0.365715-6.680381 11.702858-0.999619 1.170285 1.292191c1.414095 15.238095 2.925714 24.697905 4.559238 28.42819a7.43619 7.43619 0 0 0 3.998477 4.144762c2.706286 0.999619 9.99619 1.560381 21.894095 1.682286h4.681143l25.575619-0.121905 29.013333-0.146286 1.414095-2.291809-25.721904-45.568a5528.30781 5528.30781 0 0 0-38.765715-66.56c-6.41219-10.727619-13.165714-21.820952-20.284952-33.28l-7.216762-11.580953 1.414095-4.291047c6.753524 0.75581 12.288 1.145905 16.579048 1.145904 3.803429 0 9.557333-0.390095 17.286095-1.145904 6.290286 18.67581 17.846857 46.031238 34.718476 82.066285a1307.160381 1307.160381 0 0 0 43.105524 84.187429l11.605333 20.309333v13.726476c-18.968381-0.560762-35.157333-0.853333-48.566857-0.853333a1508.449524 1508.449524 0 0 0-64.853333 1.365333l-21.016381 1.048381zM793.6 384h-560.761905v-24.380952h560.761905v24.380952zM290.620952 627.809524c-9.752381 0-18.578286-1.462857-26.453333-4.388572-7.875048-2.925714-14.555429-7.021714-19.992381-12.312381a55.003429 55.003429 0 0 1-12.678095-19.017142 65.145905 65.145905 0 0 1-4.510476-24.746667c0-9.094095 1.414095-16.62781 4.266666-22.552381 2.852571-5.924571 6.582857-10.849524 11.215238-14.750476 4.632381-3.900952 9.923048-7.021714 15.847619-9.386667 5.924571-2.364952 11.995429-4.510476 18.16381-6.460952 5.193143-1.77981 9.630476-3.413333 13.287619-4.876191 3.657143-1.462857 6.631619-3.047619 8.899048-4.754285 2.267429-1.706667 3.900952-3.584 4.87619-5.60762 0.975238-2.023619 1.462857-4.437333 1.462857-7.19238a16.335238 16.335238 0 0 0-5.729524-12.190477c-3.82781-3.584-9.630476-5.36381-17.43238-5.363809-6.826667 0-13.726476 1.536-20.72381 4.632381a77.604571 77.604571 0 0 0-16.920381 10.532571l-4.291048 3.608381L219.428571 454.460952c19.821714-13.824 41.374476-20.72381 64.609524-20.723809 11.215238 0 21.26019 1.511619 30.110476 4.510476a64.121905 64.121905 0 0 1 22.430477 12.678095c6.095238 5.436952 10.727619 11.995429 13.897142 19.626667 3.169524 7.631238 4.754286 16.164571 4.754286 25.6 0 13.970286-3.608381 25.307429-10.849524 34.011429-7.241143 8.704-18.651429 15.652571-34.255238 20.845714-3.900952 1.29219-7.850667 2.511238-11.824762 3.657143a65.731048 65.731048 0 0 0-10.727619 4.022857 25.502476 25.502476 0 0 0-7.68 5.485714 11.410286 11.410286 0 0 0-2.925714 8.045714c0 4.705524 1.950476 8.533333 5.851429 11.459048 3.900952 2.925714 8.94781 4.388571 15.11619 4.388571 4.87619 0 9.923048-1.024 15.116191-3.047619 3.900952-1.536 7.801905-3.657143 11.702857-6.41219l3.900952-2.974476 19.017143 37.302857a125.805714 125.805714 0 0 1-28.525714 11.093333A115.809524 115.809524 0 0 1 290.620952 627.809524z m199.192381-5.12h-52.175238l-69.973333-183.832381h50.95619l10.971429 31.939047h68.266667l10.971428-31.939047h50.956191l-69.973334 183.832381z m138.727619 0h-47.786666v-183.832381h105.081904v40.472381h-57.295238v143.36z m186.514286 0h-104.594286v-183.832381h104.594286v40.472381H758.247619v31.695238h53.638095v40.472381h-53.638095v30.72h56.807619v40.472381z m-351.329524-54.369524l21.455238-61.19619h-42.910476l21.455238 61.19619z"  horiz-adv-x="1024" />

    
    <glyph glyph-name="data-sun-black" unicode="&#58892;" d="M559.250286 896l40.228571-41.764571 52.638476 24.380952 31.890286-48.420571 56.222476 14.311619 22.430476-53.49181 57.880381 3.754667 12.239238-56.710096 57.58781-6.948571 1.609143-57.977905 55.344762-17.408-9.069715-57.295238 51.17562-27.306666-19.456-54.613334 45.299809-36.254476-29.135238-50.127238L1024 386.194286l-37.863619-43.934476 29.135238-50.15162-45.299809-36.230095 19.456-54.637714-51.2-27.306667 9.094095-57.295238-55.344762-17.408-1.609143-57.977905-57.58781-6.948571-12.239238-56.710095-57.880381 3.754666-22.430476-53.491809-56.222476 14.311619-31.890286-48.444952-52.614095 24.405333-40.252952-41.764572L512-89.96571400000005l-47.250286-33.645715-40.228571 41.764572-52.638476-24.380953-31.890286 48.420572-56.222476-14.311619-22.430476 53.491809-57.880381-3.754666-12.239238 56.710095-57.58781 6.948571-1.609143 57.977905-55.344762 17.432381 9.069715 57.295238-51.17562 27.282286 19.456 54.613333-45.299809 36.254476 29.135238 50.151619L0 386.194286l37.863619 43.934476-29.135238 50.127238 45.299809 36.230095-19.456 54.662095 51.2 27.282286-9.094095 57.295238 55.344762 17.408 1.609143 57.977905 57.58781 6.948571 12.239238 56.710096 57.880381-3.754667 22.430476 53.49181 56.222476-14.311619L371.882667 878.640762l52.614095-24.405333L464.749714 896 512 862.354286 559.250286 896zM512 191.14666699999998c-13.507048 0-24.380952-9.069714-24.380952-20.333715v-81.261714l0.170666-2.364952c1.389714-10.142476 11.678476-17.944381 24.210286-17.944381 13.507048 0 24.380952 9.069714 24.380952 20.309333v81.261714l-0.170666 2.389334c-1.389714 10.118095-11.678476 17.944381-24.210286 17.944381z m-120.685714 49.980952c-9.532952 9.532952-23.649524 10.825143-31.597715 2.876952L302.250667 186.51428599999997l-1.682286-1.950476c-6.022095-8.143238-4.266667-20.845714 4.559238-29.67162 9.532952-9.532952 23.649524-10.825143 31.597714-2.876952l57.465905 57.465905 1.682286 1.950476c6.022095 8.167619 4.266667 20.870095-4.559238 29.671619z m271.043047 4.534857c-8.167619 6.046476-20.870095 4.266667-29.671619-4.534857-9.557333-9.557333-10.825143-23.649524-2.876952-31.622095l57.465905-57.465905 1.950476-1.657905c8.143238-6.046476 20.845714-4.266667 29.647238 4.534857 9.557333 9.557333 10.825143 23.649524 2.876952 31.622096l-57.465904 57.465904zM512 532.48a158.47619 158.47619 0 1 1 0-316.976762 158.47619 158.47619 0 0 1 0 316.952381z m0-48.761905c60.464762 0 109.714286-49.249524 109.714286-109.714285s-49.249524-109.714286-109.714286-109.714286-109.714286 49.249524-109.714286 109.714286 49.249524 109.714286 109.714286 109.714285z m272.262095-97.523809h-81.286095l-2.364952-0.170667c-10.118095-1.414095-17.944381-11.702857-17.944381-24.210286 0-13.507048 9.069714-24.380952 20.309333-24.380952h81.286095l2.364953 0.146286c10.118095 1.414095 17.944381 11.702857 17.944381 24.234666 0 13.482667-9.069714 24.380952-20.309334 24.380953z m-463.238095 0H239.737905l-2.364953-0.170667c-10.118095-1.414095-17.944381-11.702857-17.944381-24.210286 0-13.507048 9.069714-24.380952 20.309334-24.380952h81.286095l2.364952 0.146286c10.118095 1.414095 17.944381 11.702857 17.944381 24.234666 0 13.482667-9.069714 24.380952-20.309333 24.380953z m416.914286 187.196952c-9.508571 9.532952-23.649524 10.825143-31.597715 2.876952l-57.465904-57.465904-1.657905-1.950476c-6.046476-8.167619-4.266667-20.845714 4.534857-29.67162 9.557333-9.532952 23.649524-10.825143 31.622095-2.876952l57.465905 57.465905 1.657905 1.950476c6.046476 8.167619 4.266667 20.845714-4.534857 29.671619z m-422.229334 4.534857c-8.167619 6.046476-20.845714 4.266667-29.671619-4.534857-9.532952-9.557333-10.825143-23.649524-2.876952-31.622095l57.465905-57.465905 1.950476-1.657905c8.167619-6.046476 20.845714-4.266667 29.671619 4.534857 9.532952 9.557333 10.825143 23.649524 2.876952 31.622096l-57.465904 57.465904zM512 678.765714c-13.507048 0-24.380952-9.069714-24.380952-20.333714v-81.261714l0.170666-2.364953c1.389714-10.142476 11.678476-17.944381 24.210286-17.944381 13.507048 0 24.380952 9.069714 24.380952 20.309334V658.432l-0.170666 2.389333c-1.389714 10.118095-11.678476 17.944381-24.210286 17.944381z"  horiz-adv-x="1024" />

    
    <glyph glyph-name="data-mid" unicode="&#58894;" d="M559.250286 893.805714l40.228571-41.764571L652.141714 876.446476l31.890286-48.444952 56.222476 14.311619 22.430476-53.467429 57.880381 3.730286 12.239238-56.685714 57.58781-6.948572 1.609143-58.002285 55.344762-17.408-9.069715-57.295239 51.175619-27.282285-19.456-54.637715 45.29981-36.230095-29.135238-50.151619L1024 384l-37.863619-43.934476 29.135238-50.151619-45.299809-36.230095 19.456-54.637715-51.2-27.306666 9.094095-57.295239-55.344762-17.383619-1.609143-58.002285-57.58781-6.948572-12.239238-56.685714-57.880381 3.730286-22.430476-53.467429-56.222476 14.311619-31.890286-48.444952-52.614095 24.380952-40.252952-41.74019L512-92.15999999999997l-47.250286-33.645714-40.228571 41.764571-52.638476-24.405333-31.890286 48.444952-56.222476-14.311619-22.430476 53.467429-57.880381-3.730286-12.239238 56.685714-57.58781 6.948572-1.609143 58.002285-55.344762 17.408 9.069715 57.295239-51.17562 27.282285 19.456 54.637715-45.299809 36.230095 29.135238 50.151619L0 384l37.863619 43.934476-29.135238 50.151619 45.299809 36.230095-19.456 54.637715 51.2 27.306666-9.094095 57.295239 55.344762 17.383619 1.609143 58.002285 57.58781 6.948572 12.239238 56.685714 57.880381-3.730286 22.430476 53.467429 56.222476-14.311619L371.882667 876.446476l52.614095-24.380952L464.749714 893.805714 512 860.16 559.250286 893.805714z m168.96-405.357714H295.814095A236.641524 236.641524 0 0 1 292.571429 449.340952V213.33333300000004a48.761905 48.761905 0 0 1 48.761904-48.761904h341.333334a48.761905 48.761905 0 0 1 48.761904 48.761904v236.251429c0 13.06819-1.072762 26.063238-3.218285 38.863238z m-37.351619-70.460952V262.095238h-30.671238v14.872381h-0.487619l-2.316191-3.315809c-7.314286-9.411048-17.554286-14.140952-30.622476-14.140953-13.409524 0-24.039619 4.754286-31.939048 14.214095-7.92381 9.45981-11.873524 22.332952-11.873524 38.64381 0 17.286095 4.437333 31.207619 13.287619 41.764571 8.850286 10.581333 20.431238 15.847619 34.718477 15.847619 13.702095 0 23.30819-4.924952 28.769523-14.848h0.48762v62.878477h30.646857z m-311.149715-8.362667l31.817143-89.136762 1.828572-5.461333c1.706667-5.36381 2.876952-10.459429 3.608381-15.311238h0.658285l1.462857 5.851428c1.511619 5.632 3.047619 10.678857 4.632381 15.116191l31.890286 88.941714h44.495238V262.095238h-31.061333v89.526857l0.048762 4.291048c0.097524 7.484952 0.487619 16.432762 1.219047 26.843428h-0.78019l-0.804571-3.85219a132.632381 132.632381 0 0 0-3.779048-15.116191L428.568381 262.095238h-25.039238l-36.864 100.766476-0.365714 1.097143a259.657143 259.657143 0 0 0-4.291048 18.797714h-0.877714l0.707047-12.385523c0.365714-8.289524 0.536381-16.554667 0.536381-24.868572V262.095238H334.019048v147.504762h45.714285z m182.00381-42.179048V262.095238h-30.671238v105.325714h30.671238z m76.483048-21.065143a20.601905 20.601905 0 0 1-17.676191-8.899047c-4.291048-5.948952-6.436571-13.994667-6.436571-24.137143 0-9.654857 2.072381-17.115429 6.192762-22.332952 4.144762-5.241905 9.825524-7.875048 17.066666-7.875048a20.48 20.48 0 0 1 16.749714 8.289524c4.388571 5.534476 6.582857 12.702476 6.582858 21.528381v8.777143l-0.195048 3.437714a24.210286 24.210286 0 0 1-6.241524 14.214095 20.894476 20.894476 0 0 1-16.042666 6.997333z m-91.62362 70.948572c5.339429 0 9.654857-1.511619 12.946286-4.510476 3.31581-3.023238 4.949333-6.826667 4.949334-11.385905 0-4.632381-1.682286-8.484571-5.046858-11.580952a18.285714 18.285714 0 0 0-12.848762-4.632381 18.066286 18.066286 0 0 0-12.751238 4.681142 15.067429 15.067429 0 0 0-5.046857 11.532191 14.628571 14.628571 0 0 0 4.998095 11.459048 18.602667 18.602667 0 0 0 12.8 4.437333z m-45.763047 186.12419L356.498286 603.4285709999999a24.380952 24.380952 0 0 1-21.869715-13.604571L316.952381 553.9839999999999a236.641524 236.641524 0 0 1-15.701333-41.155048h198.607238L500.809143 603.4285709999999z m24.380952 0l-0.975238-90.624h198.582857a235.934476 235.934476 0 0 1-15.750095 41.20381l-17.67619 35.815619a24.380952 24.380952 0 0 1-21.869715 13.58019h-142.311619z"  horiz-adv-x="1024" />

    
    <glyph glyph-name="data-inventory" unicode="&#58896;" d="M559.250286 893.805714l40.228571-41.764571L652.141714 876.446476l31.890286-48.444952 56.222476 14.311619 22.430476-53.467429 57.880381 3.730286 12.239238-56.685714 57.58781-6.948572 1.609143-58.002285 55.344762-17.408-9.069715-57.295239 51.175619-27.282285-19.456-54.637715 45.29981-36.230095-29.135238-50.151619L1024 384l-37.863619-43.934476 29.135238-50.151619-45.299809-36.230095 19.456-54.637715-51.2-27.306666 9.094095-57.295239-55.344762-17.383619-1.609143-58.002285-57.58781-6.948572-12.239238-56.685714-57.880381 3.730286-22.430476-53.467429-56.222476 14.311619-31.890286-48.444952-52.614095 24.380952-40.252952-41.74019L512-92.15999999999997l-47.250286-33.645714-40.228571 41.764571-52.638476-24.405333-31.890286 48.444952-56.222476-14.311619-22.430476 53.467429-57.880381-3.730286-12.239238 56.685714-57.58781 6.948572-1.609143 58.002285-55.344762 17.408 9.069715 57.295239-51.17562 27.282285 19.456 54.637715-45.299809 36.230095 29.135238 50.151619L0 384l37.863619 43.934476-29.135238 50.151619 45.299809 36.230095-19.456 54.637715 51.2 27.306666-9.094095 57.295239 55.344762 17.383619 1.609143 58.002285 57.58781 6.948572 12.239238 56.685714 57.880381-3.730286 22.430476 53.467429 56.222476-14.311619L371.882667 876.446476l52.614095-24.380952L464.749714 893.805714 512 860.16 559.250286 893.805714zM460.214857 359.619048H222.47619l-0.53638-1.097143a24.380952 24.380952 0 0 1-2.511239-10.776381V188.95238099999995a24.380952 24.380952 0 0 1 24.380953-24.380952h195.047619a24.380952 24.380952 0 0 1 24.380952 24.380952v158.866286a24.380952 24.380952 0 0 1-2.511238 10.800762L460.214857 359.619048z m341.333333 0h-237.738666l-0.536381-1.097143a24.380952 24.380952 0 0 1-2.511238-10.776381V188.95238099999995a24.380952 24.380952 0 0 1 24.380952-24.380952h195.047619a24.380952 24.380952 0 0 1 24.380953 24.380952v158.866286a24.380952 24.380952 0 0 1-2.511239 10.800762L801.54819 359.619048z m-472.112761 48.761904h-67.754667a24.380952 24.380952 0 0 1-21.869714-13.604571L234.496 384h104.009143l-9.362286 0.121905 0.292572 24.259047z m91.550476 0h-67.169524l-0.316952-24.380952h94.695619l-5.339429 10.800762a24.380952 24.380952 0 0 1-21.869714 13.58019z m249.782857 0h-67.754667a24.380952 24.380952 0 0 1-21.869714-13.604571l-5.315048-10.776381h104.009143l-9.362286 0.121905 0.292572 24.259047z m91.550476 0h-67.169524l-0.316952-24.380952h94.695619l-5.339429 10.800762a24.380952 24.380952 0 0 1-21.869714 13.58019z m-131.437714 219.428572h-237.738667l-0.536381-1.097143a24.380952 24.380952 0 0 1-2.511238-10.776381V457.142857a24.380952 24.380952 0 0 1 24.380952-24.380952h195.04762a24.380952 24.380952 0 0 1 24.380952 24.380952v158.866286a24.380952 24.380952 0 0 1-2.511238 10.800762L630.881524 627.809524z m-130.779429 48.761905h-67.754666a24.380952 24.380952 0 0 1-21.869715-13.604572l-5.315047-10.776381h104.009143l-9.362286 0.121905 0.292571 24.259048z m91.550476 0h-67.169523l-0.316953-24.380953h94.695619l-5.339428 10.800762A24.380952 24.380952 0 0 1 591.652571 676.571429z"  horiz-adv-x="1024" />

    
    <glyph glyph-name="data-sale-x" unicode="&#58904;" d="M559.250286 893.805714l40.228571-41.764571L652.141714 876.446476l31.890286-48.444952 56.222476 14.311619 22.430476-53.467429 57.880381 3.730286 12.239238-56.685714 57.58781-6.948572 1.609143-58.002285 55.344762-17.408-9.069715-57.295239 51.175619-27.282285-19.456-54.637715 45.29981-36.230095-29.135238-50.151619L1024 384l-37.863619-43.934476 29.135238-50.151619-45.299809-36.230095 19.456-54.637715-51.2-27.306666 9.094095-57.295239-55.344762-17.383619-1.609143-58.002285-57.58781-6.948572-12.239238-56.685714-57.880381 3.730286-22.430476-53.467429-56.222476 14.311619-31.890286-48.444952-52.614095 24.380952-40.252952-41.74019L512-92.15999999999997l-47.250286-33.645714-40.228571 41.764571-52.638476-24.405333-31.890286 48.444952-56.222476-14.311619-22.430476 53.467429-57.880381-3.730286-12.239238 56.685714-57.58781 6.948572-1.609143 58.002285-55.344762 17.408 9.069715 57.295239-51.17562 27.282285 19.456 54.637715-45.299809 36.230095 29.135238 50.151619L0 384l37.863619 43.934476-29.135238 50.151619 45.299809 36.230095-19.456 54.637715 51.2 27.306666-9.094095 57.295239 55.344762 17.383619 1.609143 58.002285 57.58781 6.948572 12.239238 56.685714 57.880381-3.730286 22.430476 53.467429 56.222476-14.311619L371.882667 876.446476l52.614095-24.380952L464.749714 893.805714 512 860.16 559.250286 893.805714zM470.016 262.095238c-1.633524 0-3.730286-0.902095-6.290286-2.706286-8.192-5.87581-15.311238-10.48381-21.357714-13.848381l-3.510857-1.877333v-9.142857l3.998476 0.146286c5.607619 0 10.630095-1.950476 14.994286-5.851429 7.801905-6.92419 17.993143-19.72419 30.573714-38.375619l3.852191-5.778286-15.286858-19.260952c-11.215238-14.384762-18.944-23.161905-23.137523-26.307048-2.29181-1.584762-6.144-2.779429-11.556572-3.559619L438.857143 135.07047599999999v-11.849143c5.241905 0.560762 9.654857 0.853333 13.287619 0.853334 3.145143 0 8.43581-0.292571 15.847619-0.853334 8.094476 13.409524 19.139048 29.42781 33.158095 47.981715 14.457905-23.405714 23.649524-37.64419 27.550476-42.715429 2.29181-2.779429 5.022476-5.36381 8.167619-7.704381l3.267048-2.291809h4.437333c8.777143 3.925333 17.16419 7.41181 25.161143 10.435047l7.826286 2.852572v9.020952a22.016 22.016 0 0 0-13.55581 5.12c-3.169524 2.80381-10.093714 12.190476-20.845714 28.184381l-3.023238 4.534857-15.286857 22.869333 29.159619 34.279619c3.998476 4.559238 7.241143 7.484952 9.703619 8.777143 1.974857 1.024 4.87619 1.828571 8.679619 2.413715l3.047619 0.365714v11.727238c-5.729524-0.487619-11.142095-0.731429-16.286476-0.731429-3.82781 0-7.777524 0.24381-11.873524 0.731429-8.289524-13.165714-16.603429-25.380571-24.917333-36.62019l-6.217143-8.240762-13.726476 20.284952c-7.143619 10.678857-12.751238 17.529905-16.847238 20.577524-6.192762 4.656762-11.385905 6.997333-15.579429 6.997333z m323.584 97.52381h-560.761905v-24.380953h560.761905v24.380953zM290.620952 627.809524c-9.752381 0-18.578286-1.462857-26.453333-4.388572-7.875048-2.925714-14.555429-7.021714-19.992381-12.312381a55.003429 55.003429 0 0 1-12.678095-19.017142 65.145905 65.145905 0 0 1-4.510476-24.746667c0-9.094095 1.414095-16.62781 4.266666-22.552381 2.852571-5.924571 6.582857-10.849524 11.215238-14.750476 4.632381-3.900952 9.923048-7.021714 15.847619-9.386667 5.924571-2.364952 11.995429-4.510476 18.16381-6.460952 5.193143-1.77981 9.630476-3.413333 13.287619-4.876191 3.657143-1.462857 6.631619-3.047619 8.899048-4.754285 2.267429-1.706667 3.900952-3.584 4.87619-5.60762 0.975238-2.023619 1.462857-4.437333 1.462857-7.19238a16.335238 16.335238 0 0 0-5.729524-12.190477c-3.82781-3.584-9.630476-5.36381-17.43238-5.363809-6.826667 0-13.726476 1.536-20.72381 4.632381a77.604571 77.604571 0 0 0-16.920381 10.532571l-4.291048 3.608381L219.428571 454.460952c19.821714-13.824 41.374476-20.72381 64.609524-20.723809 11.215238 0 21.26019 1.511619 30.110476 4.510476a64.121905 64.121905 0 0 1 22.430477 12.678095c6.095238 5.436952 10.727619 11.995429 13.897142 19.626667 3.169524 7.631238 4.754286 16.164571 4.754286 25.6 0 13.970286-3.608381 25.307429-10.849524 34.011429-7.241143 8.704-18.651429 15.652571-34.255238 20.845714-3.900952 1.29219-7.850667 2.511238-11.824762 3.657143a65.731048 65.731048 0 0 0-10.727619 4.022857 25.502476 25.502476 0 0 0-7.68 5.485714 11.410286 11.410286 0 0 0-2.925714 8.045714c0 4.705524 1.950476 8.533333 5.851429 11.459048 3.900952 2.925714 8.94781 4.388571 15.11619 4.388571 4.87619 0 9.923048-1.024 15.116191-3.047619 3.900952-1.536 7.801905-3.657143 11.702857-6.41219l3.900952-2.974476 19.017143 37.302857a125.805714 125.805714 0 0 1-28.525714 11.093333A115.809524 115.809524 0 0 1 290.620952 627.809524z m199.192381-5.12h-52.175238l-69.973333-183.832381h50.95619l10.971429 31.939047h68.266667l10.971428-31.939047h50.956191l-69.973334 183.832381z m138.727619 0h-47.786666v-183.832381h105.081904v40.472381h-57.295238v143.36z m186.514286 0h-104.594286v-183.832381h104.594286v40.472381H758.247619v31.695238h53.638095v40.472381h-53.638095v30.72h56.807619v40.472381z m-351.329524-54.369524l21.455238-61.19619h-42.910476l21.455238 61.19619z"  horiz-adv-x="1024" />

    
    <glyph glyph-name="data-footmark" unicode="&#58906;" d="M559.250286 893.805714l40.228571-41.764571L652.141714 876.446476l31.890286-48.444952 56.222476 14.311619 22.430476-53.467429 57.880381 3.730286 12.239238-56.685714 57.58781-6.948572 1.609143-58.002285 55.344762-17.408-9.069715-57.295239 51.175619-27.282285-19.456-54.637715 45.29981-36.230095-29.135238-50.151619L1024 384l-37.863619-43.934476 29.135238-50.151619-45.299809-36.230095 19.456-54.637715-51.2-27.306666 9.094095-57.295239-55.344762-17.383619-1.609143-58.002285-57.58781-6.948572-12.239238-56.685714-57.880381 3.730286-22.430476-53.467429-56.222476 14.311619-31.890286-48.444952-52.614095 24.380952-40.252952-41.74019L512-92.15999999999997l-47.250286-33.645714-40.228571 41.764571-52.638476-24.405333-31.890286 48.444952-56.222476-14.311619-22.430476 53.467429-57.880381-3.730286-12.239238 56.685714-57.58781 6.948572-1.609143 58.002285-55.344762 17.408 9.069715 57.295239-51.17562 27.282285 19.456 54.637715-45.299809 36.230095 29.135238 50.151619L0 384l37.863619 43.934476-29.135238 50.151619 45.299809 36.230095-19.456 54.637715 51.2 27.306666-9.094095 57.295239 55.344762 17.383619 1.609143 58.002285 57.58781 6.948572 12.239238 56.685714 57.880381-3.730286 22.430476 53.467429 56.222476-14.311619L371.882667 876.446476l52.614095-24.380952L464.749714 893.805714 512 860.16 559.250286 893.805714z m-4.998096-417.938285c-102.351238 24.771048-135.143619-22.79619-148.187428-38.521905-13.04381-15.725714-22.089143-55.271619-8.240762-81.456762 28.818286-51.321905 50.005333-17.554286 76.653714-62.902857s-29.257143-101.059048 16.042667-133.948953c45.348571-32.865524 95.329524-16.335238 141.116952 57.660953 45.787429 74.020571 24.966095 234.398476-77.385143 259.169524zM347.428571 591.2380949999999a67.047619 67.047619 0 1 1 0-134.095238 67.047619 67.047619 0 0 1 0 134.095238z m310.857143-73.142857a24.380952 24.380952 0 1 1 0-48.761905 24.380952 24.380952 0 0 1 0 48.761905zM572.952381 579.0476189999999a36.571429 36.571429 0 1 1 0-73.142857 36.571429 36.571429 0 0 1 0 73.142857z m-97.52381 0a36.571429 36.571429 0 1 1 0-73.142857 36.571429 36.571429 0 0 1 0 73.142857z"  horiz-adv-x="1024" />

    
    <glyph glyph-name="data-price-field" unicode="&#58907;" d="M559.250286 893.805714l40.228571-41.764571L652.141714 876.446476l31.890286-48.444952 56.222476 14.311619 22.430476-53.467429 57.880381 3.730286 12.239238-56.685714 57.58781-6.948572 1.609143-58.002285 55.344762-17.408-9.069715-57.295239 51.175619-27.282285-19.456-54.637715 45.29981-36.230095-29.135238-50.151619L1024 384l-37.863619-43.934476 29.135238-50.151619-45.299809-36.230095 19.456-54.637715-5.851429-3.120762a207.238095 207.238095 0 0 0-307.126857-267.410285l-24.332191-36.961524-52.614095 24.380952-40.252952-41.74019L512-92.15999999999997l-47.250286-33.645714-40.228571 41.764571-52.638476-24.405333-31.890286 48.444952-56.222476-14.311619-22.430476 53.467429-57.880381-3.730286-12.239238 56.685714-57.58781 6.948572-1.609143 58.002285-55.344762 17.408 9.069715 57.295239-51.17562 27.282285 19.456 54.637715-45.299809 36.230095 29.135238 50.151619L0 384l37.863619 43.934476-29.135238 50.151619 45.299809 36.230095-19.456 54.637715 51.2 27.306666-9.094095 57.295239 55.344762 17.383619 1.609143 58.002285 57.58781 6.948572 12.239238 56.685714 57.880381-3.730286 22.430476 53.467429 56.222476-14.311619L371.882667 876.446476l52.614095-24.380952L464.749714 893.805714 512 860.16 559.250286 893.805714zM804.571429 274.285714a182.857143 182.857143 0 1 1 0-365.714285 182.857143 182.857143 0 0 1 0 365.714285z m101.839238-60.952381v-25.307428a715.093333 715.093333 0 0 0-73.947429-57.368381H926.47619c-1.852952-68.608-5.290667-112.761905-10.044952-131.900953-4.729905-19.114667-17.67619-28.672-38.814476-29.232761-8.704 0-17.16419 0.560762-25.356191 1.121523l-7.631238 28.135619c9.752381-1.145905 19.529143-1.706667 29.013334-1.706666 8.484571 0.292571 14.555429 4.778667 17.968762 13.214476 3.169524 6.753524 5.558857 38.521905 7.143619 95.061333h-11.629715c-6.339048-32.621714-15.579429-58.514286-27.184762-77.336381-13.726476-21.382095-34.328381-40.472381-61.805714-57.368381l-17.16419 23.332572c24.30781 14.06781 42.788571 29.817905 55.466666 47.250285 10.825143 16.335238 19.017143 37.692952 24.283429 64.121905h-13.994667c-9.508571-34.864762-25.86819-62.171429-49.103238-82.115047L780.190476 46.00685699999997c18.748952 15.481905 32.207238 35.157333 40.667429 59.343238h-35.108572v26.721524a806.448762 806.448762 0 0 1 79.725715 54.540191H789.699048V213.33333300000004h116.711619z m-159.012572 0v-64.804571H780.190476v-27.160381h-32.792381v-83.626667a737.03619 737.03619 0 0 1 31.939048 10.48381v-29.305905A767.561143 767.561143 0 0 0 690.712381-6.095237999999995L682.666667 23.74704799999995c11.50781 1.609143 22.723048 3.779048 34.230857 6.192762v91.428571h-31.353905v27.160381h31.353905V213.33333300000004h30.47619z m-19.187809 275.114667H295.814095a236.641524 236.641524 0 0 1-3.047619-29.257143L292.571429 449.340952V213.33333300000004a48.761905 48.761905 0 0 1 45.104761-48.64L341.333333 164.57142899999997h269.287619a207.872 207.872 0 0 0 120.783238 120.807619L731.428571 449.584762c0 13.06819-1.072762 26.063238-3.218285 38.863238z m-243.882667-60.903619l28.208762-55.832381 30.037333 55.832381h42.325334l-43.349334-68.022857h43.836953v-30.524953h-56.880762l-1.828572-2.852571v-15.530667h58.197334v-30.524952h-58.197334v-47.591619h-28.281904v47.591619h-59.270096V310.613333h59.294477v15.530667l-1.584762 2.852571h-57.222096v30.524953h41.276953l-41.788953 68.022857h45.226667z m16.481524 175.908571L356.498286 603.4285709999999a24.380952 24.380952 0 0 1-20.333715-10.947047l-1.536-2.657524-17.67619-35.84a236.641524 236.641524 0 0 1-13.190095-32.743619l-2.511238-8.411429h198.607238L500.809143 603.4285709999999z m24.380952 0l-0.975238-90.624h198.582857a235.934476 235.934476 0 0 1-11.971047 33.206858L707.047619 554.057143l-17.67619 35.791238a24.380952 24.380952 0 0 1-18.797715 13.409524L667.501714 603.4285709999999h-142.311619z"  horiz-adv-x="1024" />

    
    <glyph glyph-name="data-price" unicode="&#58908;" d="M559.250286 893.805714l40.228571-41.764571L652.141714 876.446476l31.890286-48.444952 56.222476 14.311619 22.430476-53.467429 57.880381 3.730286 12.239238-56.685714 57.58781-6.948572 1.609143-58.002285 55.344762-17.408-9.069715-57.295239 51.175619-27.282285-19.456-54.637715 45.29981-36.230095-29.135238-50.151619L1024 384l-37.863619-43.934476 29.135238-50.151619-45.299809-36.230095 19.456-54.637715-51.2-27.306666 9.094095-57.295239-55.344762-17.383619-1.609143-58.002285-57.58781-6.948572-12.239238-56.685714-57.880381 3.730286-22.430476-53.467429-56.222476 14.311619-31.890286-48.444952-52.614095 24.380952-40.252952-41.74019L512-92.15999999999997l-47.250286-33.645714-40.228571 41.764571-52.638476-24.405333-31.890286 48.444952-56.222476-14.311619-22.430476 53.467429-57.880381-3.730286-12.239238 56.685714-57.58781 6.948572-1.609143 58.002285-55.344762 17.408 9.069715 57.295239-51.17562 27.282285 19.456 54.637715-45.299809 36.230095 29.135238 50.151619L0 384l37.863619 43.934476-29.135238 50.151619 45.299809 36.230095-19.456 54.637715 51.2 27.306666-9.094095 57.295239 55.344762 17.383619 1.609143 58.002285 57.58781 6.948572 12.239238 56.685714 57.880381-3.730286 22.430476 53.467429 56.222476-14.311619L371.882667 876.446476l52.614095-24.380952L464.749714 893.805714 512 860.16 559.250286 893.805714z m168.96-405.357714H295.814095A236.641524 236.641524 0 0 1 292.571429 449.340952V213.33333300000004a48.761905 48.761905 0 0 1 48.761904-48.761904h341.333334a48.761905 48.761905 0 0 1 48.761904 48.761904v236.251429c0 13.06819-1.072762 26.063238-3.218285 38.863238z m-243.882667-60.903619l28.208762-55.832381 30.037333 55.832381h42.325334l-43.349334-68.022857h43.836953v-30.524953h-56.880762l-1.828572-2.852571v-15.530667h58.197334v-30.524952h-58.197334v-47.591619h-28.281904v47.591619h-59.270096V310.613333h59.294477v15.530667l-1.584762 2.852571h-57.222096v30.524953h41.276953l-41.788953 68.022857h45.226667z m16.481524 175.908571L356.498286 603.4285709999999a24.380952 24.380952 0 0 1-21.869715-13.604571L316.952381 553.9839999999999a236.641524 236.641524 0 0 1-15.701333-41.155048h198.607238L500.809143 603.4285709999999z m24.380952 0l-0.975238-90.624h198.582857a235.934476 235.934476 0 0 1-15.750095 41.20381l-17.67619 35.815619a24.380952 24.380952 0 0 1-21.869715 13.58019h-142.311619z"  horiz-adv-x="1024" />

    
    <glyph glyph-name="data-inventory-field" unicode="&#58909;" d="M559.250286 896l40.228571-41.764571 52.638476 24.380952 31.890286-48.420571 56.222476 14.311619 22.430476-53.49181 57.880381 3.754667 12.239238-56.710096 57.58781-6.948571 1.609143-57.977905 55.344762-17.408-9.069715-57.295238 51.17562-27.306666-19.456-54.613334 45.299809-36.254476-29.135238-50.127238L1024 386.194286l-37.863619-43.934476 29.135238-50.15162-45.299809-36.230095 19.456-54.637714-6.826667-3.657143a207.238095 207.238095 0 0 0-307.078095-268.312381l-23.405715-35.547428-52.614095 24.405333-40.252952-41.764572L512-89.96571400000005l-47.250286-33.645715-40.228571 41.764572-52.638476-24.380953-31.890286 48.420572-56.222476-14.311619-22.430476 53.491809-57.880381-3.754666-12.239238 56.710095-57.58781 6.948571-1.609143 57.977905-55.344762 17.432381 9.069715 57.295238-51.17562 27.282286 19.456 54.613333-45.299809 36.254476 29.135238 50.151619L0 386.194286l37.863619 43.934476-29.135238 50.127238 45.299809 36.230095-19.456 54.662095 51.2 27.282286-9.094095 57.295238 55.344762 17.408 1.609143 57.977905 57.58781 6.948571 12.239238 56.710096 57.880381-3.754667 22.430476 53.49181 56.222476-14.311619L371.882667 878.640762l52.614095-24.405333L464.749714 896 512 862.354286 559.250286 896zM804.571429 274.285714a182.857143 182.857143 0 1 1 0-365.714285 182.857143 182.857143 0 0 1 0 365.714285z m101.839238-60.952381v-25.307428a715.093333 715.093333 0 0 0-73.947429-57.368381H926.47619c-1.852952-68.608-5.290667-112.761905-10.044952-131.900953-4.729905-19.114667-17.67619-28.672-38.814476-29.232761-8.704 0-17.16419 0.560762-25.356191 1.121523l-7.631238 28.135619c9.752381-1.145905 19.529143-1.706667 29.013334-1.706666 8.484571 0.292571 14.555429 4.778667 17.968762 13.214476 3.169524 6.753524 5.558857 38.521905 7.143619 95.061333h-11.629715c-6.339048-32.621714-15.579429-58.514286-27.184762-77.336381-13.726476-21.382095-34.328381-40.472381-61.805714-57.368381l-17.16419 23.332572c24.30781 14.06781 42.788571 29.817905 55.466666 47.250285 10.825143 16.335238 19.017143 37.692952 24.283429 64.121905h-13.994667c-9.508571-34.864762-25.86819-62.171429-49.103238-82.115047L780.190476 46.00685699999997c18.748952 15.481905 32.207238 35.157333 40.667429 59.343238h-35.108572v26.721524a806.448762 806.448762 0 0 1 79.725715 54.540191H789.699048V213.33333300000004h116.711619z m-159.012572 0v-64.804571H780.190476v-27.160381h-32.792381v-83.626667a737.03619 737.03619 0 0 1 31.939048 10.48381v-29.305905A767.561143 767.561143 0 0 0 690.712381-6.095237999999995L682.666667 23.74704799999995c11.50781 1.609143 22.723048 3.779048 34.230857 6.192762v91.428571h-31.353905v27.160381h31.353905V213.33333300000004h30.47619z m54.150095 148.48h-237.738666l-0.536381-1.121523a24.380952 24.380952 0 0 1-2.340572-7.972572l-0.170666-2.803809v-158.768762a24.380952 24.380952 0 0 1 21.528381-24.234667l2.852571-0.146286h26.307048a207.335619 207.335619 0 0 0 186.026666 131.779048L804.571429 298.66666699999996v51.346285a24.380952 24.380952 0 0 1-1.438477 8.216381l-1.072762 2.56-0.512 1.024z m-341.333333 0H222.47619l-0.53638-1.121523a24.380952 24.380952 0 0 1-2.340572-7.972572L219.428571 349.915429v-158.768762a24.380952 24.380952 0 0 1 21.528381-24.234667l2.852572-0.146286h195.047619a24.380952 24.380952 0 0 1 24.210286 21.528381L463.238095 191.14666699999998v158.866285a24.380952 24.380952 0 0 1-1.438476 8.216381l-1.072762 2.56-0.512 1.024z m-130.779428 48.761905h-67.754667a24.380952 24.380952 0 0 1-20.333714-10.971428l-1.536-2.633143-5.315048-10.776381h104.009143l-9.362286 0.121904 0.292572 24.259048z m91.550476 0h-67.169524l-0.316952-24.380952h94.695619l-5.339429 10.776381a24.380952 24.380952 0 0 1-21.869714 13.604571z m249.782857 0h-67.754667a24.380952 24.380952 0 0 1-20.333714-10.971428l-1.536-2.633143-5.315048-10.776381h104.009143l-9.362286 0.121904 0.292572 24.259048z m91.550476 0h-67.169524l-0.316952-24.380952h94.695619l-5.339429 10.776381a24.380952 24.380952 0 0 1-21.869714 13.604571z m-131.437714 219.428572h-237.738667l-0.536381-1.121524a24.380952 24.380952 0 0 1-2.340571-7.972572l-0.170667-2.803809v-158.768762a24.380952 24.380952 0 0 1 21.528381-24.234667l2.852571-0.146286h195.04762a24.380952 24.380952 0 0 1 24.210285 21.528381L633.904762 459.337143v158.866286a24.380952 24.380952 0 0 1-1.438476 8.216381l-1.072762 2.56-0.512 1.024z m-130.779429 48.761904h-67.754666a24.380952 24.380952 0 0 1-20.333715-10.971428l-1.536-2.633143-5.315047-10.776381h104.009143l-9.362286 0.121905 0.292571 24.259047z m91.550476 0h-67.169523l-0.316953-24.380952h94.695619l-5.339428 10.776381a24.380952 24.380952 0 0 1-21.869715 13.604571z"  horiz-adv-x="1024" />

    
    <glyph glyph-name="data-low-inventory" unicode="&#58910;" d="M559.250286 896l40.228571-41.764571 52.638476 24.380952 31.890286-48.420571 56.222476 14.311619 22.430476-53.49181 57.880381 3.754667 12.239238-56.710096 57.58781-6.948571 1.609143-57.977905 55.344762-17.408-9.069715-57.295238 51.17562-27.306666-19.456-54.613334 45.299809-36.254476-29.135238-50.127238L1024 386.194286l-37.863619-43.934476 29.135238-50.15162-45.299809-36.230095 19.456-54.637714-7.558096-4.022857a195.047619 195.047619 0 0 0-240.274285-266.069334l-1.365334-3.291428-56.222476 14.311619-31.890286-48.444952-52.614095 24.405333-40.252952-41.764572L512-89.96571400000005l-47.250286-33.645715-40.228571 41.764572-52.638476-24.380953-31.890286 48.420572-56.222476-14.311619-22.430476 53.491809-57.880381-3.754666-12.239238 56.710095-57.58781 6.948571-1.609143 57.977905-55.344762 17.432381 9.069715 57.295238-51.17562 27.282286 19.456 54.613333-45.299809 36.254476 29.135238 50.151619L0 386.194286l37.863619 43.934476-29.135238 50.127238 45.299809 36.230095-19.456 54.662095 51.2 27.282286-9.094095 57.295238 55.344762 17.408 1.609143 57.977905 57.58781 6.948571 12.239238 56.710096 57.880381-3.754667 22.430476 53.49181 56.222476-14.311619L371.882667 878.640762l52.614095-24.405333L464.749714 896 512 862.354286 559.250286 896zM853.333333 237.71428600000002v-146.285715h54.345143l-103.448381-103.448381L700.781714 91.42857100000003 755.809524 91.45295199999998 755.809524 237.71428600000002h97.523809z m-51.785143 124.099047h-237.738666l-0.536381-1.121523a24.380952 24.380952 0 0 1-2.340572-7.972572l-0.170666-2.803809v-158.768762a24.380952 24.380952 0 0 1 21.528381-24.234667l2.852571-0.146286h31.110095A195.120762 195.120762 0 0 0 804.571429 310.85714299999995v39.155809a24.380952 24.380952 0 0 1-1.438477 8.216381l-1.072762 2.56-0.512 1.024z m-341.333333 0H222.47619l-0.53638-1.121523a24.380952 24.380952 0 0 1-2.340572-7.972572L219.428571 349.915429v-158.768762a24.380952 24.380952 0 0 1 21.528381-24.234667l2.852572-0.146286h195.047619a24.380952 24.380952 0 0 1 24.210286 21.528381L463.238095 191.14666699999998v158.866285a24.380952 24.380952 0 0 1-1.438476 8.216381l-1.072762 2.56-0.512 1.024z m189.342476-317.488762l0.463238-0.999619 0.512-1.097142 0.487619-0.975239 2.243048-4.437333c1.852952-3.584 3.85219-7.094857 5.973333-10.532571l2.681905-4.217905 2.828191-4.144762 0.902095-1.29219-0.902095 1.29219c0.975238-1.389714 1.974857-2.779429 2.998857-4.144762l-1.170286 1.584762 1.365333-1.828571 0.24381-0.316953v-0.024381l0.219429-0.292571 1.04838-1.365334 0.121905-0.146285 0.365715-0.463238 1.511619-1.950477 0.731428-0.853333 0.682667-0.853333 0.390095-0.487619 1.852952-2.169905 0.804572-0.950857 1.316571-1.462857-0.804571 0.902095 0.804571-0.902095 2.169905-2.389334-1.584762 1.706667 1.828572-1.999238 1.80419-1.901714 0.073143-0.048762c1.121524-1.170286 2.243048-2.31619 3.388952-3.437715l-1.024 1.024 1.804191-1.779809 2.121143-2.048 4.169142-3.779048a171.593143 171.593143 0 0 1 5.680762-4.778666l1.145905-0.902096 1.316572-1.024 0.146285-0.121904 0.975238-0.731429 1.365334-1.048381 1.80419-1.316571 0.24381-0.170667 0.560762-0.414476 1.243428-0.877714 0.341334-0.24381 1.219047-0.877714 1.121524-0.731429-1.145905 0.75581 2.121143-1.414096 2.29181-1.511619-1.804191 1.170286c4.754286-3.120762 9.654857-6.022095 14.726095-8.679619l4.412953-2.243048 1.828571-0.877714 0.804572-0.365714-0.75581 0.365714 3.779048-1.755428c1.901714-0.853333 3.82781-1.657905 5.778285-2.438096l2.876953-1.121523 2.389333-0.902096a170.666667 170.666667 0 0 1 215.381333 226.937905l-1.511619 3.486476-2.56 5.436953a170.179048 170.179048 0 0 1-12.068571 20.675047l-0.512 0.731429-0.536381 0.78019-0.707048 0.999619-0.316952 0.487619a171.27619 171.27619 0 0 1-2.998857 4.047239l0.755809-1.024-0.926476 1.267809-0.975238 1.243429-0.78019 0.975238-0.097524 0.146285-1.26781 1.560381-2.633143 3.193905a171.641905 171.641905 0 0 1-11.02019 11.800381l-1.316571 1.292191-0.828953 0.78019-0.536381 0.487619-0.585143 0.560762-1.682285 1.536-1.77981 1.584762a171.617524 171.617524 0 0 1-2.438095 2.096762l1.926095-1.657905-2.145524 1.828571-2.023619 1.682286-0.146285 0.097524-2.169905 1.755429-0.609524 0.463238-4.071619 3.096381a171.154286 171.154286 0 0 1-14.604191 9.557333l-1.29219 0.755809 0.512-0.292571-4.559238 2.535619a170.105905 170.105905 0 0 1-6.509714 3.340191l-4.632381 2.145523-0.268191 0.121905-1.438476 0.633905-0.219429 0.097524-2.291809 0.975238-2.779429 1.121524 1.804191-0.731429-2.925715 1.170286-0.902095 0.341333-0.877714 0.341333-2.925714 1.048381 1.779809-0.633904-2.535619 0.926476-1.097143 0.365714 0.560762-0.195048-2.267428 0.75581-2.023619 0.658286a169.350095 169.350095 0 0 1-11.580953 3.169524l1.145905-0.268191-1.584762 0.390095-0.853333 0.195048-1.633524 0.365714-1.633524 0.341334-1.536 0.316952-2.803809 0.536381-0.536381 0.097524-2.438096 0.414476-1.219047 0.195047-1.950476 0.292572-1.292191 0.195048-0.755809 0.097523-1.024 0.121905-2.901334 0.341333-2.121143 0.219429 1.633524-0.170667-3.072 0.292572-1.365333 0.121905-0.390095 0.02438-0.463238 0.048762-0.853334 0.048762 0.512-0.024381-1.511619 0.097524-1.901714 0.097524-2.925714 0.146286L804.571429 286.47619a170.73981 170.73981 0 0 1-161.255619-114.590476l-1.682286-5.12-2.072381-7.192381a169.447619 169.447619 0 0 1-3.559619-16.871619l-0.170667-1.170285-0.609524-4.461715a171.154286 171.154286 0 0 1-0.609523-5.680762l-0.438858-5.729523A173.348571 173.348571 0 0 1 633.904762 115.80952400000001l0.121905-6.192762 0.121904-3.120762 0.097524-1.389714 0.048762-0.975238 0.024381-0.438858 0.024381-0.341333 0.341333-4.096 0.097524-0.877714 0.073143-0.658286v-0.121905l0.292571-2.56 0.097524-0.78019 0.365715-2.681905 0.097523-0.731428 0.390096-2.462477 0.219428-1.365333 0.195048-1.072762v-0.024381l0.146286-0.828952 0.390095-2.072381 0.316952-1.584762 0.292572-1.340952-0.414477 1.950476c0.365714-1.852952 0.78019-3.681524 1.219048-5.485715v-0.121904c0.463238-1.950476 0.975238-3.974095 1.536-5.997715l1.657905-5.680761a169.325714 169.325714 0 0 1 2.438095-7.216762l0.463238-1.219048 0.682667-1.77981 0.073143-0.219428 0.926476-2.340572 0.341333-0.853333 0.073143-0.195047 0.658286-1.536 0.341333-0.828953 0.877714-1.999238 0.24381-0.536381 0.78019-1.706667z m112.761905 366.250667h-67.169524l-0.316952-24.380952h94.695619l-5.339429 10.776381a24.380952 24.380952 0 0 1-21.869714 13.604571z m-432.883809 0h-67.754667a24.380952 24.380952 0 0 1-20.333714-10.971428l-1.536-2.633143-5.315048-10.776381h104.009143l-9.362286 0.121904 0.292572 24.259048z m91.550476 0h-67.169524l-0.316952-24.380952h94.695619l-5.339429 10.776381a24.380952 24.380952 0 0 1-21.869714 13.604571z m249.782857 0h-67.754667a24.380952 24.380952 0 0 1-20.333714-10.971428l-1.536-2.633143-5.315048-10.776381h104.009143l-9.362286 0.121904 0.292572 24.259048z m-39.887238 219.428572h-237.738667l-0.536381-1.121524a24.380952 24.380952 0 0 1-2.340571-7.972572l-0.170667-2.803809v-158.768762a24.380952 24.380952 0 0 1 21.528381-24.234667l2.852571-0.146286h195.04762a24.380952 24.380952 0 0 1 24.210285 21.528381L633.904762 459.337143v158.866286a24.380952 24.380952 0 0 1-1.438476 8.216381l-1.072762 2.56-0.512 1.024z m-130.779429 48.761904h-67.754666a24.380952 24.380952 0 0 1-20.333715-10.971428l-1.536-2.633143-5.315047-10.776381h104.009143l-9.362286 0.121905 0.292571 24.259047z m91.550476 0h-67.169523l-0.316953-24.380952h94.695619l-5.339428 10.776381a24.380952 24.380952 0 0 1-21.869715 13.604571z"  horiz-adv-x="1024" />

    
    <glyph glyph-name="data-point-star" unicode="&#58912;" d="M559.250286 893.805714l40.228571-41.764571L652.141714 876.446476l31.890286-48.444952 56.222476 14.311619 22.430476-53.467429 57.880381 3.730286 12.239238-56.685714 57.58781-6.948572 1.609143-58.002285 55.344762-17.408-9.069715-57.295239 51.175619-27.282285-19.456-54.637715 45.29981-36.230095-29.135238-50.151619L1024 384l-37.863619-43.934476 29.135238-50.151619-45.299809-36.230095 19.456-54.637715-51.2-27.306666 9.094095-57.295239-55.344762-17.383619-1.609143-58.002285-57.58781-6.948572-12.239238-56.685714-57.880381 3.730286-22.430476-53.467429-56.222476 14.311619-31.890286-48.444952-52.614095 24.380952-40.252952-41.74019L512-92.15999999999997l-47.250286-33.645714-40.228571 41.764571-52.638476-24.405333-31.890286 48.444952-56.222476-14.311619-22.430476 53.467429-57.880381-3.730286-12.239238 56.685714-57.58781 6.948572-1.609143 58.002285-55.344762 17.408 9.069715 57.295239-51.17562 27.282285 19.456 54.637715-45.299809 36.230095 29.135238 50.151619L0 384l37.863619 43.934476-29.135238 50.151619 45.299809 36.230095-19.456 54.637715 51.2 27.306666-9.094095 57.295239 55.344762 17.383619 1.609143 58.002285 57.58781 6.948572 12.239238 56.685714 57.880381-3.730286 22.430476 53.467429 56.222476-14.311619L371.882667 876.446476l52.614095-24.380952L464.749714 893.805714 512 860.16 559.250286 893.805714zM512 627.809524c-32.670476 0-61.293714-46.518857-77.872762-116.736-28.672 8.679619-55.02781 13.409524-76.8 13.409524-29.086476 0-50.41981-7.92381-59.733333-24.624762-16.335238-29.184 8.289524-78.116571 58.758095-128-50.468571-49.93219-75.093333-98.840381-58.758095-128.048762 9.313524-16.676571 30.598095-24.624762 59.733333-24.624762 21.820952 0 48.128 4.729905 76.8 13.409524C450.706286 162.35276199999998 479.329524 115.80952400000001 512 115.80952400000001c32.670476 0 61.293714 46.518857 77.872762 116.736 28.672-8.679619 55.05219-13.409524 76.8-13.409524 29.086476 0 50.41981 7.92381 59.733333 24.624762 16.335238 29.257143-8.289524 78.165333-58.758095 128.048762 50.468571 49.883429 75.093333 98.791619 58.758095 128-9.313524 16.676571-30.598095 24.624762-59.733333 24.624762-21.820952 0-48.128-4.729905-76.8-13.409524C573.293714 581.266286 544.670476 627.809524 512 627.809524z m0-364.178286c16.457143-8.045714 32.597333-15.067429 48.298667-21.016381-14.409143-62.073905-36.742095-94.793143-48.298667-94.793143-11.556571 0-33.889524 32.719238-48.298667 94.793143A550.278095 550.278095 0 0 1 512 263.63123800000005z m132.36419 86.796191c10.435048-10.24 20.065524-20.455619 28.13562-30.671239 29.062095-36.522667 29.330286-56.003048 27.136-59.952761-1.657905-2.974476-10.727619-8.630857-32.938667-8.630858-19.894857 0-44.227048 4.705524-70.582857 12.873143 2.876952 16.969143 5.12 34.864762 6.582857 53.638096 14.969905 10.703238 28.891429 21.723429 41.667047 32.743619z m-264.777142 0a569.539048 569.539048 0 0 1 41.667047-32.743619c1.487238-18.724571 3.705905-36.62019 6.582857-53.638096-26.331429-8.167619-50.614857-12.873143-70.534095-12.873143-22.186667 0-31.207619 5.656381-32.914286 8.630858-2.218667 3.949714-1.999238 23.430095 27.062858 59.952761 8.118857 10.166857 17.700571 20.455619 28.135619 30.671239z m74.947047-54.857143c3.681524-2.267429 7.289905-4.632381 11.093334-6.89981 3.657143-2.243048 7.363048-4.169143 11.117714-6.290286-6.534095-2.852571-12.921905-5.485714-19.285333-7.996952-1.121524 6.802286-2.096762 13.897143-2.925715 21.211429z m115.004953 0c-0.902095-7.314286-1.877333-14.384762-2.925715-21.211429-6.363429 2.486857-12.775619 5.168762-19.309714 8.021333 3.705905 2.121143 7.41181 4.047238 11.166476 6.290286 3.754667 2.29181 7.363048 4.632381 11.068953 6.89981zM512 444.391619c10.337524-5.36381 20.675048-11.044571 30.96381-17.16419 10.361905-6.217143 20.163048-12.8 29.891047-19.358477 0.609524-11.605333 1.048381-23.478857 1.048381-36.059428 0-12.580571-0.438857-24.454095-1.048381-36.059429-9.752381-6.582857-19.504762-13.141333-29.915428-19.358476-10.264381-6.119619-20.601905-11.776-30.939429-17.16419-10.337524 5.36381-20.675048 11.044571-30.96381 17.16419a650.727619 650.727619 0 0 0-29.891047 19.358476 682.569143 682.569143 0 0 0-1.048381 36.08381c0 12.55619 0.438857 24.429714 1.048381 36.035047 9.752381 6.582857 19.504762 13.141333 29.915428 19.358477 10.264381 6.119619 20.601905 11.776 30.939429 17.16419zM512 408.380952a36.571429 36.571429 0 1 1 0-73.142857 36.571429 36.571429 0 0 1 0 73.142857z m-92.623238-23.649523c-0.048762-4.291048-0.24381-8.533333-0.24381-12.921905 0-4.388571 0.195048-8.557714 0.24381-12.921905-5.461333 4.291048-11.044571 8.533333-16.188952 12.921905 5.12 4.33981 10.727619 8.582095 16.188952 12.921905z m185.246476 0c5.461333-4.291048 11.044571-8.533333 16.188952-12.921905-5.12-4.33981-10.727619-8.557714-16.188952-12.921905 0.048762 4.291048 0.24381 8.533333 0.24381 12.921905 0 4.388571-0.195048 8.582095-0.24381 12.921905z m62.073905 107.715047c22.186667 0 31.207619-5.656381 32.865524-8.630857 2.218667-3.949714 1.999238-23.430095-27.062857-59.952762-8.143238-10.166857-17.700571-20.455619-28.13562-30.671238a568.832 568.832 0 0 1-41.691428 32.743619 612.010667 612.010667 0 0 1-6.558476 53.589333c26.35581 8.240762 50.688 12.921905 70.582857 12.921905z m-309.394286 0c19.919238 0 44.227048-4.681143 70.582857-12.873143-2.876952-16.969143-5.12-34.864762-6.582857-53.638095-14.969905-10.703238-28.891429-21.723429-41.667047-32.743619-10.48381 10.24-20.065524 20.48-28.184381 30.671238-29.062095 36.522667-29.281524 56.003048-27.062858 59.952762 1.633524 2.974476 10.727619 8.630857 32.914286 8.630857z m100.08381-23.210666c6.363429-2.438095 12.775619-5.12 19.309714-7.996953-3.705905-2.121143-7.41181-4.047238-11.166476-6.290286-3.754667-2.29181-7.363048-4.632381-11.068953-6.899809 0.902095 7.314286 1.877333 14.384762 2.925715 21.211428z m109.153523 0c1.121524-6.802286 2.048-13.897143 2.925715-21.211429-3.681524 2.29181-7.289905 4.632381-11.093334 6.92419-3.657143 2.243048-7.363048 4.169143-11.117714 6.290286 6.534095 2.852571 12.921905 5.485714 19.285333 7.996953zM512 595.797333c11.556571 0 33.889524-32.719238 48.298667-94.793143-15.701333-5.948952-31.841524-12.921905-48.298667-21.01638a567.53981 567.53981 0 0 1-48.298667 21.01638c14.409143 62.073905 36.742095 94.793143 48.298667 94.793143z"  horiz-adv-x="1024" />

    
    <glyph glyph-name="handbag2" unicode="&#58959;" d="M223.4368 640v-51.2h-73.216a25.6 25.6 0 0 1-24.8832-19.456l-0.7168-4.3008-39.936-559.616a76.8 76.8 0 0 1 69.2224-81.92L161.28-76.79999999999995l704.4096 0.0512 2.7136 0.1536a76.8 76.8 0 0 1 71.3216 74.6496l-0.2048 7.424-39.936 559.5648a25.6 25.6 0 0 1-21.1456 23.3984L873.984 588.8h-75.6224V640h75.6224a76.8 76.8 0 0 0 75.776-64.3584l0.8192-6.9632 39.936-559.5648a128 128 0 0 0-118.528-136.8064l-4.5568-0.2048L161.28-128a128 128 0 0 0-128 128l0.1024 4.608 40.192 564.0704a76.8 76.8 0 0 0 69.5808 71.0144L150.1696 640h73.216z m561.152-304.8448a25.6 25.6 0 0 0 5.7856-32.256l-2.6624-3.7888-171.5712-204.8a25.6 25.6 0 0 0-34.816-4.1984l-3.7376 3.4304-163.072 179.1488-138.24-177.664a25.6 25.6 0 0 0-32-6.9632l-3.8912 2.5088a25.6 25.6 0 0 0-6.9632 32l2.4576 3.8912 156.9792 201.6256a25.6 25.6 0 0 0 35.328 4.9664l3.7888-3.4304 163.7376-179.9168 152.7808 182.272a25.6 25.6 0 0 0 36.0448 3.1744zM512.0512 896a230.4 230.4 0 0 0 230.144-219.5456l0.256-10.8544v-165.12a25.6 25.6 0 0 0-50.7904-4.608l-0.4096 4.608V665.6a179.2 179.2 0 0 1-358.144 9.8304l-0.256-9.8304v-165.12a25.6 25.6 0 0 0-50.7904-4.608l-0.4096 4.608V665.6a230.4 230.4 0 0 0 230.4 230.4z m113.3056-256v-51.2H389.3248V640h236.0832z"  horiz-adv-x="1024" />

    
    <glyph glyph-name="precent" unicode="&#58960;" d="M512 896c282.7776 0 512-229.2224 512-512s-229.2224-512-512-512S0 101.2224 0 384 229.2224 896 512 896z m0-51.2a460.8 460.8 0 1 1 0-921.6 460.8 460.8 0 0 1 0 921.6z m153.6-512a102.4 102.4 0 1 0 0-204.8 102.4 102.4 0 0 0 0 204.8z m0-51.2a51.2 51.2 0 1 1 0-102.4 51.2 51.2 0 0 1 0 102.4z m27.4432 283.4432a25.6 25.6 0 0 0 0-36.1984l-325.8368-325.8368a25.6 25.6 0 0 0-36.2496 36.1984l325.8368 325.8368a25.6 25.6 0 0 0 36.2496 0zM358.4 640a102.4 102.4 0 1 0 0-204.8 102.4 102.4 0 0 0 0 204.8z m0-51.2a51.2 51.2 0 1 1 0-102.4 51.2 51.2 0 0 1 0 102.4z"  horiz-adv-x="1024" />

    
    <glyph glyph-name="lower-prices" unicode="&#58956;" d="M178.944 819.2v-51.2H76.8a25.6 25.6 0 0 1-25.1904-20.992L51.2 742.4v-128h921.6V742.4a25.6 25.6 0 0 1-20.992 25.1904L947.2 768h-102.6048v51.2H947.2a76.8 76.8 0 0 0 76.4416-69.4272L1024 742.4v-768a76.8 76.8 0 0 0-69.4272-76.4416l-7.3728-0.3584h-870.4a76.8 76.8 0 0 0-76.4416 69.4272L0-25.600000000000023V742.4a76.8 76.8 0 0 0 69.4272 76.4416L76.8 819.2h102.144zM972.8 563.2H51.2V-25.600000000000023a25.6 25.6 0 0 1 20.992-25.1904l4.608-0.4096h870.4a25.6 25.6 0 0 1 25.1904 20.992L972.8-25.600000000000023V563.2z m-419.3792-161.792l199.68-190.0032V304.12800000000004l0.4608 4.608a25.6 25.6 0 0 0 50.7904-4.608v-179.2h-179.2l-4.608 0.4096a25.6 25.6 0 0 0-20.992 25.1904l0.4096 4.608a25.6 25.6 0 0 0 25.1904 20.992l90.4192-0.0512-162.2016 152.832-160.1536-160.1536-168.1408 159.0272-2.9184 3.584a25.6 25.6 0 0 0 2.9184 32.6656l3.584 2.9184a25.6 25.6 0 0 0 32.6656-2.9184l131.84-122.88 160.256 160.2048zM256 870.4a25.6 25.6 0 0 0 25.6-25.6v-102.4a25.6 25.6 0 0 0-51.2 0V844.8A25.6 25.6 0 0 0 256 870.4z m512 0a25.6 25.6 0 0 0 25.6-25.6v-102.4a25.6 25.6 0 1 0-51.2 0V844.8a25.6 25.6 0 0 0 25.6 25.6z m-75.9296-51.2v-51.2H332.8v51.2h359.2192z"  horiz-adv-x="1024" />

    
    <glyph glyph-name="petal" unicode="&#58957;" d="M460.79959 332.80112599999995v-230.399539l-0.255999-10.854378A230.399539 230.399539 0 1 0 230.400051 332.80112599999995H460.79959z m332.799335 0l10.854378-0.255999A230.399539 230.399539 0 1 0 563.199386 102.40158699999995V332.80112599999995h230.399539zM409.599693 281.601229H230.400051a179.199642 179.199642 0 1 1 178.994842-188.159624L409.599693 103.015986V281.601229z m383.384833 0H614.399283v-179.199642a179.199642 179.199642 0 1 1 188.159624 178.994842L792.984526 281.601229zM230.400051 896a230.553139 230.553139 0 0 0 230.14354-219.545161L460.79959 665.600461V435.200922H230.400051a230.399539 230.399539 0 0 0 0 460.799078z m563.198874 0a230.399539 230.399539 0 0 0 10.854378-460.543079L793.598925 435.200922H563.199386V665.600461A230.399539 230.399539 0 0 0 793.598925 896z m-563.198874-51.199898a179.199642 179.199642 0 0 1 0-358.399283H409.599693V664.986062l-0.2048 9.574381A179.199642 179.199642 0 0 1 230.400051 844.800102z m563.198874 0A179.199642 179.199642 0 0 1 614.399283 665.600461V486.400819h178.585243l9.574381 0.2048A179.199642 179.199642 0 0 1 793.598925 844.800102z"  horiz-adv-x="1024" />

    
    <glyph glyph-name="tag" unicode="&#58958;" d="M8.192 416.6656L9.5744 885.9136 478.8224 887.296l506.88-506.88a102.4 102.4 0 0 0 0-144.7936l-325.8368-325.8368a102.4 102.4 0 0 0-144.8448 0L8.192 416.6656z m51.2 22.3232l-0.1536-0.1024 492.032-492.8512v-0.0512a51.2 51.2 0 0 1 72.3968 0l325.888 325.888a51.2 51.2 0 0 1 0 72.3456l-492.032 493.2096-0.1536-0.2048-395.6224-2.3552-2.3552-395.8784z m349.0816 233.1136a128 128 0 1 0-181.0432-180.992 128 128 0 0 0 181.0432 180.992z m-36.1984-36.1984A76.8 76.8 0 1 1 263.68 527.36 76.8 76.8 0 0 1 372.224 635.904z"  horiz-adv-x="1024" />

    
    <glyph glyph-name="caret-left" unicode="&#58954;" d="M658.285714 749.714286L219.428571 384l438.857143-365.714286z"  horiz-adv-x="1024" />

    
    <glyph glyph-name="caret-right" unicode="&#58955;" d="M365.714286 18.285713999999984l438.857143 365.714286-438.857143 365.714286z"  horiz-adv-x="1024" />

    
    <glyph glyph-name="caret-bottom" unicode="&#58952;" d="M146.285714 530.285714l365.714286-438.857143 365.714286 438.857143z"  horiz-adv-x="1024" />

    
    <glyph glyph-name="caret-top" unicode="&#58953;" d="M877.714286 164.57142899999997L512 603.4285709999999l-365.714286-438.857142z"  horiz-adv-x="1024" />

    
    <glyph glyph-name="information" unicode="&#58951;" d="M512 896c144.822857-3.803429 265.362286-53.906286 361.691429-150.308571C970.093714 649.362286 1020.196571 528.822857 1024 384c-3.803429-144.822857-53.906286-265.362286-150.308571-361.691429C777.362286-74.093714 656.822857-124.196571 512-128c-144.822857 3.803429-265.362286 53.906286-361.691429 150.308571C53.906286 118.637714 3.803429 239.177143 0 384c3.803429 144.822857 53.906286 265.362286 150.308571 361.691429C246.637714 842.093714 367.177143 892.196571 512 896z m76.580571-314.294857c19.748571 0 36.205714 5.851429 49.152 17.700571 12.946286 11.849143 19.382857 27.648 19.382858 47.469715 0 19.748571-6.436571 35.620571-19.382858 47.396571a69.339429 69.339429 0 0 1-48.566857 17.700571 69.339429 69.339429 0 0 1-48.566857-17.700571c-12.946286-11.776-19.456-27.574857-19.456-47.396571s6.509714-35.620571 19.456-47.469715a68.608 68.608 0 0 1 47.981714-17.700571z m13.677715-411.428572c0 4.608 0.438857 10.678857 1.170285 18.285715 0.731429 7.606857 0.731429 14.848 0 21.723428l-60.562285-69.705143c-6.070857-6.875429-12.434286-12.214857-18.870857-16.018285-6.436571-3.803429-11.995429-4.973714-16.530286-3.437715-6.875429 3.072-9.947429 8.411429-9.142857 16.018286l100.571428 316.562286c3.803429 21.357714 0.365714 39.643429-10.313143 54.857143-10.678857 15.213714-27.794286 24.356571-51.419428 27.428571-26.697143-0.731429-55.808-11.995429-87.478857-33.645714-31.597714-21.796571-59.245714-49.371429-82.797715-82.944v-17.115429c-0.731429-7.606857-0.731429-14.848 0-21.723428l60.562286 69.705143c6.070857 6.875429 12.361143 12.214857 18.870857 16.018285 6.436571 3.803429 11.556571 4.973714 15.36 3.437715 7.68-3.803429 10.313143-9.947429 8.045715-18.285715l-99.474286-315.465143a56.758857 56.758857 0 0 1 8.045714-50.834285c10.678857-14.848 29.257143-24.941714 56.027429-30.281143 38.034286 0.731429 70.070857 11.776 95.963428 33.133714 25.892571 21.357714 49.883429 48.786286 71.972572 82.285714z"  horiz-adv-x="1024" />

    
    <glyph glyph-name="export" unicode="&#58949;" d="M984.356571 310.85714299999995a36.571429 36.571429 0 0 0 35.986286-29.988572l0.585143-6.582857v-335.725714a36.571429 36.571429 0 0 0-29.988571-36.059429l-6.582858-0.585142H36.571429a36.571429 36.571429 0 0 0-35.986286 29.988571L0-61.440000000000055V274.285714a36.571429 36.571429 0 0 0 72.557714 6.582857L73.142857 274.285714v-299.154285h874.642286V274.285714a36.571429 36.571429 0 0 0 29.988571 35.986286l6.582857 0.585143zM515.145143 859.282286a36.571429 36.571429 0 0 0 12.068571-3.145143l5.558857-3.218286 5.12-4.169143 256-256a36.571429 36.571429 0 0 0-46.665142-55.954285l-5.12 4.169142L547.108571 736.036571V214.30857100000003a35.108571 35.108571 0 0 0-29.988571-34.011428l-6.582857-0.512a35.620571 35.620571 0 0 0-36.571429 34.523428V733.110857L281.892571 540.964571a36.571429 36.571429 0 0 0-55.954285 46.665143l4.169143 5.12 256 256a36.425143 36.425143 0 0 0 22.747428 10.532572h6.290286z"  horiz-adv-x="1024" />

    
    <glyph glyph-name="data" unicode="&#58950;" d="M983.955342-45.283555999999976c22.129778 0 40.049778-18.488889 40.049778-41.358222a40.732444 40.732444 0 0 0-40.049778-41.358222H40.054898A40.732444 40.732444 0 0 0 0.00512-86.64177800000004c0 22.869333 17.92 41.358222 40.049778 41.358222zM98.764231 402.659556c23.096889 0 41.870222-18.659556 41.870222-41.699556v-276.593778c0-23.04-18.773333-41.699556-41.870222-41.699555A41.813333 41.813333 0 0 0 56.894009 84.366222V360.96000000000004c0 23.04 18.773333 41.699556 41.870222 41.699556z m295.424 149.617777c23.153778 0 41.870222-18.659556 41.870222-41.699555v-426.154667c0-23.04-18.773333-41.699556-41.870222-41.699555a41.813333 41.813333 0 0 0-41.813333 41.699555v426.097778c0 23.096889 18.773333 41.756444 41.813333 41.756444z m295.480889-194.104889c23.153778 0 41.870222-18.716444 41.870222-41.756444v-231.992889c0-23.04-18.773333-41.699556-41.870222-41.699555a41.813333 41.813333 0 0 0-41.870222 41.699555v231.992889c0 23.04 18.773333 41.756444 41.870222 41.756444zM985.150009 554.666667c21.447111 0 38.855111-17.351111 38.855111-38.741334v-431.559111a38.798222 38.798222 0 0 0-38.855111-38.684444 38.798222 38.798222 0 0 0-38.912 38.684444V515.982222c0 21.390222 17.408 38.741333 38.912 38.741334z m-64.568889 341.333333a56.433778 56.433778 0 0 0 5.575111-0.682667 39.367111 39.367111 0 0 0 11.036445-3.982222 46.876444 46.876444 0 0 0 4.721777-2.958222c1.024-0.796444 1.706667-1.308444 2.275556-1.877333l0.455111-0.398223c0.568889-0.455111 1.080889-0.910222 1.536-1.422222l0.455111-0.455111 1.706667-1.820444a38.684444 38.684444 0 0 0 3.527111-4.721778l1.479111-2.446222a43.861333 43.861333 0 0 0 2.503111-5.347556 42.439111 42.439111 0 0 0 2.56-11.377778v-0.568889a16.327111 16.327111 0 0 0 0.056889-2.275555v-0.398222l1.991111-183.296a42.097778 42.097778 0 0 0-11.377778-29.411556 39.480889 39.480889 0 0 0-28.216889-12.401778 40.789333 40.789333 0 0 0-40.504888 40.903111l-1.024 91.136-276.48-259.527111a39.139556 39.139556 0 0 0-54.272 0.341334L374.106453 670.663111 99.788231 480.768a39.025778 39.025778 0 0 0-22.243555-7.054222 40.220444 40.220444 0 0 0-38.4 29.297778 42.097778 42.097778 0 0 0 16.042666 46.421333l300.657778 208.213333a39.082667 39.082667 0 0 0 49.607111-4.039111l170.780445-164.124444 238.592 223.800889h-88.064a40.732444 40.732444 0 0 0-40.049778 41.358222c0 22.812444 17.92 41.358222 40.049778 41.358222z"  horiz-adv-x="1024" />

    
    <glyph glyph-name="flat" unicode="&#58946;" d="M0 896h4096v-1024H0z"  horiz-adv-x="4096" />

    
    <glyph glyph-name="top" unicode="&#58947;" d="M512 896L837.818182 491.613091H627.153455V-128H396.846545l-0.09309 619.613091H186.181818L512 896z"  horiz-adv-x="1024" />

    
    <glyph glyph-name="bottom" unicode="&#58948;" d="M512-128L186.181818 276.38690899999995h210.664727V896h230.30691l0.09309-619.613091H837.818182L512-128z"  horiz-adv-x="1024" />

    
    <glyph glyph-name="ams" unicode="&#58943;" d="M760.963 868.604L194.744-128H466.9a97.372 97.372 0 0 1 84.909 49.708L803.32 369.86400000000003l275.953-497.134 248.786-0.535a48.686 48.686 0 0 1 42.405 72.737L845.628 868.604a48.686 48.686 0 0 1-84.616 0zM591.049 872.158l-547.67-926.69A48.686 48.686 0 0 1 85.298-128H342.36L632.92 369.86400000000003 891.83-78.68100000000004a97.372 97.372 0 0 1 84.13-48.686l289.877-0.633L674.788 872.158a48.686 48.686 0 0 1-83.74 0z"  horiz-adv-x="1411" />

    
    <glyph glyph-name="vis" unicode="&#58945;" d="M877.672 896h204.79v-1023.951h-204.79zM1804.056 132.81500000000005c1.268-69.629-19.992-129.213-63.68-178.606-28.67-33.498-69.239-57.195-121.655-70.994-28.086-7.46-60.852-11.166-98.3-11.166-69.238 0-126.677 14.628-172.267 43.883a256.378 256.378 0 0 0-90.303 97.666c-22.186 41.202-35.107 97.519-38.861 150.716l168.513 1.219c7.46-57.975 25.55-99.957 54.27-125.995 21.21-19.699 45.59-29.012 73.041-27.94 38.666 1.073 69.58 17.31 92.643 48.663 11.849 15.408 17.797 37.496 17.797 66.167 0 41.445-22.136 82.696-66.459 123.605l-157.25 126.775c-58.657 48.418-100.2 91.765-124.532 130.042a265.008 265.008 0 0 0-39.3 140.33c0 90.936 35.887 159.785 107.661 206.545C1389.648 881.908 1444.6 896 1510.084 896c62.998 0 117.023-11.946 161.93-35.887a224.733 224.733 0 0 0 84.696-78.162c21.552-33.497 34.522-95.325 38.862-138.964l-169.44-2.975c-4.973 40.958-18.724 72.847-41.153 95.715-16.237 16.481-39.642 24.721-70.214 24.721-32.474 0-57.097-12.238-73.968-36.716-13.75-19.65-20.577-44.127-20.577-73.334 0-45.737 23.064-92.253 69.239-139.599 17.505-18.04 43.689-39.3 78.65-63.777 41.201-29.256 68.311-49.735 81.428-61.437 43.688-37.204 77.381-73.871 101.127-110.002 11.215-17.066 20.284-32.669 27.11-47.053 16.871-35.594 25.6-67.532 26.233-95.715zM0 896h210.008l277.588-731.296-111.757-292.655zM438.836 896h292.558l-149.01-390.077z"  horiz-adv-x="1804" />

    
    <glyph glyph-name="man" unicode="&#58936;" d="M413.867 799.3c0 53.419 45.84 96.7 102.4 96.7s102.4-43.281 102.4-96.7c0-53.418-45.841-96.7-102.4-96.7s-102.4 43.282-102.4 96.7zM665.6 670.38c18.773 0 34.133-14.507 34.133-32.359V219c0-17.75-15.36-32.222-34.133-32.222h-38.912l-40.004-276.105c0-21.23-13.449-38.673-29.867-38.673h-89.6c-16.452 0-29.867 17.408-29.867 38.673L397.312 186.88H358.4c-18.773 0-34.133 14.507-34.133 32.222v419.02c0 17.75 15.36 32.257 34.133 32.257h307.2z"  horiz-adv-x="1024" />

    
    <glyph glyph-name="woman" unicode="&#58937;" d="M433.766382 812.783406c0-45.943776 35.020829-83.182594 78.233618-83.182594 43.212789 0 78.233618 37.239818 78.233618 83.182594C590.233618 858.795182 555.212789 896 512 896c-43.212789 0-78.233618-37.239818-78.233618-83.216594z m194.55905-178.243129c0 32.971839-16.895918 59.903708-37.409817 59.903707H448.240311c-20.616899 0-37.443817-26.965868-37.443817-59.903707l-86.527577-479.22966c0-32.972839 16.929917-59.903708 37.443817-59.903708h58.265715l23.551885-183.466104c0-21.947893 12.35594-39.935805 27.408866-39.935805h82.123599c15.052926 0 27.374866 17.987912 27.374867 39.935805L603.989551 95.30390999999997h58.299715c20.616899 0 37.443817 26.930869 37.443817 59.903707L628.360432 634.541277z"  horiz-adv-x="1024" />

    
    <glyph glyph-name="watcher" unicode="&#58938;" d="M375.077 241.64l-0.561 0.536c-70.632 54.32-112.274 205.166-112.274 281.161 0 17.31-14.41 31.33-32.208 31.33s-32.231-14.02-32.231-31.33c0-83.505 42.52-246.71 108.495-306.663-100.4-76.508-156.111-154.941-183.345-256.683-4.486-16.75 5.852-33.865 23.065-38.205a33.377 33.377 0 0 1 8.118-1.024c14.336 0 27.38 9.362 31.16 23.454 25.965 96.988 83.187 170.399 191.292 245.468a30.769 30.769 0 0 1-1.511 51.956z m550.375-284.258c-27.623 104.01-83.602 187.612-182.174 264.802 67.754 61.562 105.325 213.065 105.325 300.324 0 17.75-14.457 32.159-32.329 32.159-17.871 0-32.353-14.385-32.353-32.159 0-77.97-37.352-218.16-108.081-272.7a31.915 31.915 0 0 1-11.532-9.753 32.037 32.037 0 0 1 7.534-44.861c108.3-76.898 163.4-149.455 190.22-250.466a32.305 32.305 0 0 1 39.521-22.893c17.286 4.535 28.428 18.359 23.87 35.547zM235.788 482.06a33.036 33.036 0 0 1 26.697 38.108c-0.146 0.926-14.92 93.525 41.936 161.28 42.983 51.248 116.736 99.766 219.184 99.766 102.498 0 176.42-48.566 219.697-99.913 57.173-67.779 42.886-160.353 42.74-161.158a32.987 32.987 0 0 1 32.353-38.62c15.653 0 29.501 11.338 32.256 27.43 0.83 4.973 19.87 122.757-56.807 214.405-56.271 67.268-147.188 123.88-270.263 123.88-123.05 0-213.821-56.612-269.8-123.855-76.36-91.721-56.71-209.628-55.832-214.601a32.744 32.744 0 0 1 37.84-26.697z"  horiz-adv-x="1024" />

    
    <glyph glyph-name="brick" unicode="&#58939;" d="M907.833 400.408a35.011 35.011 0 0 1-49.274-6.339L531.732-8.799999999999955c-4.534-4.438-21.504-10.411-32.792-10.411-11.313 0-28.306 5.973-32.792 10.386L158.07 404.7a35.011 35.011 0 0 1-49.25 6.266c-15.36-11.946-18.139-34.133-6.265-49.493L411.437-53.14999999999998l1.048-1.293c22.065-25.965 63.805-35.4 86.455-35.4 22.674 0 64.366 9.435 86.455 35.45a22.723 22.723 0 0 1 1.048 1.291l327.68 403.993a35.377 35.377 0 0 1-6.29 49.493zM1009.82 588.02a36.718 36.718 0 0 1-1.22 2.048L868.044 809.448c-18.651 32.914-52.419 53.296-88.38 53.296H243.987c-36.278 0-69.07-19.748-87.942-52.858L15.563 591.726a32.67 32.67 0 0 1-1.219-2.048c-22.893-41.326-17.968-94.891 11.923-130.585l76.897-99.376a35.694 35.694 0 0 1 50.127-6.364c15.604 12.117 18.432 34.621 6.34 50.225L82.27 503.564a29.135 29.135 0 0 1-1.073 1.341c-11.045 12.97-13.02 33.475-4.876 49.152l140.36 217.844c0.44 0.634 0.83 1.317 1.22 2 6.07 10.922 15.58 17.188 26.087 17.188h535.699c10.557 0 20.455-6.534 26.477-17.457 0.39-0.683 0.78-1.365 1.22-2.024l140.36-219.087c8.144-15.677 6.145-36.132-4.876-49.079l-1.072-1.316-81.555-105.619a35.864 35.864 0 0 1 28.258-57.71c10.679 0 21.211 4.78 28.282 13.898l81.067 104.984c29.744 35.596 34.718 89.04 11.995 130.316zM47.624 542.55c0-20.456 15.994-37.035 35.743-37.035h881.127c19.7 0 35.694 16.579 35.694 37.059 0 20.431-15.994 37.01-35.718 37.01H606.168L825.84 764.83a37.961 37.961 0 0 1 5.242 52.103 34.865 34.865 0 0 1-50.225 5.437L516.47 599.528 252.18 823.345a34.84 34.84 0 0 1-50.224-5.462 37.961 37.961 0 0 1 5.217-52.077l219.6-186.222H83.39c-19.748 0-35.742-16.579-35.742-37.035z"  horiz-adv-x="1024" />

    
    <glyph glyph-name="heart" unicode="&#58940;" d="M940.956 342.845a39.682 39.682 0 0 0-3.17-3.584L569.05-22.79600000000005a80.701 80.701 0 0 0-56.954-23.162 80.701 80.701 0 0 0-56.88 23.162L85.794 340.139c-0.732 0.731-1.39 1.463-2.049 2.194A283.038 283.038 0 0 0 2.801 582.607c12.19 89.259 65.536 166.766 146.384 212.627 113.25 64.268 260.583 42.032 358.278-54.004l4.656-4.56 4.633 4.56c97.694 96.06 245.028 118.247 358.302 54.004 80.848-45.861 134.217-123.368 146.384-212.627a283.038 283.038 0 0 0-80.482-239.786z m-56.344 42.789a29.624 29.624 0 0 0 3.096 3.486 215.528 215.528 0 0 1 62.903 184.418c-9.265 67.925-49.932 126.927-111.616 161.938-85.04 48.225-196.632 30.622-271.36-42.862l-30.11-29.574a36.328 36.328 0 0 0-25.406-10.313c-9.557 0-18.724 3.73-25.429 10.313l-30.062 29.574c-74.752 73.46-186.343 91.087-271.36 42.862-61.683-35.011-102.4-94.013-111.664-161.914a215.528 215.528 0 0 1 62.903-184.442c0.73-0.683 1.365-1.39 1.999-2.121l367.543-361.155a8.533 8.533 0 0 1 12.141 0l366.422 359.79z"  horiz-adv-x="1024" />

    
    <glyph glyph-name="advocate" unicode="&#58941;" d="M802.06 707.535H246.32c-82.041 0-148.796-64.536-148.796-143.847v-492.422c0-79.336 66.755-143.897 148.797-143.897h555.74c82.041 0 148.796 64.56 148.796 143.897V563.688c0 79.335-66.755 143.872-148.797 143.872z m-2.438-707.047H248.76a78.019 78.019 0 0 0-78.092 77.8v478.33a78.019 78.019 0 0 0 78.116 77.799h57.466l-0.049-0.415v-45.446a34.621 34.621 0 0 1 34.694-34.548 34.621 34.621 0 0 1 34.67 34.548v45.446l-0.024 0.415H672.84l-0.024-0.415v-45.446a34.621 34.621 0 0 1 34.67-34.548 34.621 34.621 0 0 1 34.694 34.548v45.446l-0.05 0.415h57.467a78.019 78.019 0 0 0 78.116-77.8v-478.354a78.019 78.019 0 0 0-78.116-77.775zM335.287 687.08c16.238-8.729 35.962-1.536 44.178 15.896 1.536 3.243 38.766 79.482 145.164 79.482 106.18 0 142.58-75.996 143.945-78.921 5.657-12.849 17.506-20.383 29.843-20.383 4.754 0 9.581 1.122 14.14 3.487 16.482 8.46 23.48 29.745 15.629 47.543-2.146 4.876-54.37 119.637-203.581 119.637-148.992 0-202.167-114.493-204.361-119.37-7.924-17.602-1.17-38.643 15.043-47.371z"  horiz-adv-x="1024" />

    
    <glyph glyph-name="crown" unicode="&#58942;" d="M919.43 327.778a33.89 33.89 0 0 1-41.35-24.625L830.83 76.36000000000001a35.913 35.913 0 0 1-0.44-1.877c-7.68-39.302-32.865-85.212-78.555-85.212H272.14c-45.665 0-70.85 45.91-78.53 85.212a37.45 37.45 0 0 1-0.44 1.902l-48.2 226.767a33.938 33.938 0 0 1-41.375 24.625 34.28 34.28 0 0 1-24.43-41.692l47.982-225.89c13.946-69.558 64.073-139.434 144.993-139.434h479.695c80.945 0 131.072 69.876 145.018 139.459l47.031 225.865a34.28 34.28 0 0 1-24.454 41.692z m79.336 192.121c-3.414 35.523-25.38 62.781-59.124 73.143-24.674 7.51-50.737 3.34-73.484-11.824a80379.758 80379.758 0 0 0-127.44-85.017l-107.203 118.98c8.948 16.14 14.629 33.913 16.726 52.638a139.752 139.752 0 0 1-36.425 110.909 137.021 137.021 0 0 1-100.523 44.13 137.411 137.411 0 0 1-100.45-43.082 139.703 139.703 0 0 1-37.449-110.86c1.975-19.09 7.705-37.23 16.823-53.638L283.843 497.176a84053.528 84053.528 0 0 0-126.05 84.09c-22.698 15.116-48.761 19.286-73.46 11.752-33.718-10.338-55.685-37.596-59.099-73.143a58.807 58.807 0 0 1-0.853-9.874c0-2.877 0.366-5.754 1.073-8.534l54.662-214.26a34.036 34.036 0 0 1 41.35-24.649 34.28 34.28 0 0 1 24.43 41.692L92.794 512.512v0.073c0.731 9.704 5.047 12.97 11.264 14.873 5.242 1.584 10.435 0.536 16.213-3.316 43.3-28.965 86.601-57.832 129.902-86.675l20.48-13.653a33.768 33.768 0 0 1 43.886 5.559l144.335 160.183c11.727 13.044 11.752 32.938 0.049 46.007a71.266 71.266 0 0 0-17.945 40.472 70.949 70.949 0 0 0 18.944 56.32c13.654 14.385 31.452 21.967 51.249 21.992 19.505-0.098 37.669-8.12 51.151-22.553 13.995-15.018 20.7-35.547 18.384-56.368a70.949 70.949 0 0 0-17.847-39.839 34.475 34.475 0 0 1 0-46.08l144.31-160.158c7.022-7.802 16.726-11.557 26.503-11.216 6.68-0.146 13.604 1.658 19.65 5.681l20.48 13.653a85764.876 85764.876 0 0 1 129.878 86.65c5.851 3.877 10.971 4.95 16.213 3.365 6.266-1.95 10.582-5.193 11.313-14.872a0.488 0.488 0 0 1 0-0.122l-53.102-208.214a34.28 34.28 0 0 1 24.43-41.691 33.987 33.987 0 0 1 41.375 24.625l54.637 214.235a33.83 33.83 0 0 1 1.073 8.533c0 3.292-0.293 6.583-0.853 9.899z"  horiz-adv-x="1024" />

    
    <glyph glyph-name="code" unicode="&#58944;" d="M240.496 624c-13.504 0-25.664-5.632-34.384-14.608l-0.048 0.048-189.216-189.2A47.664 47.664 0 0 1 0 384c0-13.504 5.616-25.664 14.592-34.368l-0.032-0.064 192-192 0.048 0.064A47.68 47.68 0 0 1 240 144a48 48 0 0 1 48 48c0 12.992-5.216 24.752-13.616 33.392l0.048 0.048-158.304 158.32 157.808 157.808-0.048 0.048A47.808 47.808 0 0 1 288.496 576a48 48 0 0 1-48 48z m784-240c0 14.56-6.608 27.44-16.848 36.24l-189.216 189.2-0.032-0.048A47.872 47.872 0 0 1 784 624a48 48 0 0 1-48-48c0-13.504 5.632-25.664 14.608-34.384l-0.048-0.048L908.368 383.76l-158.32-158.32 0.048-0.048A47.808 47.808 0 0 1 736.48 192a48 48 0 0 1 48-48c12.992 0 24.752 5.216 33.408 13.632l0.048-0.064 192 192-0.048 0.064A47.68 47.68 0 0 1 1024.496 384zM640 768c-20.8 0-38.496-13.232-45.168-31.712L339.2 65.216a48 48 0 0 1 89.968-33.504L684.8 702.784A48 48 0 0 1 640 768z"  horiz-adv-x="1024" />

    
    <glyph glyph-name="clock" unicode="&#58934;" d="M510.874726 792.6793720000001a460.33943 460.33943 0 0 0 319.015225-792.193011l72.119844-72.017546a25.574413 25.574413 0 0 0 0-36.16222l-2.250548-2.199399a25.574413 25.574413 0 0 0-36.16222 0L788.510551-34.90862600000003a458.293477 458.293477 0 0 0-277.635825-93.090863A458.293477 458.293477 0 0 0 233.2389-34.90862600000003L158.050127-109.89280399999996a25.574413 25.574413 0 0 0-36.16222 0l-2.199399 2.199399a25.574413 25.574413 0 0 0 0 36.16222l72.119844 72.017546A460.33943 460.33943 0 0 0 510.874726 792.6793720000001z m0-51.148825a409.190605 409.190605 0 1 1 0-818.38121 409.190605 409.190605 0 0 1 0 818.38121z m0-177.997913a25.574413 25.574413 0 0 0 25.574413-25.574413v-209.710185a25.574413 25.574413 0 0 0-13.707886-22.65893 36.724857 36.724857 0 0 0-3.989608-2.710888l-141.733396-81.838121a25.574413 25.574413 0 1 0-25.574413 44.294883l133.856477 77.234727V537.958221a25.574413 25.574413 0 0 0 25.574413 25.574413zM778.280786 868.175039c84.242116-38.105875 157.538383-93.090863 213.699793-160.402717a25.574413 25.574413 0 0 0-39.282298-32.735249c-51.148826 61.225144-118.153787 111.555589-195.490811 146.490237a25.574413 25.574413 0 0 0 21.073316 46.647729zM279.630885 855.183237a25.574413 25.574413 0 0 0-12.991801-33.758225 532.970763 532.970763 0 0 1-195.286217-146.285641 25.574413 25.574413 0 1 0-39.384595 32.530653A584.119588 584.119588 0 0 0 245.87266 868.226188a25.574413 25.574413 0 0 0 33.758225-13.042951z"  horiz-adv-x="1024" />

    
    <glyph glyph-name="car" unicode="&#58935;" d="M841.6256-76.79999999999995c15.872 0 28.7744-11.4688 28.7744-25.6s-12.9024-25.6-28.8256-25.6H28.8256C12.9536-128 0-116.53120000000001 0-102.39999999999998s12.9024 25.6 28.8256 25.6h812.7488zM526.848 844.8l447.8464-467.456c69.7856-72.8576 64.8192-186.2144-11.008-253.2352a190.5664 190.5664 0 0 0-114.688-46.9504l-11.6736-0.3584H133.3248c-70.656 0-128.512 52.8384-133.0176 119.6032L0 204.79999999999995V503.552c0 14.1312 11.9296 25.6 26.624 25.6 13.1072 0 24.0128-9.0624 26.2656-20.992l0.4096-4.608V204.79999999999995c0-39.936 31.744-72.704 72.2944-76.4416l7.68-0.3584h704.1024c33.4336 0 65.6384 12.0832 90.2656 33.792a124.416 124.416 0 0 1 14.0288 173.9264l-6.144 6.912-39.6288 41.3696H463.872c-41.5744 0-75.7248 30.464-79.616 69.4272L383.8976 460.8v153.6c0 39.936 31.744 72.704 72.2944 76.4416L463.872 691.2h137.728L503.5008 793.6h-132.608a26.4192 26.4192 0 0 0-26.2656 20.992l-0.4096 4.608c0 12.544 9.4208 23.04 21.8624 25.1904L370.8416 844.8h156.0576z m121.4464-202.3936V640H463.872a26.4192 26.4192 0 0 1-26.2144-20.992l-0.4096-4.608v-153.6c0-12.544 9.4208-23.04 21.8624-25.1904L463.872 435.2h382.976l-198.5024 207.2064zM240.9984 537.6a25.6 25.6 0 1 0 0-51.2H158.9248a25.6 25.6 0 1 0 0 51.2h82.0736z m0 153.6a25.6 25.6 0 1 0 0-51.2H25.6a25.6 25.6 0 0 0 0 51.2h215.3984z m0 153.6a25.6 25.6 0 1 0 0-51.2H25.6a25.6 25.6 0 0 0 0 51.2h215.3984z"  horiz-adv-x="1024" />

    
    <glyph glyph-name="edit" unicode="&#58929;" d="M579.949714 896a36.571429 36.571429 0 0 0 6.582857-72.557714L579.876571 822.857143h-475.428571a31.378286 31.378286 0 0 1-30.866286-25.746286L73.142857 791.4788570000001V-23.40571399999999c0-15.36 11.117714-28.233143 25.746286-30.866286l5.632-0.512H919.405714c15.36 0 28.233143 11.117714 30.866286 25.746286l0.512 5.632v475.428571a36.571429 36.571429 0 0 0 72.557714 6.582857l0.585143-6.582857v-475.428571c0-54.345143-41.472-98.962286-94.427428-104.009143l-10.093715-0.512H104.594286a104.521143 104.521143 0 0 0-104.009143 94.427428L0-23.478856999999948V791.405714C0 845.824 41.472 890.441143 94.427429 895.488L104.521143 896h475.428571z m423.424-47.250286a36.571429 36.571429 0 0 0 4.169143-46.665143l-4.169143-5.12-465.481143-465.481142a36.571429 36.571429 0 0 0-55.954285 46.665142l4.169143 5.12L951.588571 848.749714a36.571429 36.571429 0 0 0 51.785143 0z"  horiz-adv-x="1024" />

    
    <glyph glyph-name="view" unicode="&#58930;" d="M919.478857 896c54.345143 0 98.962286-41.472 104.009143-94.427429l0.512-10.093714v-475.428571a36.571429 36.571429 0 0 0-72.557714-6.582857L950.857143 316.123429v475.428571a31.378286 31.378286 0 0 1-25.746286 30.866286L919.478857 822.857143H104.594286a31.378286 31.378286 0 0 1-30.866286-25.746286L73.142857 791.4788570000001V-23.40571399999999c0-15.36 11.117714-28.233143 25.746286-30.866286l5.632-0.512h475.428571a36.571429 36.571429 0 0 0 6.582857-72.557714l-6.582857-0.585143h-475.428571a104.521143 104.521143 0 0 0-104.009143 94.427428L0-23.478856999999948V791.405714C0 845.824 41.472 890.441143 94.427429 895.488L104.521143 896H919.405714zM694.857143 420.571429a219.428571 219.428571 0 0 0 178.834286-346.550858l110.006857-110.006857a36.571429 36.571429 0 0 0-46.665143-55.881143l-5.12 4.169143-109.933714 110.006857A219.428571 219.428571 0 1 0 694.857143 420.571429z m0-73.142858a146.285714 146.285714 0 1 1 0-292.571428 146.285714 146.285714 0 0 1 0 292.571428zM373.028571 237.71428600000002a36.571429 36.571429 0 0 0 0-73.142857h-146.285714a36.571429 36.571429 0 0 0 0 73.142857h146.285714z m0 219.428571a36.571429 36.571429 0 0 0 0-73.142857h-146.285714a36.571429 36.571429 0 0 0 0 73.142857h146.285714z m365.714286 219.428572a36.571429 36.571429 0 1 0 0-73.142858h-512a36.571429 36.571429 0 0 0 0 73.142858h512z"  horiz-adv-x="1024" />

    
    <glyph glyph-name="fixed" unicode="&#58931;" d="M309.733129 826.767733a107.78191 107.78191 0 0 0 152.426639 0l153.798479-153.900096a430.19353 430.19353 0 0 0 298.603786-98.010329l15.598326-13.565971 40.697912-38.767175L690.799727 242.46561699999995l177.831078-177.831078a35.927303 35.927303 0 1 0-50.808879-50.80888l-177.831079 177.831079-279.448838-279.448838-25.40444 25.404439c-83.580607 83.580607-127.784332 195.46176-126.209257 310.442255l0.609707 18.494432-153.849288 153.74767a107.78191 107.78191 0 0 0 0 152.426639z m50.80888-50.808879l-254.044398-254.044399a35.927303 35.927303 0 0 1 0-50.808879l152.426639-152.426639c2.032355-2.032355 4.166328-3.759857 6.401918-5.080888l19.561419-11.736851-2.337208-22.660761a358.410778 358.410778 0 0 1 77.788394-262.326245l1.473458-1.778311 505.548352 505.548352-13.972442 10.92391a358.051505 358.051505 0 0 1-232.19658 69.608165l-17.833916-1.37184-22.508334-2.2864-11.78766 19.307375a36.142867 36.142867 0 0 1-5.284124 6.706772l-152.426638 152.426639a35.927303 35.927303 0 0 1-50.80888 0z"  horiz-adv-x="1024" />

    
    <glyph glyph-name="prohibit" unicode="&#58932;" d="M512 896a512 512 0 1 0 0-1024A512 512 0 0 0 512 896zM73.142857 384a438.857143 438.857143 0 0 1 728.137143-330.020571L181.979429 673.28A437.174857 437.174857 0 0 1 73.142857 384z m438.857143 438.857143a437.028571 437.028571 0 0 1-277.357714-98.742857l617.472-617.472A438.857143 438.857143 0 0 1 512 822.857143z"  horiz-adv-x="1024" />

    
    </font>
</defs>
</svg>
